<?xml version="1.0" encoding="utf-8"?>
<!-- Generator: Adobe Illustrator 22.0.1, SVG Export Plug-In . SVG Version: 6.00 Build 0)  -->
<svg version="1.1" id="Layer_1" xmlns="http://www.w3.org/2000/svg" xmlns:xlink="http://www.w3.org/1999/xlink" x="0px" y="0px"
	 viewBox="0 0 128.3 19.8" style="enable-background:new 0 0 128.3 19.8;" xml:space="preserve">
<style type="text/css">
	.st0{fill:#2A2B2F;}
</style>
<path class="st0" d="M126.9,19.8c-0.1,0-0.7-0.1-2.2-0.7l-2-0.8c-0.8-0.3-1.8-0.6-2.9-0.9l-7.8-2.1l-0.3,0l-10.1,2.7
	c-1,0.3-1.9,0.5-2.5,0.7l-2.1,0.7c-0.2,0.1-0.5,0.1-0.7,0.2l-0.1,0c-0.1,0.1-0.3,0.1-0.7,0.1l-0.1,0c0,0-0.1,0-0.1,0
	c-0.3,0-0.5-0.1-0.7-0.2l-0.1-0.1c-0.4-0.1-0.8-0.3-1.3-0.5l-2-0.8c-0.8-0.3-1.8-0.6-2.9-0.9l-7.8-2.1l-0.3,0l-10.1,2.7
	c-1,0.3-1.9,0.5-2.5,0.7l-2.1,0.7c-0.2,0.1-0.5,0.1-0.7,0.2l-0.1,0c-0.1,0.1-0.3,0.1-0.7,0.1l-0.1,0c0,0-0.1,0-0.1,0
	c-0.3,0-0.5-0.1-0.7-0.2l-0.1-0.1c-0.4-0.1-0.8-0.3-1.3-0.5l-2-0.8c-0.8-0.3-1.8-0.6-2.9-0.9l-7.8-2.1l-0.3,0l-10.1,2.7
	c-1,0.3-1.9,0.5-2.5,0.7l-2.1,0.7c-0.2,0.1-0.5,0.1-0.7,0.2l-0.1,0c-0.1,0.1-0.3,0.1-0.7,0.1l-0.1,0c0,0-0.1,0-0.1,0
	c-0.3,0-0.5-0.1-0.7-0.2l-0.1-0.1c-0.4-0.1-0.8-0.3-1.3-0.5l-2-0.8c-0.8-0.3-1.8-0.6-2.9-0.9l-7.8-2.1l-0.3,0L7.4,18.1
	c-1,0.3-1.9,0.5-2.5,0.7l-2.1,0.7c-0.7,0.2-1.2,0.3-1.7,0.3c-0.4,0-0.6-0.1-0.8-0.3C0.1,19.3,0,19,0,18.6c0-0.4,0.2-0.7,0.5-1
	c0.2-0.2,0.8-0.5,2.6-0.8c1.5-0.3,2.9-0.5,4-0.9l4.2-1.1v-1.2l-4.2-1.1c-1.2-0.3-2.5-0.6-4-0.9c-1.1-0.2-1.9-0.4-2.3-0.7l-0.1,0
	c-0.1-0.1-0.3-0.1-0.4-0.2C0.1,10.6,0,10.3,0,9.9l0,0l0,0C0,9.5,0.1,9.2,0.3,9c0.1-0.1,0.2-0.2,0.4-0.2l0.1,0C1.2,8.5,2,8.3,3.1,8.1
	c1.5-0.3,2.9-0.5,4-0.9l4.2-1.1V5L7.1,3.9C5.9,3.6,4.6,3.3,3.1,3C1.3,2.7,0.7,2.4,0.5,2.2C0.1,1.9,0,1.6,0,1.2
	c0-0.4,0.1-0.7,0.3-0.9C0.5,0.1,0.8,0,1.1,0c0.4,0,1,0.1,1.6,0.3L4.9,1c0.7,0.2,1.5,0.5,2.5,0.7l10.1,2.7l0.3,0l7.8-2.1
	c1.1-0.3,2.1-0.6,2.9-0.9l2-0.8c0.5-0.2,0.9-0.4,1.3-0.5l0.1-0.1C32,0.1,32.3,0,32.5,0l0.1,0l0.1,0l0.1,0c0.4,0,0.6,0.1,0.7,0.1
	l0.1,0c0.2,0.1,0.4,0.1,0.7,0.2L36.3,1c0.7,0.2,1.5,0.5,2.5,0.7l10.1,2.7l0.3,0L57,2.4c1.1-0.3,2.1-0.6,2.9-0.9l2-0.8
	c0.5-0.2,0.9-0.4,1.3-0.5l0.1-0.1C63.4,0.1,63.6,0,63.9,0L64,0L64,0l0.1,0c0.4,0,0.6,0.1,0.7,0.1l0.1,0c0.2,0.1,0.4,0.1,0.7,0.2
	L67.6,1c0.7,0.2,1.5,0.5,2.5,0.7l10.1,2.7l0.3,0l7.8-2.1c1.1-0.3,2.1-0.6,2.9-0.9l2-0.8c0.5-0.2,0.9-0.4,1.3-0.5l0.1-0.1
	C94.8,0.1,95,0,95.3,0l0.1,0l0.1,0l0.1,0c0.4,0,0.6,0.1,0.7,0.1l0.1,0c0.2,0.1,0.4,0.1,0.7,0.2L99,1c0.7,0.2,1.5,0.5,2.5,0.7
	l10.1,2.7l0.3,0l7.8-2.1c1.1-0.3,2.1-0.6,2.9-0.9l2-0.8c1.6-0.6,2.1-0.7,2.2-0.7c0.4,0,0.6,0.1,0.7,0.1c0.5,0.2,0.7,0.5,0.7,1
	c0,0.7-0.2,1.6-1.8,1.9c-0.8,0.1-1.4,0.3-1.8,0.4l-1.2,0.2c-0.4,0.1-0.8,0.2-1.3,0.3L117.9,5v1.1l4.2,1.1c0.4,0.1,0.8,0.2,1.2,0.3
	l1.3,0.2c0.4,0.1,1,0.2,1.8,0.3c0.9,0.2,1.4,0.5,1.7,1l0,0.1c0.1,0.1,0.1,0.3,0.1,0.5l0,0.1v0.1l0,0.1c0,0.2,0,0.4-0.1,0.5l0,0.1
	c-0.2,0.5-0.8,0.9-1.7,1c-0.8,0.1-1.4,0.3-1.8,0.4l-1.2,0.2c-0.4,0.1-0.8,0.2-1.3,0.3l-4.2,1.1v1.1l4.2,1.1c0.4,0.1,0.8,0.2,1.2,0.3
	l1.3,0.2c0.4,0.1,1,0.2,1.8,0.3c1.6,0.3,1.8,1.2,1.8,1.9c0,0.5-0.2,0.8-0.7,1C127.5,19.8,127.2,19.8,126.9,19.8z M32.9,11.5
	c-0.2,0.1-0.4,0.1-0.6,0.2c-0.8,0.1-1.4,0.3-1.8,0.4l-1.2,0.2c-0.4,0.1-0.8,0.2-1.3,0.3l-4.2,1.1v1.1L28,16c0.4,0.1,0.8,0.2,1.2,0.3
	l1.3,0.2c0.4,0.1,1,0.2,1.8,0.3c0.2,0,0.4,0.1,0.6,0.2l0.3,0c0.4-0.1,0.8-0.2,1.2-0.2c1.5-0.3,2.9-0.5,4-0.9l4.2-1.1v-1.2l-4.2-1.1
	c-1.2-0.3-2.5-0.6-4-0.9c-0.4-0.1-0.8-0.2-1.2-0.2L32.9,11.5z M95.7,11.5c-0.2,0.1-0.4,0.1-0.6,0.2c-0.8,0.1-1.4,0.3-1.8,0.4
	L92,12.3c-0.4,0.1-0.8,0.2-1.3,0.3l-4.2,1.1v1.1l4.2,1.1c0.4,0.1,0.8,0.2,1.2,0.3l1.3,0.2c0.4,0.1,1,0.2,1.8,0.3
	c0.2,0,0.4,0.1,0.6,0.2l0.3,0c0.4-0.1,0.8-0.2,1.2-0.2c1.5-0.3,2.9-0.5,4-0.9l4.2-1.1v-1.2l-4.2-1.1c-1.2-0.3-2.5-0.6-4-0.9
	c-0.4-0.1-0.8-0.2-1.2-0.2L95.7,11.5z M64.3,11.5c-0.2,0.1-0.4,0.1-0.6,0.2c-0.8,0.1-1.4,0.3-1.8,0.4l-1.2,0.2
	c-0.4,0.1-0.8,0.2-1.3,0.3l-4.2,1.1v1.1l4.2,1.1c0.4,0.1,0.8,0.2,1.2,0.3l1.3,0.2c0.4,0.1,1,0.2,1.8,0.3c0.2,0,0.4,0.1,0.6,0.2
	l0.3,0c0.4-0.1,0.8-0.2,1.2-0.2c1.5-0.3,2.9-0.5,4-0.9l4.2-1.1v-1.2l-4.2-1.1c-1.2-0.3-2.5-0.6-4-0.9c-0.4-0.1-0.8-0.2-1.2-0.2
	L64.3,11.5z M111.6,6.7l-9.8,2.6v1.1l9.8,2.6l0.3,0l7.8-2.1c0.7-0.2,1.4-0.4,2.1-0.6V9.3c-0.6-0.2-1.3-0.4-2.1-0.6l-7.8-2.1
	L111.6,6.7z M80.2,6.7l-9.8,2.6v1.1l9.8,2.6l0.3,0l7.8-2.1c0.7-0.2,1.4-0.4,2.1-0.6V9.3c-0.6-0.2-1.3-0.4-2.1-0.6l-7.8-2.1L80.2,6.7
	z M48.9,6.7L39,9.3v1.1l9.8,2.6l0.3,0l7.8-2.1c0.7-0.2,1.4-0.4,2.1-0.6V9.3c-0.6-0.2-1.3-0.4-2.1-0.6l-7.8-2.1L48.9,6.7z M17.5,6.7
	L7.7,9.3v1.1l9.8,2.6l0.3,0l7.8-2.1c0.7-0.2,1.4-0.4,2.1-0.6V9.3c-0.6-0.2-1.3-0.4-2.1-0.6l-7.8-2.1L17.5,6.7z M32.9,2.8
	c-0.2,0.1-0.4,0.1-0.6,0.2c-0.8,0.1-1.4,0.3-1.8,0.4l-1.2,0.2c-0.4,0.1-0.8,0.2-1.3,0.3L23.8,5v1.1L28,7.3c0.4,0.1,0.8,0.2,1.2,0.3
	l1.3,0.2c0.4,0.1,1,0.2,1.8,0.3c0.2,0,0.4,0.1,0.6,0.2l0.3,0c0.4-0.1,0.8-0.2,1.2-0.2c1.5-0.3,2.9-0.5,4-0.9l4.2-1.1V5l-4.2-1.1
	c-1.2-0.3-2.5-0.6-4-0.9C34,3,33.6,2.9,33.3,2.8L32.9,2.8z M95.7,2.8c-0.2,0.1-0.4,0.1-0.6,0.2c-0.8,0.1-1.4,0.3-1.8,0.4L92,3.6
	c-0.4,0.1-0.8,0.2-1.3,0.3L86.6,5v1.1l4.2,1.1c0.4,0.1,0.8,0.2,1.2,0.3l1.3,0.2c0.4,0.1,1,0.2,1.8,0.3c0.2,0,0.4,0.1,0.6,0.2l0.3,0
	c0.4-0.1,0.8-0.2,1.2-0.2c1.5-0.3,2.9-0.5,4-0.9l4.2-1.1V5l-4.2-1.1c-1.2-0.3-2.5-0.6-4-0.9C96.8,3,96.4,2.9,96,2.8L95.7,2.8z
	 M64.3,2.8c-0.2,0.1-0.4,0.1-0.6,0.2c-0.8,0.1-1.4,0.3-1.8,0.4l-1.2,0.2c-0.4,0.1-0.8,0.2-1.3,0.3L55.2,5v1.1l4.2,1.1
	c0.4,0.1,0.8,0.2,1.2,0.3l1.3,0.2c0.4,0.1,1,0.2,1.8,0.3c0.2,0,0.4,0.1,0.6,0.2l0.3,0c0.4-0.1,0.8-0.2,1.2-0.2
	c1.5-0.3,2.9-0.5,4-0.9L74,6.1V5l-4.2-1.1c-1.2-0.3-2.5-0.6-4-0.9C65.4,3,65,2.9,64.7,2.8L64.3,2.8z"/>
</svg>
