<?xml version="1.0" encoding="utf-8"?>
<!-- Generator: Adobe Illustrator 21.1.0, SVG Export Plug-In . SVG Version: 6.00 Build 0)  -->
<svg version="1.1" id="Layer_1" xmlns="http://www.w3.org/2000/svg" xmlns:xlink="http://www.w3.org/1999/xlink" x="0px" y="0px"
	 viewBox="0 0 169.1 169.1" style="enable-background:new 0 0 169.1 169.1;" xml:space="preserve">
<style type="text/css">
	.st0{fill:#FFFFFF;}
</style>
<g>
	<path class="st0" d="M84.6,169.1C37.9,169.1,0,131.2,0,84.6C0,37.9,37.9,0,84.6,0c46.6,0,84.6,37.9,84.6,84.6
		C169.1,131.2,131.2,169.1,84.6,169.1z M84.6,4C40.1,4,4,40.1,4,84.6s36.1,80.6,80.6,80.6s80.6-36.1,80.6-80.6S129,4,84.6,4z"/>
</g>
<g>
	<path class="st0" d="M60.7,124.8V44.3l69.7,40.3L60.7,124.8z M64.7,51.2v66.7l57.7-33.3L64.7,51.2z"/>
</g>
</svg>
