<svg xmlns="http://www.w3.org/2000/svg" width="61.24mm" height="105.83mm" viewBox="0 0 173.59 300"><defs><style>.a{fill:#fff;}</style></defs><title>question-large</title><path class="a" d="M71,222.14c0-57.71,27-74.66,55-92.52,22-14.2,44-31.6,44-62.29,0-37.56-32.52-64.12-76.95-64.12C38,3.21,8.24,37.1,3.21,73.74.92,73.74,0,72.82,0,71c0-1.37,3.66-26.11,22-44.43C37.56,11,59.54,0,93,0c47.18,0,80.61,27.48,80.61,67.33,0,32.52-22,49.92-45.34,65-27,17.4-53.59,34.81-53.59,89.77,0,3.21-.46,3.66-1.83,3.66S71,224.89,71,222.14ZM68.7,294.51v-.92c0-3.21,1.83-5.5,5-5.5h.92c3.21,0,5,2.29,5,5.5v.92c0,3.21-1.83,5.49-5,5.49h-.92C70.53,300,68.7,297.71,68.7,294.51Z"/></svg>