<svg xmlns="http://www.w3.org/2000/svg" width="6.95mm" height="11.64mm" viewBox="0 0 19.7 33"><defs><style>.a{fill:#fff;}</style></defs><title>Untitled-1</title><path class="a" d="M7,22.88c.35-9.92,9.38-8.54,9.38-14.44C16.38,5.11,14,3,10,3c-5.16,0-7,3.47-7.54,6.75,0,.2-2.43-.15-2.43-2C0,5.26,2.88,0,10.07,0c6,0,9.63,3.52,9.63,8.14,0,8.09-9.92,6.85-9.92,14.94,0,.55-.6.84-1.39.84S6.95,23.62,7,22.88ZM6.1,30.82v-.5a2,2,0,0,1,2.18-2.23h.5A2,2,0,0,1,11,30.32v.5A2,2,0,0,1,8.78,33h-.5A2,2,0,0,1,6.1,30.82Z"/></svg>