<?xml version="1.0" encoding="utf-8"?>
<!-- Generator: Adobe Illustrator 20.1.0, SVG Export Plug-In . SVG Version: 6.00 Build 0)  -->
<svg version="1.1" id="Layer_1" xmlns="http://www.w3.org/2000/svg" xmlns:xlink="http://www.w3.org/1999/xlink" x="0px" y="0px"
	 viewBox="0 0 369.5 52.9" style="enable-background:new 0 0 369.5 52.9;" xml:space="preserve">
<style type="text/css">
	.st0{fill:#FFFFFF;}
</style>
<g>
	<path class="st0" d="M343.5,20.7c-8-2.2-10-3.4-10-6c0-2.9,2.7-4.5,7.7-4.5c7.9,0,13.1,4,13.2,4l0.4,0.3l5.9-9l-0.3-0.3
		c-0.2-0.2-5.8-5.3-19.2-5.3c-11.2,0-18.3,4.6-19.6,12.4C317,4.7,308.6,0,298.2,0c-12.1,0-21.4,6.4-25.1,16.4
		c-3.8-10.1-13.4-16.3-26.3-16.3h-20.9v41.5L204.6,0.1h-2.4l-18.8,36.7c-0.2-5.2-3.2-9.2-8.1-11v-0.5c4.2-2,6.6-5.8,6.6-10.7
		c0-9.3-7-14.6-19.3-14.6h-25.4v51.1l-12.4-16.4v-0.3c6.4-3.2,9.8-8.7,9.8-16.1c0-11.5-8.1-18.3-21.7-18.3H88.9v41.6L67.5,0.1h-2.4
		L46.2,36.8c-0.2-5.2-3.2-9.2-8.1-11v-0.5c4.2-2,6.6-5.8,6.6-10.7c0-9.3-7-14.6-19.3-14.6H0v52.8h26.1c5.6,0,10.2-1.1,13.6-3.3
		l-1.7,3.3h13l3.3-7.1h24.2l3.4,7.1h7.2h5.8h5.6V37.1H113l11.5,15.8h12.6h26.1c5.6,0,10.2-1.1,13.6-3.3l-1.7,3.3h13l3.3-7.1h24.2
		l3.4,7.1h7.1h5.8h15.1c12.9,0,22.5-6.3,26.3-16.4c3.7,10,13,16.4,25.1,16.4c15.8,0,26.9-10.9,26.9-26.5c0-0.7,0-1.5-0.1-2.2
		c2.8,2.7,7.3,4.7,13.7,6.5c8.9,2.5,10.5,4.1,10.5,6.9c0,3.3-2.8,5.1-8,5.1c-5.7,0-10.6-2.4-12.9-3.8c-1.3,3.4-3.2,6.4-5.5,9
		c3,1.9,9.1,4.9,18.6,4.9c12.6,0,20.1-6,20.1-16.2C361.6,28.8,356.3,24.1,343.5,20.7z M11.4,10.2h13.8c4.8,0,7.5,2.1,7.5,5.8
		c0,3.6-2.9,5.8-7.5,5.8H11.4V10.2z M26.4,42.8h-15V30.5h14.8c4.6,0,7.9,2.5,7.9,6.1C34.1,40.3,31,42.8,26.4,42.8z M58.2,37l8-17.1
		h0.1L74,36.7l0.2,0.4H58.2z M112.7,27.3h-12.4V10.2h12.1c6.7,0,10.3,3,10.3,8.6C122.7,25.8,117.3,27.3,112.7,27.3z M148.5,10.2
		h13.8c4.8,0,7.5,2.1,7.5,5.8c0,3.6-2.9,5.8-7.5,5.8h-13.7V10.2z M163.5,42.8h-15V30.5h14.8c4.6,0,7.9,2.5,7.9,6.1
		C171.2,40.3,168.1,42.8,163.5,42.8z M195.3,37l8-17.1h0.1l7.7,16.7l0.2,0.4H195.3z M246.1,42.8h-8.8V10.2h8.8
		c10.5,0,17,6.2,17,16.3C263.1,36.5,256.6,42.8,246.1,42.8z M306.6,37.1c-2.1-0.4-4.2-0.6-6.2-0.6c-0.3,0-0.6,0-0.8,0
		c-0.2,3.4-0.6,6.9-1.2,9.9l-0.3,1.3l-0.3-1.3c0-0.1-0.6-3.2-1.1-9.6c-4.2,0.5-6.5,1.8-6.5,1.8l-0.4,0.2l0-0.4
		c-0.7-11.7-11.3-25.3-11.4-25.5l-0.5-0.6l0.7,0.2c6.9,1.7,9.4,4.7,9.5,4.8l0.7,0.8l-1-0.4c-0.7-0.3-1.3-0.4-1.9-0.4
		c-0.2,0-0.3,0-0.5,0c6.2,8.4,7,15.4,7.1,16.9c1.3-0.2,2.5-0.3,3.8-0.3c0,0,0,0,0.1,0c-0.2-3.6-0.3-8.1-0.3-13.3l0-0.3l0.3,0.1
		c0,0,0.7,0.2,1.6,0.2c1,0,1.8-0.2,2.4-0.7c-0.4-0.6-1.6-2.6-2.4-4.5c-0.5,0.9-1.9,3-3.8,4.2l-1.1,0.7l0.8-1.1c0,0,3-4.4,3.9-11.8
		l0.1-1.3l0.4,1.2c0,0.1,1.9,6.3,6.7,12.4l0.1,0.1l-0.1,0.2c-0.1,0.1-1.8,3.5-5,4c0,1,0,5.2-0.3,10.1c4.3,0.6,6.9,2.3,7,2.4l1,0.7
		L306.6,37.1z M318.1,12.9c-0.1,0.1-6.6,8.8-11.4,19.3l-0.5,1l0-1.1c0-0.1-0.1-7.4,4.7-14.8c-0.1,0-0.2,0-0.4,0
		c-0.4,0-1.1,0.1-2,0.4l-1,0.4l0.7-0.8c0.1-0.1,2.9-3.2,9.5-4.8l0.7-0.2L318.1,12.9z"/>
	<g>
		<g>
			<path class="st0" d="M363.5,6.1c0.2-0.4,0.4-0.7,0.7-1c0.3-0.3,0.6-0.5,1-0.7c0.4-0.2,0.8-0.2,1.2-0.2c0.4,0,0.8,0.1,1.2,0.2
				c0.4,0.2,0.7,0.4,1,0.7c0.3,0.3,0.5,0.6,0.7,1c0.2,0.4,0.2,0.8,0.2,1.2c0,0.4-0.1,0.9-0.2,1.2c-0.2,0.4-0.4,0.7-0.7,1
				c-0.3,0.3-0.6,0.5-1,0.7c-0.4,0.2-0.8,0.2-1.2,0.2c-0.4,0-0.8-0.1-1.2-0.2c-0.4-0.2-0.7-0.4-1-0.7c-0.3-0.3-0.5-0.6-0.7-1
				c-0.2-0.4-0.2-0.8-0.2-1.2C363.3,6.9,363.4,6.5,363.5,6.1z M364,8.4c0.1,0.3,0.3,0.6,0.5,0.8c0.2,0.2,0.5,0.4,0.8,0.6
				c0.3,0.1,0.7,0.2,1,0.2c0.4,0,0.7-0.1,1-0.2c0.3-0.1,0.6-0.3,0.8-0.6c0.2-0.2,0.4-0.5,0.5-0.8c0.1-0.3,0.2-0.7,0.2-1.1
				c0-0.4-0.1-0.7-0.2-1c-0.1-0.3-0.3-0.6-0.5-0.8c-0.2-0.2-0.5-0.4-0.8-0.6c-0.3-0.1-0.6-0.2-1-0.2c-0.4,0-0.7,0.1-1,0.2
				c-0.3,0.1-0.6,0.3-0.8,0.6c-0.2,0.2-0.4,0.5-0.5,0.8c-0.1,0.3-0.2,0.7-0.2,1C363.8,7.7,363.9,8,364,8.4z M366.6,5.5
				c0.4,0,0.7,0.1,1,0.3c0.2,0.2,0.3,0.4,0.3,0.8c0,0.3-0.1,0.6-0.3,0.7c-0.2,0.2-0.4,0.2-0.7,0.3l1,1.6h-0.6l-1-1.6h-0.6v1.6h-0.6
				V5.5H366.6z M366.3,7.1c0.1,0,0.2,0,0.4,0c0.1,0,0.2,0,0.3-0.1c0.1,0,0.2-0.1,0.2-0.2c0.1-0.1,0.1-0.2,0.1-0.3
				c0-0.1,0-0.2-0.1-0.3c0-0.1-0.1-0.1-0.2-0.2C367,6,366.9,6,366.8,6c-0.1,0-0.2,0-0.3,0h-0.7v1.2H366.3z"/>
		</g>
	</g>
</g>
</svg>
