<svg xmlns="http://www.w3.org/2000/svg" width="105.83mm" height="39.26mm" viewBox="0 0 300 111.3"><defs><style>.a,.g{fill:#fff;}.b{fill:#008c3c;}.b,.c,.d,.e,.f,.g{fill-rule:evenodd;}.c{fill:#fc0;}.d{fill:#153d8a;}.e{fill:#e30613;}.f{fill:#0d181c;}</style></defs><title>logo-south-africa</title><polygon class="a" points="224.73 0 300 48.67 300 36.6 243.68 0 224.73 0"/><polygon class="a" points="243.68 111.3 300 74.7 300 62.63 224.72 111.3 243.68 111.3"/><polygon class="b" points="279.15 55.65 190.35 111.3 224.72 111.3 300 62.63 300 48.67 224.72 0 190.35 0 279.15 55.65"/><polygon class="c" points="259.98 55.65 169.63 111.3 190.35 111.3 279.15 55.65 190.35 0 169.63 0 259.98 55.65"/><polygon class="d" points="300 111.3 300 74.7 243.68 111.3 300 111.3"/><polygon class="e" points="300 0 243.68 0 300 36.6 300 0"/><polygon class="f" points="0 111.3 169.83 111.3 260.18 55.65 169.83 0 0 0 0 111.3"/><path class="g" d="M184.51,50.12a7.62,7.62,0,0,0-4.8.26c-2,1-3.67,1.91-5,4a9.8,9.8,0,0,1,1.45-4,14.31,14.31,0,0,0-3.27.78c-.12.12-.24.19-.38.33a2.52,2.52,0,0,0-.73,1.34l-3,13a3.76,3.76,0,0,0,1.91,1,15.1,15.1,0,0,0,3.46-.89,3.13,3.13,0,0,1,.1-1.48,18.75,18.75,0,0,0,.66-2.9,15,15,0,0,1,9.34-10.4c.78-.63.86-1,.23-1m6.44-4.8a.49.49,0,0,0,.21.14,23.38,23.38,0,0,0,3.45-.87,3,3,0,0,0,1.55-1.75,4.23,4.23,0,0,0-.27-2.27,1,1,0,0,0-1.51-.1,16.51,16.51,0,0,1-2.22.82c-1.42.4-2.14,1.51-2,1.7a6.87,6.87,0,0,1,.56,1.82.72.72,0,0,0,.24.51m-51,5.55c3.6-7.92,7.42-15.87,8.78-17.9,0,0,.44-.39.47.26a143.77,143.77,0,0,0,1.1,14.62l-10.35,3m39.4-8.19A5.36,5.36,0,0,0,181.47,39c-2.1,1.3-1-.32-8.79,2.16-.88.32-2.71.89-5.17,1.63l.11-1.13c1-8.07,6.49-10.19,10.24-12.07.81-.41,1.57-3.27-2.95-2.3C168.25,28.71,165,35.84,164,38.75l-.58,2c-.32,1.15-.62,2.34-.89,3.55l-7.24,2.12c-1.21-11.95-1-18-2.92-18.74-.52-.2-3.59-1.12-5.07-.19-1.71,1.07-8.9,14.07-15,25.67a100,100,0,0,0-10,3.29c-1.5.8,2.51,3.52,4.28,3.8a14.52,14.52,0,0,0,2.33-.59c-2.95,5.78-5.17,10.36-5.56,11.52,1.5-.27,4.37,1.12,6.57-.2a7.85,7.85,0,0,0,3.08-4.18c.82-2.18,2.3-5.71,4.06-9.7,4.11-1.32,9-2.94,13.89-4.55,1.25,6.65,2.25,13.08,6.06,16.62.37.35,1.58,1,1.32,0-1.78-6.31-2-12.57-2.64-18.24l5.85-2c-1.69,10.41.24,20.26,2.62,20.17,1.09,0,1.09-1.55,1.26-3,.13-1.07.33-5.73.45-6.8l1.12-12.21,7.54-2.55c2.08-.82,3.89-1.45,4.7-1.92m37.75,5.82c-1.9.1-4.07,2.12-5.77,4.61l-.09.18c-.3.44-.59.91-.86,1.38-3,4.18-6.72,9.39-9.32,9.39-1,0-1.95-2.09-1.09-4.56,2.79-8.08,9.88-9.53,9.24-10.58a12.45,12.45,0,0,0-10.11,2.59c-5.13,3.71-10.84,10.85-11.14,10.43-1.3-2.22,3.86-8.3,6.14-12.91,0,0-1.24,0-2,.05a12,12,0,0,0-4.39,1.11s-4.33,6.25-4.86,9.11c-.59,3.18.08,6.77,2.1,6.72,2.93-.07,6.69-5.19,9.73-8.9a9.89,9.89,0,0,0-.62,1.74c-1,3.93-.21,8.65,5.63,8.65,2.65,0,5.72-3.45,8.43-7.07-.59,2.8,0,5,2.47,4.82a10.08,10.08,0,0,0,7-3.62c1.42,4.37,4.69,3,4.69,3a9.17,9.17,0,0,1-1.08-4.69,52.32,52.32,0,0,1,1.51-9.23c.16-.6.3-1.18.42-1.72a23.81,23.81,0,0,0-6-.48m-.47,9.65a14.24,14.24,0,0,1-4.06,4.13c-.37-1.6,2-6.58,3.35-8.67.89-1.35,1.4-1.67,1.89-1.88,1.6.35-.3,5.07-1.19,6.41m-196-5C24.84,53,30,50.31,29.5,56c-.11,1.37-1.08,3.5-3,6s-8.15,10.76-8.62,11.94.69.72,1.12,1.25C28.08,68.68,34.2,60,41.71,54c-.43,2.43-4.89,11.39,1.93,11.22,3.95-.09,7.32-3,8.61-7.25.84-2.77.79-5.48.93-8.43-3.71.47-4.69-.86-6.66-.81-3.89.1-7.2,5.6-11.65,9.95a9.25,9.25,0,0,0,1.32-3.9c.36-5-6-5.53-9-5.45-1.2,0-4.43.59-6,.19-.22-.17,0-.41.42-1.28C23,44.72,34,30.6,35.87,28.84c.23-.16-.61-.7-1.12-1a5.71,5.71,0,0,0-6.91.17c-6,6.17-10.94,12-12.78,16.58-2,5-1.15,8.71,5.55,8.53M46.32,55c.48-1.18.86-1,1.23-1.63,1.47.4.88,4.62.4,5.81a11.87,11.87,0,0,1-2.61,3.58c-.68-1.49.24-5.93,1-7.77M110.18,54c-1.87-3.74-10.19,3.73-11,4.63.93-3.62,2.07-7.47,3.16-10.62,2.18-6.41,3.1-9.44,5.91-14.62.63-1.17.78-2.43-.24-3.06a2.07,2.07,0,0,0-.89-.28c-1.23,0-2.13.75-3.33.9L98.69,43.1c-3,.82-6.38,1.86-7.17,1.88.34-2.25,5.7-8,.57-7.33-1.19.17-.67.55-2.26.63-1.92,2.57-2.72,6.26-4.18,9.53-.37.84-4.3,3.07-6.75,3.43,1,1,2.4.68,3.58.48.92-.16.9,0,.82.38a10.88,10.88,0,0,1-.3,1.06c-1.4,4.34-6.78,8-7.83,8.68-1-3.1,3-12.05-2-11.93-6.94.18-11.12,11.57-14.61,14.18-1.65-2.83,3.91-10.42,6.82-16.28l-2.58.06a12.5,12.5,0,0,0-4.77,1.47s-3.79,7.8-4.61,11.41c-.37,1.61-.07,7.37,2.5,7.3C61,67.92,67.39,56.16,69.5,53.76c0,3.49-2.29,10.38,3,10.25,3.05-.08,6.74-3.94,9.43-5.39-.31,3.2-1,9.4,3.15,11.22-.38-1.68.74-7.69,1.18-9.56a39.18,39.18,0,0,1,4.67-11c.82-.93,3.43-2,6.82-3.88.1,1.06-.89,3.54-1.1,4.42-1.15,5-3.95,13.52-4,18v1.35l1.33-.41c5.37-1.66,7.82-10.38,11.3-10.87,1.39,2.27,1.74,9.17,5.43,9.06l2.08-.06c.89-3.89-.75-9.26-2.57-12.88"/></svg>