<svg xmlns="http://www.w3.org/2000/svg" width="42.82mm" height="21.34mm" viewBox="0 0 121.38 60.5"><defs><style>.a,.g{fill:#fff;}.b{fill:#008c3b;}.b,.c,.d,.e,.f,.g{fill-rule:evenodd;}.c{fill:#ffcc03;}.d{fill:#1c3f87;}.e{fill:#e30b17;}.f{fill:#0d181c;}</style></defs><title>south-africa-black</title><path d="M60.4,52.71,62,58.06h.88l.86-2.54a15.82,15.82,0,0,0,.49-1.77h0a17.82,17.82,0,0,0,.48,1.76l.82,2.55h.88l1.72-5.35h-1l-.76,2.68A16.08,16.08,0,0,0,66,57.13h0c-.12-.54-.28-1.1-.48-1.75l-.83-2.67h-.82L63,55.44c-.18.57-.35,1.15-.48,1.69h0c-.1-.55-.24-1.1-.4-1.7l-.71-2.72ZM56,54.87a1.61,1.61,0,0,1,1.49-1.58,1.38,1.38,0,0,1,1.35,1.58Zm3.75.7a3.67,3.67,0,0,0,0-.45,2.27,2.27,0,0,0-2.21-2.52,2.6,2.6,0,0,0-2.51,2.88,2.48,2.48,0,0,0,2.63,2.7,4.33,4.33,0,0,0,1.78-.33l-.17-.7a3.52,3.52,0,0,1-1.48.28A1.71,1.71,0,0,1,56,55.56Zm-10.43,2.5h1V54.84a1.4,1.4,0,0,1,.07-.45,1.38,1.38,0,0,1,1.3-1c.92,0,1.24.72,1.24,1.58v3.08h1V54.87c0-1.83-1.15-2.28-1.89-2.28a2,2,0,0,0-1.77,1h0l-.06-.88H49.3c0,.44,0,.89,0,1.45Zm-4.91-2.28a1.69,1.69,0,0,1-.08.52,1.42,1.42,0,0,1-1.35,1c-1,0-1.58-.87-1.58-1.92,0-1.24.66-2,1.59-2a1.4,1.4,0,0,1,1.36,1,1.38,1.38,0,0,1,.06.44Zm.15-3.07,0,.81h0a1.78,1.78,0,0,0-1.67-.93,2.57,2.57,0,0,0-2.41,2.84A2.39,2.39,0,0,0,42.72,58a1.91,1.91,0,0,0,1.7-.89h0v.6c0,1.35-.73,1.87-1.72,1.87a3,3,0,0,1-1.57-.42l-.24.74a3.45,3.45,0,0,0,1.78.44,2.83,2.83,0,0,0,1.94-.64,3.07,3.07,0,0,0,.76-2.44v-3.1c0-.65,0-1.08,0-1.47ZM34.7,58.06h1V54.84a1.4,1.4,0,0,1,.07-.45,1.38,1.38,0,0,1,1.3-1c.92,0,1.24.72,1.24,1.58v3.08h1V54.87c0-1.83-1.15-2.28-1.89-2.28a2,2,0,0,0-1.77,1h0l-.06-.88h-.86c0,.44,0,.89,0,1.45ZM32.6,50.6a.59.59,0,0,0-.61.61.6.6,0,1,0,.61-.61Zm.49,7.46V52.71h-1v5.35Zm-4.58,0h1V55.21a2.74,2.74,0,0,1,0-.45,1.36,1.36,0,0,1,1.3-1.25,1.46,1.46,0,0,1,.33,0v-.92a1.05,1.05,0,0,0-.28,0,1.6,1.6,0,0,0-1.48,1.17h0l0-1h-.85c0,.5,0,1,0,1.67Zm-2.1-7.46a.59.59,0,0,0-.61.61.6.6,0,1,0,.61-.61Zm.49,7.46V52.71h-1v5.35ZM20.6,55a1.58,1.58,0,0,1,.07-.4,1.55,1.55,0,0,1,1.47-1.2c1,0,1.59.92,1.59,2,0,1.23-.6,2.07-1.62,2.07a1.5,1.5,0,0,1-1.46-1.14,2.19,2.19,0,0,1,0-.4Zm-1,5.28h1V57.34h0a1.88,1.88,0,0,0,1.65.84c1.26,0,2.43-1,2.43-2.87,0-1.62-1-2.72-2.26-2.72a2.1,2.1,0,0,0-1.9,1h0l0-.92h-.87c0,.51,0,1.06,0,1.75ZM14.89,57.8a3,3,0,0,0,1.5.36c1.27,0,2-.66,2-1.6S17.91,55.31,17,55c-.7-.27-1-.46-1-.91s.32-.73.89-.73a2.08,2.08,0,0,1,1.09.31l.24-.71a2.67,2.67,0,0,0-1.31-.33A1.65,1.65,0,0,0,15,54.16c0,.64.45,1.17,1.41,1.51.72.27,1,.52,1,1s-.33.8-1,.8a2.55,2.55,0,0,1-1.28-.39Zm-5.75.25h1V54.84a1.4,1.4,0,0,1,.07-.45,1.38,1.38,0,0,1,1.3-1c.92,0,1.24.72,1.24,1.58v3.08h1V54.87c0-1.83-1.15-2.28-1.89-2.28a2,2,0,0,0-1.77,1h0L10,52.71H9.09c0,.44,0,.89,0,1.45ZM6.53,50.61v7.45h1V50.61Z"/><path d="M70.87,52.71l1.61,5.35h.88l.86-2.54a15.82,15.82,0,0,0,.49-1.77h0a17.82,17.82,0,0,0,.48,1.76L76,58.06h.88l1.72-5.35h-1l-.76,2.68a16.08,16.08,0,0,0-.41,1.73h0c-.12-.54-.28-1.1-.48-1.75l-.83-2.67h-.82l-.87,2.73c-.18.57-.35,1.15-.48,1.69h0c-.1-.55-.24-1.1-.4-1.7l-.71-2.72Z"/><path d="M82.4,56.26a1,1,0,0,1-.06.31,1.33,1.33,0,0,1-1.29.89.86.86,0,0,1-.92-.93c0-1,1.2-1.23,2.26-1.2Zm1,1.8a7.53,7.53,0,0,1-.09-1.28v-2c0-1.07-.4-2.19-2-2.19a3.32,3.32,0,0,0-1.76.48l.22.64a2.66,2.66,0,0,1,1.39-.4,1.1,1.1,0,0,1,1.22,1.24v.11c-2.07,0-3.21.7-3.21,2a1.52,1.52,0,0,0,1.64,1.54,2,2,0,0,0,1.64-.8h0l.08.67Z"/><path d="M89.64,57.8a3,3,0,0,0,1.5.36c1.27,0,2-.66,2-1.6s-.48-1.26-1.4-1.61c-.7-.27-1-.46-1-.91s.32-.73.89-.73a2.08,2.08,0,0,1,1.09.31l.24-.71a2.67,2.67,0,0,0-1.31-.33,1.65,1.65,0,0,0-1.84,1.57c0,.64.45,1.17,1.41,1.51.72.27,1,.52,1,1s-.33.8-1,.8a2.55,2.55,0,0,1-1.28-.39Zm-5.53-5.09,2,4.93a.85.85,0,0,1,.07.25.7.7,0,0,1-.08.23,3,3,0,0,1-.82,1.08,2.57,2.57,0,0,1-.85.48l.24.82a2.63,2.63,0,0,0,1.19-.63,8.14,8.14,0,0,0,1.83-3.35l1.46-3.81h-1L87,55.85c-.13.39-.24.8-.34,1.12h0c-.09-.32-.22-.74-.34-1.09l-1.17-3.16Z"/><polygon class="a" points="90.92 0 121.38 19.69 121.38 14.81 98.59 0 90.92 0"/><polygon class="a" points="98.59 45.03 121.38 30.22 121.38 25.34 90.92 45.03 98.59 45.03"/><polygon class="b" points="112.94 22.52 77.01 45.03 90.92 45.03 121.38 25.34 121.38 19.69 90.92 0 77.01 0 112.94 22.52"/><polygon class="c" points="105.18 22.52 68.63 45.03 77.01 45.03 112.94 22.52 77.01 0 68.63 0 105.18 22.52"/><polygon class="d" points="121.38 45.03 121.38 30.22 98.59 45.03 121.38 45.03"/><polygon class="e" points="121.38 0 98.59 0 121.38 14.81 121.38 0"/><polygon class="f" points="0 45.03 68.71 45.03 105.26 22.52 68.71 0 0 0 0 45.03"/><path class="g" d="M74.65,20.28a3.09,3.09,0,0,0-1.94.11,4.55,4.55,0,0,0-2,1.61,4,4,0,0,1,.59-1.61,5.79,5.79,0,0,0-1.32.31l-.15.14a1,1,0,0,0-.3.54L68.3,26.64a1.51,1.51,0,0,0,.77.39,6.07,6.07,0,0,0,1.4-.36,1.27,1.27,0,0,1,0-.6,7.55,7.55,0,0,0,.27-1.17,6.07,6.07,0,0,1,3.78-4.21c.31-.25.35-.39.09-.41m2.61-1.94.08.06A9.46,9.46,0,0,0,78.73,18a1.21,1.21,0,0,0,.63-.71,1.71,1.71,0,0,0-.11-.92.4.4,0,0,0-.61,0,6.68,6.68,0,0,1-.9.33c-.58.16-.87.61-.81.69a2.77,2.77,0,0,1,.23.74.3.3,0,0,0,.1.21M56.62,20.58c1.46-3.21,3-6.42,3.55-7.24,0,0,.18-.16.19.1a58.16,58.16,0,0,0,.45,5.91l-4.19,1.23m15.94-3.32a2.17,2.17,0,0,0,.86-1.49c-.85.53-.42-.13-3.56.87-.36.13-1.1.36-2.09.66l0-.46c.39-3.26,2.62-4.12,4.14-4.88.33-.17.64-1.33-1.19-.93-2.69.58-4,3.47-4.4,4.64l-.23.79c-.13.46-.25.95-.36,1.43l-2.93.86c-.49-4.83-.42-7.29-1.18-7.58a3,3,0,0,0-2.05-.08c-.69.43-3.6,5.7-6.05,10.38a40.52,40.52,0,0,0-4,1.33c-.6.32,1,1.43,1.73,1.54a5.88,5.88,0,0,0,.94-.24C51,26.46,50.11,28.31,50,28.78c.61-.11,1.77.45,2.66-.08A3.18,3.18,0,0,0,53.86,27c.33-.88.93-2.31,1.64-3.92,1.66-.54,3.65-1.19,5.62-1.84.51,2.69.91,5.29,2.45,6.72.15.14.64.39.53,0A43.24,43.24,0,0,1,63,20.6l2.37-.79C64.72,24,65.5,28,66.47,28c.44,0,.44-.63.51-1.21.05-.43.13-2.32.18-2.75l.46-4.94,3-1c.84-.33,1.58-.59,1.9-.78m15.27,2.35c-.77,0-1.65.86-2.34,1.86l0,.07c-.12.18-.24.37-.35.56-1.2,1.69-2.72,3.8-3.77,3.8-.42,0-.79-.85-.44-1.84,1.13-3.27,4-3.86,3.74-4.28a5,5,0,0,0-4.09,1c-2.08,1.5-4.39,4.39-4.51,4.22-.53-.9,1.56-3.36,2.49-5.22,0,0-.5,0-.82,0a4.88,4.88,0,0,0-1.78.45A15.78,15.78,0,0,0,74,24c-.24,1.29,0,2.74.85,2.72,1.19,0,2.71-2.1,3.94-3.6a4,4,0,0,0-.25.7c-.39,1.59-.09,3.5,2.28,3.5,1.07,0,2.31-1.39,3.41-2.86-.24,1.13,0,2,1,2A4.07,4.07,0,0,0,88,24.93c.57,1.77,1.9,1.21,1.9,1.21a3.71,3.71,0,0,1-.44-1.9,21.07,21.07,0,0,1,.61-3.73c.07-.24.12-.48.17-.7a9.68,9.68,0,0,0-2.43-.2m-.19,3.9A5.74,5.74,0,0,1,86,25.19c-.15-.65.8-2.66,1.36-3.51.36-.55.57-.68.77-.76.65.14-.12,2.05-.48,2.59m-79.31-2c1.72,0,3.79-1.13,3.6,1.16a5.37,5.37,0,0,1-1.21,2.44c-.77,1-3.3,4.35-3.49,4.83s.28.29.45.51c3.67-2.63,6.15-6.17,9.19-8.58-.17,1-2,4.61.78,4.54a3.84,3.84,0,0,0,3.48-2.93A13.53,13.53,0,0,0,21.52,20c-1.5.19-1.9-.35-2.7-.33-1.57,0-2.91,2.27-4.71,4a3.74,3.74,0,0,0,.53-1.58c.15-2-2.43-2.24-3.64-2.21A11,11,0,0,1,8.57,20c-.09-.07,0-.17.17-.52.58-1.42,5-7.13,5.77-7.84.09-.07-.25-.28-.45-.41a2.31,2.31,0,0,0-2.8.07C8.85,13.82,6.83,16.19,6.09,18c-.82,2-.47,3.52,2.24,3.45m10.41.78c.19-.48.35-.39.5-.66.6.16.35,1.87.16,2.35a4.8,4.8,0,0,1-1.06,1.45,6.15,6.15,0,0,1,.4-3.14m25.84-.44c-.76-1.51-4.12,1.51-4.45,1.88.38-1.46.84-3,1.28-4.3a32.39,32.39,0,0,1,2.39-5.92c.26-.47.32-1-.1-1.24a.84.84,0,0,0-.36-.11c-.5,0-.86.3-1.35.36l-2.07,4.93c-1.22.33-2.58.75-2.9.76.14-.91,2.31-3.25.23-3-.48.07-.27.22-.92.26a20.69,20.69,0,0,0-1.69,3.86,5.6,5.6,0,0,1-2.73,1.39,1.58,1.58,0,0,0,1.45.19c.37-.06.36,0,.33.15a4.41,4.41,0,0,1-.12.43C33,23.26,30.84,24.74,30.41,25c-.41-1.25,1.23-4.87-.8-4.82-2.81.07-4.5,4.68-5.91,5.74-.67-1.14,1.58-4.22,2.76-6.59l-1,0a5,5,0,0,0-1.93.59,32.71,32.71,0,0,0-1.86,4.61c-.15.65,0,3,1,3,2.06-.05,4.63-4.81,5.48-5.78,0,1.41-.93,4.2,1.2,4.14,1.23,0,2.73-1.59,3.82-2.18-.13,1.3-.41,3.8,1.28,4.54a15.72,15.72,0,0,1,2.37-8.32,18.26,18.26,0,0,1,2.76-1.57,8.23,8.23,0,0,1-.44,1.79c-.46,2-1.6,5.47-1.62,7.26V28L38,27.8c2.17-.67,3.16-4.2,4.57-4.4.56.92.71,3.71,2.2,3.67l.84,0a8.8,8.8,0,0,0-1-5.21"/></svg>