<svg id="Layer_1" data-name="Layer 1" xmlns="http://www.w3.org/2000/svg" viewBox="0 0 300 150.16"><defs><style>.cls-1,.cls-7{fill:#fff;}.cls-2{fill:#008c3c;}.cls-2,.cls-3,.cls-4,.cls-5,.cls-6,.cls-7{fill-rule:evenodd;}.cls-3{fill:#fc0;}.cls-4{fill:#153d8a;}.cls-5{fill:#e30613;}.cls-6{fill:#0d181c;}.cls-8{fill:none;}.cls-9{fill:#1d1d1b;}</style></defs><title>south-africa-black</title><polygon class="cls-1" points="224.73 0 300 48.67 300 36.6 243.68 0 224.73 0"/><polygon class="cls-1" points="243.68 111.3 300 74.7 300 62.63 224.73 111.3 243.68 111.3"/><polygon class="cls-2" points="279.15 55.65 190.35 111.3 224.73 111.3 300 62.63 300 48.67 224.73 0 190.35 0 279.15 55.65"/><polygon class="cls-3" points="259.98 55.65 169.63 111.3 190.35 111.3 279.15 55.65 190.35 0 169.63 0 259.98 55.65"/><polygon class="cls-4" points="300 111.3 300 74.7 243.68 111.3 300 111.3"/><polygon class="cls-5" points="300 0 243.68 0 300 36.6 300 0"/><polygon class="cls-6" points="0 111.3 169.83 111.3 260.18 55.65 169.83 0 0 0 0 111.3"/><path class="cls-7" d="M184.51,50.12a7.61,7.61,0,0,0-4.8.26c-2,1-3.67,1.91-5,4a9.76,9.76,0,0,1,1.45-4,14.33,14.33,0,0,0-3.27.78c-.12.12-.24.19-.38.34a2.5,2.5,0,0,0-.73,1.34l-3,13a3.74,3.74,0,0,0,1.91,1,14.94,14.94,0,0,0,3.46-.89,3.16,3.16,0,0,1,.09-1.48,17.81,17.81,0,0,0,.66-2.9,15,15,0,0,1,9.34-10.4C185.06,50.52,185.13,50.17,184.51,50.12Zm6.44-4.8a.5.5,0,0,0,.21.14,23.83,23.83,0,0,0,3.45-.87,3,3,0,0,0,1.55-1.75,4.22,4.22,0,0,0-.27-2.27.89.89,0,0,0-.85-.4.87.87,0,0,0-.67.3,16.22,16.22,0,0,1-2.22.81c-1.42.4-2.14,1.51-2,1.7a6.74,6.74,0,0,1,.56,1.83A.73.73,0,0,0,191,45.32Zm-51,5.55c3.6-7.92,7.42-15.87,8.78-17.9,0,0,.44-.39.47.26a143.66,143.66,0,0,0,1.1,14.62Zm39.4-8.19A5.37,5.37,0,0,0,181.47,39c-2.1,1.3-1-.32-8.79,2.16-.88.32-2.7.9-5.17,1.64l.11-1.13c1-8.06,6.48-10.19,10.23-12.07.81-.41,1.57-3.28-2.95-2.3C168.25,28.71,165,35.84,164,38.75l-.58,2c-.32,1.15-.62,2.34-.89,3.55l-7.24,2.12c-1.21-11.95-1-18-2.92-18.73-.52-.2-3.59-1.12-5.08-.2-1.71,1.07-8.9,14.08-15,25.67a100,100,0,0,0-10,3.29c-1.49.8,2.51,3.52,4.28,3.8a14.73,14.73,0,0,0,2.33-.59c-2.94,5.78-5.17,10.36-5.56,11.52,1.5-.27,4.37,1.12,6.58-.2a7.83,7.83,0,0,0,3.08-4.18c.82-2.18,2.3-5.71,4.06-9.7,4.11-1.33,9-2.94,13.9-4.55,1.25,6.65,2.25,13.08,6.05,16.61.37.35,1.58,1,1.32,0-1.78-6.31-2-12.57-2.64-18.24l5.85-2c-1.69,10.41.24,20.26,2.62,20.17,1.09,0,1.09-1.55,1.26-3,.13-1.07.33-5.73.44-6.8l1.13-12.21,7.54-2.55C176.73,43.77,178.55,43.14,179.35,42.67Zm37.75,5.82c-1.9.1-4.07,2.12-5.77,4.61l-.09.18c-.3.45-.59.91-.86,1.39-3,4.17-6.72,9.39-9.32,9.39-1,0-1.94-2.1-1.09-4.56,2.79-8.08,9.88-9.53,9.24-10.58a12.46,12.46,0,0,0-10.11,2.59c-5.14,3.71-10.84,10.85-11.14,10.42-1.3-2.22,3.86-8.3,6.14-12.9,0,0-1.24,0-2,.05a12,12,0,0,0-4.39,1.11s-4.33,6.25-4.86,9.11c-.59,3.18.08,6.77,2.1,6.72,2.92-.07,6.68-5.19,9.73-8.9a9.68,9.68,0,0,0-.62,1.73c-1,3.93-.21,8.65,5.63,8.65,2.65,0,5.72-3.45,8.42-7.07-.59,2.8,0,5,2.47,4.82a10.08,10.08,0,0,0,7-3.62c1.42,4.38,4.69,3,4.69,3a9.17,9.17,0,0,1-1.08-4.69,52,52,0,0,1,1.51-9.22c.16-.6.3-1.18.42-1.72A23.87,23.87,0,0,0,217.1,48.49Zm-.47,9.65a14.24,14.24,0,0,1-4.06,4.13c-.37-1.6,2-6.59,3.35-8.67.9-1.34,1.4-1.67,1.9-1.88C219.41,52.08,217.51,56.8,216.63,58.14Zm-196-5C24.84,53,30,50.32,29.51,56c-.11,1.37-1.08,3.5-3,6s-8.15,10.76-8.62,11.94.69.72,1.12,1.25C28.08,68.69,34.2,60,41.71,54c-.43,2.43-4.89,11.39,1.93,11.22,3.95-.1,7.32-3,8.61-7.25.84-2.77.79-5.49.93-8.43-3.72.47-4.69-.85-6.67-.8-3.88.1-7.2,5.6-11.65,9.95a9.2,9.2,0,0,0,1.32-3.9c.36-5-6-5.53-9-5.45-1.2,0-4.43.59-6,.19-.22-.17,0-.42.42-1.28C23,44.73,34,30.6,35.87,28.84c.23-.16-.61-.7-1.13-1a5.71,5.71,0,0,0-6.91.17c-6,6.17-10.94,12-12.78,16.58C13,49.62,13.9,53.29,20.59,53.11ZM46.32,55c.48-1.18.86-1,1.23-1.63,1.48.4.88,4.63.4,5.81a11.83,11.83,0,0,1-2.61,3.58C44.66,61.32,45.58,56.88,46.32,55ZM110.18,54c-1.87-3.74-10.19,3.73-11,4.63.93-3.62,2.07-7.47,3.16-10.62,2.18-6.41,3.1-9.44,5.91-14.63.63-1.17.78-2.43-.24-3.06a2,2,0,0,0-.89-.28c-1.23,0-2.13.75-3.33.9L98.69,43.1c-3,.82-6.38,1.85-7.17,1.88.34-2.25,5.7-8,.57-7.33-1.19.17-.67.55-2.26.63-1.92,2.57-2.72,6.26-4.18,9.53-.37.84-4.3,3.08-6.75,3.43,1,1,2.41.68,3.58.48.92-.16.9,0,.82.38s-.17.65-.3,1.05c-1.4,4.34-6.78,8-7.83,8.68-1-3.11,3-12.05-2-11.92-6.93.17-11.12,11.57-14.6,14.18-1.65-2.82,3.91-10.42,6.82-16.28l-2.58.06a12.56,12.56,0,0,0-4.77,1.47s-3.79,7.8-4.61,11.41c-.37,1.61-.08,7.37,2.5,7.3C61,67.92,67.39,56.15,69.5,53.76c0,3.5-2.29,10.38,3,10.25,3.05-.08,6.74-3.94,9.43-5.4-.31,3.2-1,9.4,3.15,11.22-.38-1.68.74-7.69,1.18-9.56a39.06,39.06,0,0,1,4.67-11c.82-.94,3.43-2,6.82-3.88.1,1.06-.89,3.54-1.1,4.42-1.15,5-3.95,13.52-4,18v1.35l1.33-.41c5.37-1.66,7.82-10.38,11.3-10.88,1.38,2.27,1.74,9.18,5.43,9.06l2.08-.05C113.64,62.95,112,57.58,110.18,54Z"/><line class="cls-8" y1="111.29" x2="300" y2="111.29"/><path class="cls-9" d="M20.36,131.62l-.68,4.83c-.57,4-.76,5.68-.9,7H15.33c.22-1.26.55-3.17,1.06-7l.66-4.89c.49-3.69.74-5.43.85-6.63h3.47C21.15,126.27,20.88,128,20.36,131.62Z"/><path class="cls-9" d="M35.67,135.94l-.52,3.55c-.22,1.42-.41,2.76-.52,4H31.36l1-7a17.47,17.47,0,0,0,.19-2c0-1.34-.52-2-1.31-2s-2,.46-3.88,3.06c0,0-1,7.1-1.06,7.86H23c.36-2.08.74-4.53,1-6.77a27.5,27.5,0,0,0,.41-6.42l3.3-.25a15.3,15.3,0,0,1-.16,3.08c2.29-2.87,3.82-3.3,5.41-3.3,1.8,0,2.92,1.06,2.92,3.49A20.78,20.78,0,0,1,35.67,135.94Z"/><path class="cls-9" d="M46.32,133.15a4,4,0,0,0-2.54-1c-1.36,0-1.94.82-1.94,1.64s.44,1.39,1.75,2.27c1.61,1.09,2.43,2,2.43,3.58,0,2.08-1.61,4.18-5.24,4.18a7.84,7.84,0,0,1-3.41-.85l.46-2.76a4.43,4.43,0,0,0,3,1.36c1.2,0,1.91-.54,1.91-1.56,0-.76-.41-1.28-1.61-2.13-1.75-1.26-2.48-2.13-2.48-3.77,0-2.27,1.72-4.29,5.13-4.29a8.72,8.72,0,0,1,3.08.6Z"/><path class="cls-9" d="M53.69,143.8a5.15,5.15,0,0,1-2.29-.63c-.36,2.27-.74,4.62-1,6.63l-3.36,0c.38-2.32.9-5.24,1.69-10.48a62.5,62.5,0,0,0,1-9.06L53,130.1c0,.33-.19,1.94-.33,2.78,1.88-2.38,3.41-3,5-3,2.13,0,3.52,1.66,3.52,4.94C61.25,138.91,58.25,143.8,53.69,143.8Zm2.54-11.27c-1.12,0-2.29.87-3.79,2.95l-.71,5.24a2.79,2.79,0,0,0,1.91.68c2.7,0,4.34-3.38,4.34-6.12C58,133.31,57.29,132.52,56.23,132.52Z"/><path class="cls-9" d="M67.28,136.62c-.44,3-.85,6-.93,6.88h-3.3c.16-1,.41-2.57,1-6.25s.76-5.73.9-7l3.36-.11C67.94,132.11,67.69,133.67,67.28,136.62Zm-.14-9.2c-1,0-1.86-.49-1.86-1.53a1.76,1.76,0,0,1,2-1.75c.93,0,1.8.44,1.8,1.53A1.79,1.79,0,0,1,67.15,127.42Z"/><path class="cls-9" d="M79.13,133.21a2.09,2.09,0,0,0-1.31-.41c-1.2,0-2.4,1-3.49,3.6l-.44,3.06c-.19,1.31-.38,2.78-.49,4H70.15c.33-1.75.6-3.69,1-6.41a40.29,40.29,0,0,0,.63-6.85L75,130.1a28.4,28.4,0,0,1-.3,3.17c1.26-2.38,2.57-3.33,4.1-3.33a3.19,3.19,0,0,1,1.17.22Z"/><path class="cls-9" d="M84.37,136.62c-.44,3-.85,6-.93,6.88h-3.3c.16-1,.41-2.57,1-6.25s.76-5.73.9-7l3.36-.11C85,132.11,84.78,133.67,84.37,136.62Zm-.14-9.2c-1,0-1.86-.49-1.86-1.53a1.76,1.76,0,0,1,2-1.75c.93,0,1.8.44,1.8,1.53A1.79,1.79,0,0,1,84.24,127.42Z"/><path class="cls-9" d="M100,135.94l-.52,3.55c-.22,1.42-.41,2.76-.52,4H95.65l1-7a17.47,17.47,0,0,0,.19-2c0-1.34-.52-2-1.31-2s-2,.46-3.88,3.06c0,0-1,7.1-1.06,7.86h-3.3c.35-2.08.74-4.53,1-6.77a27.55,27.55,0,0,0,.41-6.42l3.3-.25a15.15,15.15,0,0,1-.16,3.08c2.29-2.87,3.82-3.3,5.41-3.3,1.8,0,2.92,1.06,2.92,3.49A20.78,20.78,0,0,1,100,135.94Z"/><path class="cls-9" d="M114.46,136.21c-.57,4-.76,5.81-1.2,7.67-.93,4.09-3.74,6.2-7.56,6.2a8.66,8.66,0,0,1-4-1l.41-2.75a6.15,6.15,0,0,0,3.82,1.36c2,0,3.6-1.17,4.23-3.74.25-.93.49-2.48.66-3.58-1.91,2.59-3.49,3.47-5.05,3.47-2.16,0-3.28-1.8-3.28-4.53,0-5.08,3.82-9.42,8.38-9.42a6.73,6.73,0,0,1,2.4.44c.57-.08,1.64-.27,2.24-.36C115.22,131.1,114.92,133,114.46,136.21Zm-4.18-3.88c-2.18,0-4.59,2.87-4.59,6.33,0,1.72.57,2.4,1.39,2.4,1.12,0,2.24-1.06,4-3.41.25-1.34.71-4.12.82-4.89A3.06,3.06,0,0,0,110.28,132.33Z"/><path class="cls-9" d="M136.38,135.94l-.52,3.55c-.22,1.42-.41,2.76-.52,4h-3.28l1-7a17.47,17.47,0,0,0,.19-2c0-1.34-.52-2-1.31-2s-2,.46-3.88,3.06c0,0-1,7.1-1.06,7.86h-3.3c.36-2.08.74-4.53,1-6.77a27.46,27.46,0,0,0,.41-6.42l3.3-.25a15.26,15.26,0,0,1-.16,3.08c2.29-2.87,3.82-3.3,5.41-3.3,1.8,0,2.92,1.06,2.92,3.49A20.79,20.79,0,0,1,136.38,135.94Z"/><path class="cls-9" d="M142,138.15a6.22,6.22,0,0,0-.05.74c0,1.36.55,2.54,2.29,2.54a8.25,8.25,0,0,0,4.61-2.18l.14,2.51a9.46,9.46,0,0,1-5.46,2.08c-3.09,0-4.67-1.75-4.67-5.13,0-4.1,3-8.85,7.89-8.85,2.57,0,3.74,1.28,3.74,3C150.47,135.45,148.26,137.38,142,138.15Zm4-6c-1.67,0-3.36,1.77-3.85,4,3.69-.41,5.38-1.53,5.38-2.73S146.59,132.14,146,132.14Z"/><path class="cls-9" d="M168.9,136.29c-1.23,2.9-2.95,5.6-3.71,7.29l-3.14,0c-.22-2.59-.6-7.37-.82-8.85-.06-.3,0-.68-.06-1.12a7.76,7.76,0,0,1-.38,1.25c-.52,1.5-2.68,6.47-3.82,8.71H153.5c-.11-1.8-.41-4.72-.82-8-.44-3.44-1-4.59-1.42-5.27l3.25-.3c.25.35.71,1.39,1,4.83.14,1.45.27,3.11.36,4.67,0,.3,0,.74,0,1.06a6.4,6.4,0,0,1,.41-1,95.75,95.75,0,0,0,3.93-9.42h2.73c.33,1.72.87,6.83,1.07,9.45a9.18,9.18,0,0,1,0,1.23c.19-.41.25-.71.41-1,.46-1,1.23-2.27,2.07-4.34a16.11,16.11,0,0,0,1.39-5.3l2.89,0A20.85,20.85,0,0,1,168.9,136.29Z"/><path class="cls-9" d="M195,136.29c-1.23,2.9-2.95,5.6-3.71,7.29l-3.14,0c-.22-2.59-.6-7.37-.82-8.85-.06-.3,0-.68-.06-1.12a7.82,7.82,0,0,1-.38,1.25c-.52,1.5-2.68,6.47-3.82,8.71h-3.47c-.11-1.8-.41-4.72-.82-8-.44-3.44-1-4.59-1.42-5.27l3.25-.3c.25.35.71,1.39,1,4.83.14,1.45.27,3.11.36,4.67,0,.3,0,.74,0,1.06a6.34,6.34,0,0,1,.41-1,95.73,95.73,0,0,0,3.93-9.42H189c.33,1.72.87,6.83,1.07,9.45a9.18,9.18,0,0,1,0,1.23c.19-.41.25-.71.41-1,.46-1,1.23-2.27,2.07-4.34a16.11,16.11,0,0,0,1.39-5.3l2.89,0A20.83,20.83,0,0,1,195,136.29Z"/><path class="cls-9" d="M210.22,143.14a6.52,6.52,0,0,1-2.32.65c-1.66,0-2.54-.82-2.46-3.36-1.88,2.48-3.38,3.36-4.94,3.36-2.18,0-3.49-1.55-3.49-4.42,0-5.08,3.52-9.53,8.25-9.53a8.57,8.57,0,0,1,2.54.44c.55,0,1.58-.22,2.13-.3a79.9,79.9,0,0,0-1.42,9.8c0,1.37.41,1.67,1.06,1.67a2.72,2.72,0,0,0,.9-.3Zm-5.54-10.81c-2.35,0-4.42,3-4.42,6.22,0,1.69.55,2.43,1.5,2.43s2.27-1,3.8-3.17c.22-1.34.65-4,.82-5.08h0A3.16,3.16,0,0,0,204.68,132.33Z"/><path class="cls-9" d="M220.32,140.8a58.79,58.79,0,0,1-6.17,9.36l-3.6-.46a25.47,25.47,0,0,0,4.75-6c-.38-2.16-.93-5.19-1.58-7.89-1-3.9-1.56-4.75-2.1-5.46l3.52-.49c.38.49,1,1.36,1.53,4.59.36,1.94.6,3.82.79,5.3,0,.3,0,.74,0,1.09a11.82,11.82,0,0,1,.55-1.17c2.7-5.35,3.38-7.86,3.49-9.53h3.28C224.55,132.22,223.44,135.17,220.32,140.8Z"/><path class="cls-9" d="M233.59,133.15a4,4,0,0,0-2.54-1c-1.37,0-1.94.82-1.94,1.64s.44,1.39,1.75,2.27c1.61,1.09,2.43,2,2.43,3.58,0,2.08-1.61,4.18-5.24,4.18a7.84,7.84,0,0,1-3.41-.85l.46-2.76a4.43,4.43,0,0,0,3,1.36c1.2,0,1.91-.54,1.91-1.56,0-.76-.41-1.28-1.61-2.13-1.75-1.26-2.48-2.13-2.48-3.77,0-2.27,1.72-4.29,5.13-4.29a8.71,8.71,0,0,1,3.09.6Z"/></svg>