<svg xmlns="http://www.w3.org/2000/svg" xmlns:xlink="http://www.w3.org/1999/xlink" width="115.59mm" height="64.07mm" viewBox="0 0 327.66 181.61"><defs><style>.a{fill:#fff;}.b{fill:#fdfdfd;}.c{fill:#fcfbfb;}.d{fill:#fafafb;}.e{fill:#fafafa;}.f{fill:#f8f8f8;}.g{fill:#f7f7f7;}.h{fill:#f6f6f7;}.i{fill:#f5f5f5;}.j{fill:#f4f4f4;}.k{fill:#f3f3f4;}.l{fill:#f1f1f2;}.m{fill:#f1f1f1;}.n{fill:#efefef;}.o{fill:#efeeef;}.p{fill:#ededee;}.q{fill:#ececec;}.r{fill:#ebebeb;}.s{fill:#ebeaeb;}.t{fill:#e8e8e9;}.u{fill:#e8e7e8;}.v{fill:#e7e7e8;}.w{fill:#e6e5e6;}.x{fill:#e4e4e5;}.y{fill:#e4e3e4;}.z{fill:#e3e2e3;}.aa{fill:#e2e1e2;}.ab{fill:#e0dfe1;}.ac{fill:#e0dee0;}.ad{fill:#dfdee0;}.ae{fill:#ddddde;}.af{fill:#dcdbdd;}.ag{fill:#dcdbdc;}.ah{fill:#dadadb;}.ai{fill:#d9d8da;}.aj{fill:#d8d7d9;}.ak{fill:#d7d6d8;}.al{fill:#d6d5d7;}.am{fill:#d5d4d6;}.an{fill:#d3d3d4;}.ao{fill:#d3d2d4;}.ap{fill:#d2d1d2;}.aq{fill:#d0d0d2;}.ar{fill:#cfcfd1;}.as{fill:#cfced0;}.at{fill:#cecdce;}.au{fill:#ccccce;}.av{fill:#cbcbcd;}.aw{fill:#cbcacc;}.ax{fill:#cac9cb;}.ay{fill:#c8c8c9;}.az{fill:#c7c7c9;}.ba{fill:#c7c6c7;}.bb{fill:#c6c5c6;}.bc{fill:#c4c3c6;}.bd{fill:#c3c3c5;}.be{fill:#c3c2c4;}.bf{fill:#c2c1c3;}.bg{fill:#c0bfc2;}.bh{fill:#bfbfc1;}.bi{fill:#bfbec0;}.bj{fill:#bebdbf;}.bk{fill:#bcbcbe;}.bl{fill:#bcbbbd;}.bm{fill:#bbbabc;}.bn{fill:#bab9bc;}.bo{fill:#b8b8ba;}.bp{fill:#b7b7b9;}.bq{fill:#b7b7b8;}.br{fill:#b5b5b7;}.bs{fill:#b4b4b6;}.bt{fill:#b4b3b5;}.bu{fill:#b3b3b4;}.bv{fill:#b2b1b4;}.bw{fill:#b1b1b3;}.bx{fill:#afafb1;}.by{fill:#aeaeb0;}.bz{fill:#acadaf;}.ca{fill:#acacae;}.cb{fill:#ababae;}.cc{fill:#aaaaad;}.cd{fill:#a9a9ac;}.ce{fill:#a7a8aa;}.cf{fill:#a6a7a9;}.cg{fill:#a5a5a8;}.ch{fill:#a4a4a7;}.ci{fill:#a4a4a6;}.cj{fill:#a2a3a5;}.ck{fill:#a1a2a4;}.cl{fill:#a0a1a4;}.cm{fill:#9fa0a3;}.cn{fill:#9e9fa2;}.co{fill:#9d9ea1;}.cp{fill:#9c9da0;}.cq{fill:#9b9c9f;}.cr{fill:#9a9c9e;}.cs{fill:#999b9e;}.ct{fill:#989a9d;}.cu{fill:#97999b;}.cv{fill:#96989b;}.cw{fill:#95979a;}.cx{fill:#949699;}.cy{fill:#939598;}.cz{fill:#929598;}.da{fill:#d92632;}.db{fill:#163683;}.dc{fill:#008a43;}.dd{fill:#061922;}.de{fill:url(#a);}.df{fill:url(#b);}.dg,.dh{opacity:0.6;isolation:isolate;}.dg{fill:url(#c);}.dh{fill:url(#d);}</style><linearGradient id="a" x1="106.54" y1="174.28" x2="106.54" y2="162.03" gradientTransform="matrix(1, 0, 0, -1, 1.86, 183.28)" gradientUnits="userSpaceOnUse"><stop offset="0.19" stop-color="#ffe4af"/><stop offset="0.98" stop-color="#c3801a"/></linearGradient><linearGradient id="b" x1="122.55" y1="159.45" x2="132.03" y2="105.88" gradientTransform="matrix(1, 0, 0, -1, 1.86, 183.28)" gradientUnits="userSpaceOnUse"><stop offset="0.12" stop-color="#c3801a"/><stop offset="0.44" stop-color="#ffe4af"/><stop offset="0.62" stop-color="#ffe4af"/><stop offset="0.92" stop-color="#c3801a"/></linearGradient><linearGradient id="c" x1="113.31" y1="141.58" x2="96.03" y2="133.47" gradientTransform="matrix(1, 0, 0, -1, 0, 183.28)" gradientUnits="userSpaceOnUse"><stop offset="0" stop-color="#fff" stop-opacity="0"/><stop offset="0.1" stop-color="#bcbbbb" stop-opacity="0.3"/><stop offset="0.31" stop-color="#656263" stop-opacity="0.7"/><stop offset="0.56" stop-color="#322e2f" stop-opacity="0.93"/><stop offset="1" stop-color="#231f20"/></linearGradient><linearGradient id="d" x1="157.49" y1="136.52" x2="169.82" y2="149.15" gradientTransform="matrix(1, 0, 0, -1, 0, 183.28)" gradientUnits="userSpaceOnUse"><stop offset="0" stop-color="#fff" stop-opacity="0"/><stop offset="0.1" stop-color="#a5a4a4" stop-opacity="0.41"/><stop offset="0.25" stop-color="#5a5758" stop-opacity="0.75"/><stop offset="0.46" stop-color="#2f2b2c" stop-opacity="0.95"/><stop offset="1" stop-color="#231f20"/></linearGradient></defs><title>south-african-airways-white</title><path class="a" d="M92.74.45H110.5l86.17,84.22H138.85Z" transform="translate(0 0)"/><path class="a" d="M92.82.45h17.6l86,84.22H139.1Z" transform="translate(0 0)"/><path class="b" d="M92.9.45h17.43l85.79,84.22H139.36Z" transform="translate(0 0)"/><path class="c" d="M93,.45h17.27l85.6,84.22H139.62Z" transform="translate(0 0)"/><path class="d" d="M93.06.45h17.11l85.41,84.22H139.87Z" transform="translate(0 0)"/><path class="e" d="M93.14.45h16.95l85.22,84.22H140.13Z" transform="translate(0 0)"/><path class="f" d="M93.22.45H110l85,84.22H140.39Z" transform="translate(0 0)"/><path class="g" d="M93.3.45h16.63l84.84,84.22H140.64Z" transform="translate(0 0)"/><path class="h" d="M93.38.45h16.46L194.5,84.68H140.9Z" transform="translate(0 0)"/><path class="i" d="M93.46.45h16.3l84.46,84.22H141.16Z" transform="translate(0 0)"/><path class="j" d="M93.54.45h16.14L194,84.68H141.41Z" transform="translate(0 0)"/><path class="k" d="M93.62.45h16L193.7,84.67h-52Z" transform="translate(0 0)"/><path class="l" d="M93.7.45h15.82l83.89,84.22H141.93Z" transform="translate(0 0)"/><path class="m" d="M93.78.45h15.66l83.7,84.22h-51Z" transform="translate(0 0)"/><path class="n" d="M93.86.45h15.49l83.51,84.22H142.44Z" transform="translate(0 0)"/><path class="o" d="M93.94.45h15.33l83.32,84.22H142.7Z" transform="translate(0 0)"/><path class="p" d="M94,.45h15.17L192.3,84.67H143Z" transform="translate(0 0)"/><path class="q" d="M94.1.45h15L192,84.68H143.21Z" transform="translate(0 0)"/><path class="r" d="M94.17.45H109l82.75,84.22H143.47Z" transform="translate(0 0)"/><path class="s" d="M94.25.45h14.69L191.5,84.68H143.72Z" transform="translate(0 0)"/><path class="t" d="M94.33.45h14.52l82.37,84.22H144Z" transform="translate(0 0)"/><path class="u" d="M94.41.45h14.36L191,84.68H144.24Z" transform="translate(0 0)"/><path class="v" d="M94.49.45h14.2l82,84.22h-46.2Z" transform="translate(0 0)"/><path class="w" d="M94.57.45h14l81.8,84.22H144.75Z" transform="translate(0 0)"/><path class="x" d="M94.65.45h13.88l81.61,84.22H145Z" transform="translate(0 0)"/><path class="y" d="M94.73.45h13.71l81.42,84.22h-44.6Z" transform="translate(0 0)"/><path class="z" d="M94.81.45h13.55L189.6,84.68H145.52Z" transform="translate(0 0)"/><path class="aa" d="M94.89.45h13.39l81,84.22H145.77Z" transform="translate(0 0)"/><path class="ab" d="M95,.45h13.2L189,84.67H146Z" transform="translate(0 0)"/><path class="ac" d="M95,.45h13.07l80.66,84.22H146.29Z" transform="translate(0 0)"/><path class="ad" d="M95.13.45H108l80.47,84.22h-42Z" transform="translate(0 0)"/><path class="ae" d="M95.21.45H108l80.28,84.22H146.8Z" transform="translate(0 0)"/><path class="af" d="M95.29.45h12.58L188,84.68H147.1Z" transform="translate(0 0)"/><path class="ag" d="M95.37.45h12.42l79.9,84.22H147.31Z" transform="translate(0 0)"/><path class="ah" d="M95.45.45h12.26l79.71,84.22H147.57Z" transform="translate(0 0)"/><path class="ai" d="M95.53.45h12.1l79.52,84.22H147.83Z" transform="translate(0 0)"/><path class="aj" d="M95.61.45h11.94l79.33,84.22h-38.8Z" transform="translate(0 0)"/><path class="ak" d="M95.69.45h11.77L186.6,84.68H148.34Z" transform="translate(0 0)"/><path class="al" d="M95.77.45h11.61l78.95,84.22H148.6Z" transform="translate(0 0)"/><path class="am" d="M95.85.45H107.3l78.76,84.22h-37.2Z" transform="translate(0 0)"/><path class="an" d="M95.92.45h11.29l78.57,84.22H149.11Z" transform="translate(0 0)"/><path class="ao" d="M96,.45h11.13l78.38,84.22H149.37Z" transform="translate(0 0)"/><path class="ap" d="M96.08.45h11l78.19,84.22H149.62Z" transform="translate(0 0)"/><path class="aq" d="M96.16.45H107l78,84.22H149.88Z" transform="translate(0 0)"/><path class="ar" d="M96.24.45h10.64l77.81,84.22H150.14Z" transform="translate(0 0)"/><path class="as" d="M96.32.45H106.8l77.62,84.22h-34Z" transform="translate(0 0)"/><path class="at" d="M96.4.45h10.32l77.43,84.22h-33.5Z" transform="translate(0 0)"/><path class="au" d="M96.48.45h10.16l77.24,84.22h-33Z" transform="translate(0 0)"/><path class="av" d="M96.56.45h10l77,84.22h-32.4Z" transform="translate(0 0)"/><path class="aw" d="M96.64.45h9.83l76.86,84.22H151.42Z" transform="translate(0 0)"/><path class="ax" d="M96.72.45h9.67l76.67,84.22H151.68Z" transform="translate(0 0)"/><path class="ay" d="M96.8.45h9.51l76.48,84.22H151.93Z" transform="translate(0 0)"/><path class="az" d="M96.88.45h9.35l76.29,84.22H152.19Z" transform="translate(0 0)"/><path class="ba" d="M97,.45h9.19l76.1,84.22h-29.8Z" transform="translate(0 0)"/><path class="bb" d="M97,.45h9l76,84.23H152.7Z" transform="translate(0 0)"/><path class="bc" d="M97.12.45H106l75.7,84.23H153Z" transform="translate(0 0)"/><path class="bd" d="M97.2.45h8.7l75.53,84.22H153.22Z" transform="translate(0 0)"/><path class="be" d="M97.28.45h8.54l75.34,84.22H153.47Z" transform="translate(0 0)"/><path class="bf" d="M97.36.45h8.38l75.15,84.22H153.73Z" transform="translate(0 0)"/><path class="bg" d="M97.44.45h8.22l75,84.22H154Z" transform="translate(0 0)"/><path class="bh" d="M97.52.45h8.06l74.77,84.22h-26.1Z" transform="translate(0 0)"/><path class="bi" d="M97.59.45h7.89l74.58,84.22H154.5Z" transform="translate(0 0)"/><path class="bj" d="M97.67.45h7.73l74.39,84.22h-25Z" transform="translate(0 0)"/><path class="bk" d="M97.75.45h7.57l74.2,84.22H155Z" transform="translate(0 0)"/><path class="bl" d="M97.83.45h7.41l74,84.22h-24Z" transform="translate(0 0)"/><path class="bm" d="M97.91.45h7.25L179,84.68H155.53Z" transform="translate(0 0)"/><path class="bn" d="M98,.45h7.09L178.7,84.68H155.78Z" transform="translate(0 0)"/><path class="bo" d="M98.07.45H105l73.44,84.22H156Z" transform="translate(0 0)"/><path class="bp" d="M98.15.45h6.76l73.25,84.22H156.29Z" transform="translate(0 0)"/><path class="bq" d="M98.23.45h6.6l73.06,84.22H156.55Z" transform="translate(0 0)"/><path class="br" d="M98.31.45h6.44l72.87,84.22H156.81Z" transform="translate(0 0)"/><path class="bs" d="M98.39.45h6.28l72.68,84.22H157.06Z" transform="translate(0 0)"/><path class="bt" d="M98.47.45h6.12l72.49,84.22H157.32Z" transform="translate(0 0)"/><path class="bu" d="M98.55.45h6l72.3,84.22H157.58Z" transform="translate(0 0)"/><path class="bv" d="M98.63.45h5.79l72.11,84.22h-18.7Z" transform="translate(0 0)"/><path class="bw" d="M98.71.45h5.63l71.92,84.22H158.09Z" transform="translate(0 0)"/><path class="bx" d="M98.79.45h5.47L176,84.68H158.35Z" transform="translate(0 0)"/><path class="bx" d="M98.87.45h5.31l71.54,84.22H158.6Z" transform="translate(0 0)"/><path class="by" d="M98.95.45h5.15l71.35,84.22H158.86Z" transform="translate(0 0)"/><path class="bz" d="M99,.45h5l71.15,84.22h-16Z" transform="translate(0 0)"/><path class="ca" d="M99.11.45h4.82l71,84.22H159.37Z" transform="translate(0 0)"/><path class="cb" d="M99.19.45h4.66l70.77,84.22h-15Z" transform="translate(0 0)"/><path class="cc" d="M99.26.45h4.5l70.58,84.22H159.89Z" transform="translate(0 0)"/><path class="cd" d="M99.34.45h4.34l70.39,84.22H160.14Z" transform="translate(0 0)"/><path class="ce" d="M99.42.45h4.18l70.2,84.22H160.4Z" transform="translate(0 0)"/><path class="ce" d="M99.5.45h4l70,84.22H160.66Z" transform="translate(0 0)"/><path class="cf" d="M99.58.45h3.85l69.82,84.22H160.91Z" transform="translate(0 0)"/><path class="cg" d="M99.66.45h3.69L173,84.68H161.17Z" transform="translate(0 0)"/><path class="ch" d="M99.74.45h3.53l69.44,84.22H161.43Z" transform="translate(0 0)"/><path class="ci" d="M99.82.45h3.37l69.25,84.22H161.68Z" transform="translate(0 0)"/><path class="cj" d="M99.9.45h3.21l69.06,84.22H161.94Z" transform="translate(0 0)"/><path class="ck" d="M100,.45h3l68.9,84.23h-9.7Z" transform="translate(0 0)"/><path class="cl" d="M100.06.45h2.88l68.68,84.22h-9.17Z" transform="translate(0 0)"/><path class="cm" d="M100.14.45h2.72l68.49,84.22h-8.64Z" transform="translate(0 0)"/><path class="cn" d="M100.22.45h2.56l68.3,84.22H163Z" transform="translate(0 0)"/><path class="co" d="M100.3.45h2.4l68.11,84.22h-7.59Z" transform="translate(0 0)"/><path class="cp" d="M100.38.45h2.23l67.92,84.22h-7.06Z" transform="translate(0 0)"/><path class="cq" d="M100.46.45h2.07l67.73,84.22h-6.53Z" transform="translate(0 0)"/><path class="cr" d="M100.54.45h1.91L170,84.68h-6Z" transform="translate(0 0)"/><path class="cs" d="M100.62.45h1.75l67.35,84.22h-5.47Z" transform="translate(0 0)"/><path class="ct" d="M100.7.45h1.59l67.16,84.22h-4.94Z" transform="translate(0 0)"/><path class="cu" d="M100.78.45h1.43l67,84.22H164.8Z" transform="translate(0 0)"/><path class="cv" d="M100.85.45h1.27L168.9,84.68H165Z" transform="translate(0 0)"/><path class="cw" d="M100.93.45H102l66.59,84.22h-3.35Z" transform="translate(0 0)"/><path class="cx" d="M101,.45h1l66.4,84.22h-2.83Z" transform="translate(0 0)"/><path class="cy" d="M101.09.45h.78l66.21,84.22h-2.3Z" transform="translate(0 0)"/><path class="cz" d="M101.17.45h.62l66,84.22H166Z" transform="translate(0 0)"/><path class="a" d="M295.21,160.47a39.64,39.64,0,0,1,7.85-8.13l-1.58,6.33-6.27,1.8" transform="translate(0 0)"/><path class="a" d="M306.18,163.21a39.53,39.53,0,0,1-11-2.73l6.27-1.8,4.69,4.53" transform="translate(0 0)"/><path class="a" d="M303.07,152.35a39.62,39.62,0,0,1,3.11,10.86l-4.7-4.53,1.58-6.33" transform="translate(0 0)"/><path class="a" d="M293,173.48a39.57,39.57,0,0,1-3-4.79,38.83,38.83,0,0,1-2.3-5.19l5.53,3.46-.23,6.52" transform="translate(0 0)"/><path class="a" d="M299,163.9a39.45,39.45,0,0,1-6,9.58l.23-6.52L299,163.9" transform="translate(0 0)"/><path class="a" d="M287.7,163.51a39.66,39.66,0,0,1,11.29.39l-5.76,3.1-5.53-3.46" transform="translate(0 0)"/><path class="a" d="M304.69,179.61a39.62,39.62,0,0,1-11.13,2l5-4.2,6.13,2.23" transform="translate(0 0)"/><path class="a" d="M297.43,171a39.48,39.48,0,0,1,7.27,8.66l-6.13-2.23L297.43,171" transform="translate(0 0)"/><path class="a" d="M293.56,181.57A39.57,39.57,0,0,1,297.43,171l1.13,6.42-5,4.19" transform="translate(0 0)"/><path class="a" d="M314.13,170.39a39.21,39.21,0,0,1-1.57,11.19l-2.44-6,4-5.14" transform="translate(0 0)"/><path class="a" d="M303.65,174.62a39.51,39.51,0,0,1,10.48-4.23l-4,5.14-6.46-.91" transform="translate(0 0)"/><path class="a" d="M312.55,181.58a39.76,39.76,0,0,1-8.9-7l6.46.91,2.44,6" transform="translate(0 0)"/><path class="a" d="M308.27,158.56a39.63,39.63,0,0,1,10.16,5l-6.51.45-3.65-5.41" transform="translate(0 0)"/><path class="a" d="M309.06,169.83a39.46,39.46,0,0,1-.8-5.6,40.18,40.18,0,0,1,0-5.68l3.65,5.41L309,169.82" transform="translate(0 0)"/><path class="a" d="M318.43,163.51a39.62,39.62,0,0,1-9.37,6.32l2.86-5.86,6.51-.45" transform="translate(0 0)"/><polyline class="a" points="322.36 165.23 322.64 165.23 322.64 162.76 323.71 162.76 323.71 162.5 321.29 162.5 321.29 162.76 322.36 162.76 322.36 165.23"/><polyline class="a" points="327.26 162.5 327.66 162.5 327.66 165.23 327.38 165.23 327.38 162.87 327.37 162.87 326.16 165.23 325.9 165.23 324.7 162.87 324.7 162.87 324.7 165.23 324.41 165.23 324.41 162.5 324.83 162.5 326.04 164.88 327.26 162.5"/><polyline class="a" points="200.39 162.43 202.16 162.43 202.16 174.54 200.92 174.54 200.92 164.08 200.88 164.08 195.55 174.54 194.39 174.54 189.07 164.06 189.04 164.06 189.04 174.54 187.79 174.54 187.79 162.43 189.61 162.43 195.01 172.97 200.39 162.43"/><path class="a" d="M153,168.52c0,3.81,2.64,6.27,6.54,6.27a5.83,5.83,0,0,0,6.11-4.87v-.29h-1.31v.22a4.53,4.53,0,0,1-4.8,3.76,4.87,4.87,0,0,1-5.25-5.1,5,5,0,0,1,4.87-5.13h.42c2.38,0,4.09,1.13,4.57,3l.05.2h1.31l-.07-.32c-.59-2.6-2.73-4.09-5.86-4.09a6.23,6.23,0,0,0-6.57,5.87q0,.22,0,.44Zm16.57-6v12.07h9.74v-1.18H170.8v-4.48h8v-1.16h-8v-4.06h8.39v-1.18Zm-21.72,0v10.07c-.77-.94-8.73-10.07-8.73-10.07h-1.26v12.07h1.24V164.47c.77.94,8.73,10.07,8.73,10.07h1.26V162.47Zm-30.75,0v12.07h1.25V162.47Zm-11.28,0v12.07h8.68v-1.18h-7.43V162.47Zm-11.38,0v12.07h8.7v-1.18H95.67V162.47Zm33.91,1.67,2.51,5.51h-5l2.52-5.51Zm-.58-1.67-5.55,12.07h1.38l1.7-3.73h6.07l1.71,3.73h1.38l-5.53-12.07Zm-43.33,1.67,2.51,5.51h-5l2.53-5.51Zm-.58-1.67-5.55,12.07h1.38l1.7-3.73h6.07l1.71,3.73h1.37L85,162.47ZM65.4,163.65c1.9,0,2.83.69,2.83,2.1,0,1.59-1,2.36-3,2.36h-4.8v-4.46Zm-6.22-1.18v12.07h1.26v-5.25h4.88c2.15,0,2.66.43,2.71,2.31s.13,2.6.4,2.86l.08.08H69.8l-.2-.39a8.58,8.58,0,0,1-.29-3.07,2.53,2.53,0,0,0-1.71-2.45,3.13,3.13,0,0,0,1.91-2.84c0-2.24-1.36-3.32-4.17-3.32Zm-9.61,1.67,2.52,5.51h-5l2.51-5.51ZM49,162.47l-5.55,12.07h1.36l1.72-3.73H52.6l1.7,3.73h1.4l-5.55-12.07Zm-16.47,0v1.18H37.2v10.88h1.24V163.65h4.68v-1.18Zm-12.8,8.11a3.69,3.69,0,0,0,1,2.78,6.59,6.59,0,0,0,4.66,1.41c1.16,0,5.15-.26,5.15-3.56,0-2.91-2.65-3.18-5-3.41h0c-2.41-.24-4.2-.51-4.2-2.15a1.89,1.89,0,0,1,1.28-1.8,6.65,6.65,0,0,1,2.84-.47,4.39,4.39,0,0,1,3,.91A2.19,2.19,0,0,1,29,165.8h1.22a3.35,3.35,0,0,0-.84-2.34,5.76,5.76,0,0,0-4-1.23,6.32,6.32,0,0,0-4.47,1.42,2.7,2.7,0,0,0-.82,2c0,2.85,2.9,3.08,5.18,3.28a9.83,9.83,0,0,1,2.85.52,1.79,1.79,0,0,1,1.17,1.82,1.92,1.92,0,0,1-.56,1.41,5.38,5.38,0,0,1-3.38,1,5.28,5.28,0,0,1-3.66-1,2.68,2.68,0,0,1-.77-2h-1.2" transform="translate(0 0)"/><path class="a" d="M3.6,169.58l2.51-5.51,2.52,5.51Zm3.1-7.18H5.55L0,174.46H1.36l1.71-3.73H9.15l1.7,3.73h1.39L6.7,162.4" transform="translate(0 0)"/><path class="a" d="M206.06,162.49v12.06h9.74v-1.18h-8.49V168.9h8.06v-1.16h-8.06v-4.07h8.39v-1.18h-9.64" transform="translate(0 0)"/><polyline class="a" points="232.21 162.44 233.99 162.44 233.99 174.55 232.74 174.55 232.74 164.09 232.71 164.09 227.37 174.55 226.21 174.55 220.89 164.07 220.86 164.07 220.86 174.55 219.61 174.55 219.61 162.44 221.43 162.44 226.83 172.97 232.21 162.44"/><path class="a" d="M239.16,168.86h5.57c1.45,0,2.53.49,2.53,2.24s-1.22,2.31-2.84,2.31h-5.26v-4.55Zm-1.24,5.69h6.7c1.85,0,4-.92,4-3.45a2.84,2.84,0,0,0-2.54-2.95h0a2.56,2.56,0,0,0,2.07-2.61c0-1.72-1-3-3.35-3h-6.85v12.08Zm1.24-10.94h5.38c1.37,0,2.35.48,2.35,2s-1.08,2.16-2.77,2.16h-5V163.6" transform="translate(0 0)"/><path class="a" d="M252.54,162.48v12.07h9.74v-1.18h-8.49v-4.48h8.06v-1.16h-8.06v-4.06h8.4v-1.18h-9.64" transform="translate(0 0)"/><path class="a" d="M272.11,168.12h-4.79v-4.46h5c1.9,0,2.83.69,2.83,2.1,0,1.59-1,2.36-3,2.36Zm4.37,6a8.56,8.56,0,0,1-.29-3.07,2.53,2.53,0,0,0-1.71-2.45,3.12,3.12,0,0,0,1.91-2.84c0-2.24-1.36-3.32-4.17-3.32h-6.16v12.07h1.26V169.3h4.88c2.15,0,2.66.43,2.71,2.31s.13,2.6.39,2.86l.08.08h1.3l-.21-.39" transform="translate(0 0)"/><rect class="a" y="144.81" width="317.72" height="0.65"/><path class="a" d="M187.59,111.11h3.88l8.91,11.19v-9a2.87,2.87,0,0,0-.2-1,2.55,2.55,0,0,0-.68-1.14h4.24a2.87,2.87,0,0,0-.9,2.25v13.94h-2.47l-9.42-12.15v10a3.36,3.36,0,0,0,.9,2.13h-4.26a2.58,2.58,0,0,0,.72-1.24,2.78,2.78,0,0,0,.17-.89V113.49a3,3,0,0,0-.9-2.35" transform="translate(0 0)"/><path class="a" d="M129.6,111.11h7.78a4.21,4.21,0,0,1,4.53,4.3,4.4,4.4,0,0,1-3.18,4.32c1.58,2,3.87,5.18,3.87,5.18a14.88,14.88,0,0,0,4.76,4.58c-4,.67-6-.82-8.1-4-.91-1.37-3.87-5.64-4-6a3.7,3.7,0,0,0,3.49-3.6c0-2.42-1.59-3.06-2.71-3.06h-2.36V125a3.33,3.33,0,0,0,.9,2.34h-5a4,4,0,0,0,.9-2.34V113.25A3.27,3.27,0,0,0,129.6,111.11Z" transform="translate(0 0)"/><path class="a" d="M163,110.72a15,15,0,0,1,6.32,1.16c-.34,1.16-.9,2.84-.9,2.84-.84-1.15-1.45-2.22-5.41-2.22-1,0-5.64.57-5.64,6.74,0,5.92,5.09,6.56,6.44,6.56a8.14,8.14,0,0,0,4.55-.87l-.56,1.89a12.75,12.75,0,0,1-4.78.92c-4.71,0-9-2.93-9-8.63C154.08,114.71,157.19,110.72,163,110.72Z" transform="translate(0 0)"/><path class="a" d="M147,111.11h5a3.14,3.14,0,0,0-.78,1.4,2.25,2.25,0,0,0-.11.82v11.78a2.77,2.77,0,0,0,.17,1,2.64,2.64,0,0,0,.73,1.22h-5a2.55,2.55,0,0,0,.72-1.22,2.94,2.94,0,0,0,.19-1V113.33a3.62,3.62,0,0,0-.12-.82A2.41,2.41,0,0,0,147,111.11Z" transform="translate(0 0)"/><path class="a" d="M115.68,111.11h12l-.78,3a2.78,2.78,0,0,0-2.32-1h-4.89V118h4.39a3.23,3.23,0,0,0,1.82-.46c.22-.13.3-.29.51-.43v3.56a3,3,0,0,0-2.23-.89H119.7V125a2.85,2.85,0,0,0,.9,2.24h-5a2.53,2.53,0,0,0,.73-1.13,2.77,2.77,0,0,0,.17-1V113.37a3.45,3.45,0,0,0-.12-.75A2.57,2.57,0,0,0,115.68,111.11Z" transform="translate(0 0)"/><path class="a" d="M114,127.3c-2-1.49-2.37-3.16-3.36-5.46L103.36,105l-6.83,16.74c-.95,2.33-1.35,3.95-3.32,5.53h4.94A1.89,1.89,0,0,1,97.7,126a5.84,5.84,0,0,1,.7-2.46l.68-1.67a3.45,3.45,0,0,1,.32-.78h6.86a2.94,2.94,0,0,1,.36.82c.25.58.4.91.63,1.5a8.53,8.53,0,0,1,.82,2.34,2.38,2.38,0,0,1,0,.36,2.35,2.35,0,0,1-.39,1.22Zm-13.73-8.25,2.54-6.32,2.66,6.32Z" transform="translate(0 0)"/><path class="a" d="M256.88,111.11h4.91a1.31,1.31,0,0,0-.59,1.25c0,.75,2.75,10.5,2.75,10.5l3.82-11.75,4.46,11.77s2.24-7.35,2.77-9.84a1.75,1.75,0,0,0-.36-1.93h3.9a4.33,4.33,0,0,0-1.59,2.72l-3.77,13.47h-2.71l-2.89-8.65-2.86,8.65h-2.6l-3.74-13.92A4.11,4.11,0,0,0,256.88,111.11Z" transform="translate(0 0)"/><path class="a" d="M233.52,111.11h5a3.16,3.16,0,0,0-.78,1.4,2.25,2.25,0,0,0-.11.82v11.78a2.81,2.81,0,0,0,.17,1,2.68,2.68,0,0,0,.73,1.22h-5a2.55,2.55,0,0,0,.72-1.22,2.84,2.84,0,0,0,.19-1V113.33a3.62,3.62,0,0,0-.12-.82A2.4,2.4,0,0,0,233.52,111.11Z" transform="translate(0 0)"/><path class="a" d="M296.33,127.3a2,2,0,0,0,.59-1.81v-5.61c-.52-1-3.56-6.51-4-7.22a4.2,4.2,0,0,0-1.63-1.55H296a1.32,1.32,0,0,0-.33,1c0,.52.21.69.48,1.25.37.75,2.45,4.57,2.45,4.57s2.47-4,2.82-4.62a2.35,2.35,0,0,0,.49-1.44,1,1,0,0,0-.42-.73h4.1A8.64,8.64,0,0,0,303,114.4c-.7,1.21-3.11,5.52-3.11,5.52v5.61a2.15,2.15,0,0,0,.66,1.81Z" transform="translate(0 0)"/><path class="a" d="M317.16,111.85l-.71,2.51c-.42-1.06-1.39-2.22-4-2.22-2.06,0-3,1.25-3,2.4,0,3.21,8.27,2.95,8.27,8.4,0,1.63-1,4.81-6.21,4.81a11.51,11.51,0,0,1-5.36-1.2l1-2.59a5,5,0,0,0,4.4,2.19c1.92,0,3.29-1.14,3.29-2.74,0-3.57-8.16-3.21-8.16-8.32,0-1.94,1.29-4.36,5.77-4.36A7.68,7.68,0,0,1,317.16,111.85Z" transform="translate(0 0)"/><path class="a" d="M231.12,127.3c-2-1.49-2.37-3.16-3.36-5.46L220.52,105l-6.83,16.74c-1,2.33-1.36,3.95-3.32,5.53h4.94a1.89,1.89,0,0,1-.44-1.33,5.87,5.87,0,0,1,.7-2.46l.68-1.67a3.45,3.45,0,0,1,.32-.78h6.87a3.06,3.06,0,0,1,.36.82c.25.58.39.91.63,1.5a8.66,8.66,0,0,1,.82,2.34,2.68,2.68,0,0,1,0,.36,2.31,2.31,0,0,1-.39,1.22Zm-13.73-8.25,2.54-6.32,2.66,6.32Z" transform="translate(0 0)"/><path class="a" d="M293.72,127.3a4.82,4.82,0,0,1-1.53-2L285,110.08l-5.67,12.73a17.45,17.45,0,0,1-2.59,4.49H281a1.2,1.2,0,0,1-.48-1.1,4.27,4.27,0,0,1,.56-1.91c.33-.75.47-1.2.82-1.94h5.69c.37.7.49,1.15.83,1.87a4,4,0,0,1,.58,1.93,1.61,1.61,0,0,1-.54,1.15Zm-11.07-6.83,2-4.7,2,4.7Z" transform="translate(0 0)"/><path class="a" d="M242.12,111.11h7.78a4.21,4.21,0,0,1,4.53,4.3,4.4,4.4,0,0,1-3.17,4.32c1.58,2,3.87,5.18,3.87,5.18a14.78,14.78,0,0,0,4.76,4.58c-4,.67-6-.82-8.1-4-.9-1.37-3.87-5.64-4-6a3.7,3.7,0,0,0,3.5-3.6c0-2.42-1.59-3.06-2.72-3.06h-2.36V125a3.34,3.34,0,0,0,.9,2.35h-5A4,4,0,0,0,243,125V113.25A3.26,3.26,0,0,0,242.12,111.11Z" transform="translate(0 0)"/><path class="a" d="M35.54,111.1h5a3.22,3.22,0,0,0-.87,2.15v8.55c0,1.9,1.06,4.15,3.51,4.15h1c1.67,0,3.19-1.43,3.19-4.15v-8.55a2.91,2.91,0,0,0-.89-2.15h4.39a2.73,2.73,0,0,0-.92,2.15v8.55c0,2.56-1.44,6-5.78,6h-1.9c-2.61,0-5.88-1.46-5.88-6v-8.55A3.46,3.46,0,0,0,35.54,111.1Z" transform="translate(0 0)"/><path class="a" d="M69.65,111.11h5a2.82,2.82,0,0,0-.89,2.19V118H81.5v-4.64a3.17,3.17,0,0,0-.17-1,2.48,2.48,0,0,0-.71-1.25h5a2.62,2.62,0,0,0-.72,1.25,2.86,2.86,0,0,0-.19,1v11.76a3.1,3.1,0,0,0,.21,1.09,2.41,2.41,0,0,0,.7,1.13h-5a2.2,2.2,0,0,0,.68-1.13,2.77,2.77,0,0,0,.22-1V120h-7.8v5.18a2.8,2.8,0,0,0,.9,2.18h-5a2.9,2.9,0,0,0,.9-2.32V113.44a3.55,3.55,0,0,0-.13-.87A2.59,2.59,0,0,0,69.65,111.11Z" transform="translate(0 0)"/><path class="a" d="M53,111.11H67.66L67,113.79c-.18-.15-.24-.29-.43-.42a2.66,2.66,0,0,0-1.74-.54H62V125a3.45,3.45,0,0,0,.21,1.22,2,2,0,0,0,.71,1.07h-5a2.93,2.93,0,0,0,.9-2.34v-12.2h-2.7a3.47,3.47,0,0,0-1.26.22,1.75,1.75,0,0,0-1.12.79Z" transform="translate(0 0)"/><path class="a" d="M25.39,110.72c-5.84,0-8.14,4-8.14,8.39,0,5.69,3.43,8.64,8.14,8.64s8.14-2.94,8.14-8.64C33.53,114.71,31.24,110.72,25.39,110.72Zm0,15.26c-1.35,0-4.81-.82-4.81-6.74,0-6.17,3.76-6.74,4.81-6.74s4.81.57,4.81,6.74c0,5.92-3.47,6.76-4.81,6.76Z" transform="translate(0 0)"/><path class="a" d="M14.21,107.89l-1.19,3c-.54-1.34-1.76-2.81-5.1-2.81-2.61,0-3.75,1.58-3.75,3,0,4,10.46,3.73,10.46,10.62,0,2.06-1.28,6.07-7.85,6.07A14.5,14.5,0,0,1,0,126.29L1.21,123a6.29,6.29,0,0,0,5.56,2.77c2.43,0,4.16-1.44,4.16-3.47,0-4.52-10.32-4.06-10.32-10.52,0-2.45,1.64-5.51,7.3-5.51C11.69,106.28,12.83,107.09,14.21,107.89Z" transform="translate(0 0)"/><path class="a" d="M186.45,127.3a4.79,4.79,0,0,1-1.53-2L177.7,110,172,122.81a17.46,17.46,0,0,1-2.59,4.49h4.22a1.21,1.21,0,0,1-.47-1.1,4.25,4.25,0,0,1,.56-1.91c.32-.75.47-1.2.81-1.94h5.69c.38.7.5,1.15.83,1.87a4.07,4.07,0,0,1,.58,1.93,1.63,1.63,0,0,1-.54,1.15Zm-11.07-6.83,2-4.7,2,4.7Z" transform="translate(0 0)"/><polygon class="a" points="119.67 0 83.75 0 116.58 85.17 213.12 85.17 119.67 0"/><polygon class="da" points="97.65 27.82 145.31 27.82 118.5 3.05 88.16 3.05 97.65 27.82"/><path class="db" d="M118.36,81.31l57-26.29,18.36,16.65c5.49,4.94,10.91,10,10.91,10H118.49Z" transform="translate(0 0)"/><polygon class="dc" points="98.02 28.69 151.4 33.42 171.43 51.4 117.82 79.91 155.34 44.66 98.02 28.69"/><polygon class="dd" points="98.35 29.57 132.04 51.4 117.48 79.01 98.35 29.57"/><path class="de" d="M101.21,16a7.19,7.19,0,1,1,7.19,7.19A7.19,7.19,0,0,1,101.21,16Z" transform="translate(0 0)"/><polygon class="df" points="98.35 29.57 132.04 51.4 117.48 79.01 117.82 79.91 155.34 44.66 98.02 28.69 98.35 29.57"/><polygon class="dg" points="83.75 0 92.49 0 139.11 85.17 116.58 85.17 83.75 0"/><polygon class="dh" points="110.02 0 119.67 0 213.12 85.17 197.16 85.17 110.02 0"/></svg>