<svg xmlns="http://www.w3.org/2000/svg" width="300" height="61.28" viewBox="0 0 300 61.28"><defs><style>.a{fill:#fff;}</style></defs><title>logo-stylist</title><path class="a" d="M5.4,43.72a10.89,10.89,0,0,1,2.27-7.25,7.31,7.31,0,0,1,5.83-2.76,12.4,12.4,0,0,1,3.68.49l.37.12v.92l-.49.12c-2.58.37-3.38,2-3.38,3.5a3.3,3.3,0,0,0,3.38,3.25,3.88,3.88,0,0,0,3.87-3.81c0-3.68-3.13-6.08-7.74-6.08-7.31,0-13.2,5.1-13.2,13s6.63,15.9,20.88,15.9c15.72,0,22.84-9.95,22.84-19,0-8.66-6.88-14.55-12.46-19.53s-8.41-7.74-8.41-13.2a7.35,7.35,0,0,1,1.9-5.16,7.8,7.8,0,0,1,5.71-2.09A10,10,0,0,1,37.7,5.1c2.15,2.09,4.18,5.16,6.69,9.95l.92-.18L44.33.68H43.23L40.83,4.36,40.34,4A12,12,0,0,0,30.7,0C23,0,17.56,5.16,17.5,12.22c0,7.37,5.28,11.85,10.38,16.58,6.32,6,9.46,9.33,9.46,16.21a13.34,13.34,0,0,1-3.93,9.64,15.61,15.61,0,0,1-11,4.05c-5.71,0-9.89-1.6-12.77-4.3A14.11,14.11,0,0,1,5.4,43.72m54.71,9.15-7.92,1.47L52,55.69H74l.25-1.47L67,52.8,76.69,7.43,84.42,9l5.46,13.81.68-.18L91.73,6.32H54.09L49.73,22.66l.8.18L61,8.84l8.72-1.47-9.58,45.5ZM117.7,33.4,136.37,9.21l5.83-1.47.31-1.29H127.77l-.25,1.41,4.67,1.47L116.54,32.6l-6.88-23,6.63-1.9.37-1.29H97.87l-.31,1.41,4.67,1.78,8.29,24.62-3.87,18.6-7.25,1.47-.31,1.35h20.69l.37-1.47-6.63-1.41,4.18-19.4Zm60.91,5.71L167.81,52.68l-16.58,1.78,9.64-45.25L168,7.74l.37-1.29H147.85l-.25,1.29,6.32,1.53-9.27,43.59-7,1.47-.31,1.35h37.09l5.1-16.46-.92-.12Zm11.24,13.75-7.25,1.41-.31,1.29H203l.37-1.29-6.63-1.41,9.27-43.66L213.3,7.8l.37-1.29H194c-5,0-8.84.92-11.36,2.7a8.77,8.77,0,0,0-3.87,7.67c0,4.36,2.7,5.83,5,5.83a3.4,3.4,0,0,0,3.5-3.38,3.15,3.15,0,0,0-3.07-3.19,4.11,4.11,0,0,0-2.95,1.41l-.18.18h-1.35v-.49c.37-4.6,5.46-8.53,14.24-8.47h5.16l-9.27,44.09Zm23.58-9.15a10.89,10.89,0,0,1,2.27-7.25,7.31,7.31,0,0,1,5.83-2.76,12.4,12.4,0,0,1,3.68.49l.37.12v.92l-.49.12c-2.58.37-3.38,2-3.38,3.5a3.33,3.33,0,0,0,3.5,3.25,3.88,3.88,0,0,0,3.87-3.81c0-3.68-3.13-6.08-7.74-6.08-7.43,0-13.2,5.1-13.2,13.14,0,7.74,6.63,15.78,20.88,15.9,15.6,0,22.84-9.95,22.84-19,0-8.66-6.88-14.55-12.46-19.53S231,15,231,9.58a7.35,7.35,0,0,1,1.9-5.16,7.8,7.8,0,0,1,5.71-2.09,10,10,0,0,1,7.25,2.89c2.15,2.09,4.18,5.16,6.69,9.95l.92-.18L252.48.8h-1.11L249,4.48l-.49-.37A13.23,13.23,0,0,0,238.66.31c-7.74,0-13.14,5.16-13.2,12.22,0,7.37,5.28,11.85,10.38,16.58,6.32,6,9.46,9.33,9.46,16.21A13.34,13.34,0,0,1,241.36,55a15.61,15.61,0,0,1-11,4.05c-5.71,0-9.89-1.6-12.77-4.3a15.76,15.76,0,0,1-4.18-11M258,22.78l.8.18L269.24,9,278,7.49l-9.64,45.44-7.86,1.47-.25,1.35h22.1l.25-1.47-7.25-1.41L285,7.43l7.74,1.72L298.16,23l.68-.18L300,6.45H262.36L258,22.78Z"/></svg>