<?xml version="1.0" encoding="utf-8"?>
<!-- Generator: Adobe Illustrator 20.1.0, SVG Export Plug-In . SVG Version: 6.00 Build 0)  -->
<svg version="1.1" id="Layer_1" xmlns="http://www.w3.org/2000/svg" xmlns:xlink="http://www.w3.org/1999/xlink" x="0px" y="0px"
	 viewBox="0 0 698.3 297.5" style="enable-background:new 0 0 698.3 297.5;" xml:space="preserve">
<style type="text/css">
	.st0{fill:#FFFFFF;}
</style>
<g>
	<path class="st0" d="M117.1,117.2c-0.1-0.5-0.2-1-0.2-1.5C116.9,116.2,117,116.7,117.1,117.2z"/>
	<path class="st0" d="M114.6,149.5c0.5,0.1,1,0.3,1.4,0.5C115.6,149.8,115.1,149.7,114.6,149.5z"/>
	<path class="st0" d="M117.6,119.9c-0.2-0.7-0.3-1.3-0.5-2C117.3,118.6,117.5,119.3,117.6,119.9z"/>
	<path class="st0" d="M114.2,149.4c-0.4-0.1-0.8-0.2-1.1-0.3C113.5,149.2,113.9,149.3,114.2,149.4z"/>
	<path class="st0" d="M112.8,151.5c-0.1,0-0.2,0-0.2,0C112.6,151.5,112.7,151.5,112.8,151.5z"/>
	<path class="st0" d="M113.3,151.6C113.3,151.6,113.3,151.6,113.3,151.6C113.3,151.6,113.3,151.6,113.3,151.6z"/>
	<path class="st0" d="M112.6,149.1c-0.4-0.1-0.8-0.1-1.2-0.2C111.8,149,112.2,149,112.6,149.1z"/>
	<path class="st0" d="M118.3,122c-0.2-0.6-0.4-1.3-0.6-2C117.8,120.7,118.1,121.4,118.3,122z"/>
	<path class="st0" d="M173.4,132.2l1.5,0.3l18.2-24.7l15.4-2.6l-16.9,80l-13.8,2.6l-0.5,2.3l38.8,0l0.5-2.4l-12.8-2.6l16.9-79.9
		l13.7,2.8l9.5,24.4l1.3-0.3l2.1-28.7h-66L173.4,132.2z M242.4,127.8c0.7,0.9,1.3,3,1.4,4.7l-0.1,0l-2.1-5.5
		C241.9,127.2,242.1,127.5,242.4,127.8z M237.9,107.4c0.1-1,0.5-1.5,1.1-1.6c0.7,0,1.6,0.7,2.1,2.1c0.7,1.9,0.6,2.3-0.8,2.2
		C238.4,109.9,237.8,109.2,237.9,107.4z M226.7,103.5c-0.1,0.5-0.6,1.2-1.1,1.7c-1.2,1.2-1.8,0.6-1.8-1.7H226.7z M215.6,104.9
		c0.4-0.6,0.6-0.9,0.7-0.9c0.1,0,0.1,0.3-0.1,0.8c-0.2,0.9,0.1,1.3,0.9,1.2c0.7-0.2,1.2-0.9,1.1-1.6c-0.1-0.7,0.4-0.3,1.2,0.8
		c0.3,0.4,0.6,0.8,0.9,1.2l-2,9.7C216.2,113.7,214.4,106.8,215.6,104.9z M215,127.7c0.6-0.4,0.8-1.3,0.6-2.1c-0.6-2-0.7-3.2-0.4-3.3
		c0.2-0.1,0.5,0.3,1,1.1c0.2,0.3,0.3,0.6,0.4,0.9l-1.6,7.7c-0.1-0.3-0.2-0.6-0.2-0.8C214.3,129.7,214.4,128.1,215,127.7z
		 M213.9,117.5c0.5,2.2,0.2,2.4-2.9,2.1c-3-0.3-3.1-3-0.1-3.6c0.5-0.1,0.9-0.2,1.2-0.2C213.2,115.8,213.7,116.3,213.9,117.5z
		 M212.4,103.5c-0.5,1.6-1.4,2.4-2.5,1.7c-0.8-0.5-1.3-1.1-1.5-1.7H212.4z M190.4,103.5c0.1,0.5-0.7,1.1-2,1.4
		c-1.4,0.3-3.2-0.3-4.7-1.4H190.4z"/>
	<path class="st0" d="M92.3,155.5c0.3-0.3,0.6-0.5,0.8-0.8C92.9,154.9,92.6,155.2,92.3,155.5z"/>
	<path class="st0" d="M325.3,108.4l10.1-2.5l0.6-2.3h-25.7l-0.6,2.5l8.3,2.7l-27.6,40.9l-12-40.3l11.6-3.3l0.6-2.4h-32.8l-0.6,2.5
		l8.3,3.1l4,11.9c0.2-0.3,0.5-0.6,1-1.1c0.9-0.9,1.5-1.4,1.8-1.4c0.3,0,0.4,0.5,0.3,1.4c-0.1,0.9-0.9,1.7-1.8,1.8
		c-0.5,0.1-0.8,0.1-1.1,0.1l10.3,30.7l-7,32.8l-2.2,0.5c-1.4,2-3.7,2.6-5.4,1.2c0,0-0.1-0.1-0.1-0.1l-1.4,0.3c0.2,0.7,0.7,1.8,1.6,3
		h-3.9c-0.4-0.9-0.5-1.7-0.1-2.3c0.1-0.1,0.1-0.2,0.1-0.3l-1.2,0.2l-0.5,2.3h36.3l0.6-2.4l-11.5-2.6l7.2-34.2L325.3,108.4z
		 M322.5,106.8c0.2,0,0.4,0,0.6,0.1c0.5,0.1,1,0.3,1.4,0.6v1.7c-0.5,0.1-1.3-0.1-2-0.5C321,108,321.2,106.8,322.5,106.8z
		 M317.1,110.1c0.2,0,0.3,0,0.5,0.1c1.1,0.2,2,0.8,1.9,1.3c-0.1,0.5-1.1,0.6-2.3,0.4c-0.4-0.1-0.8-0.2-1.1-0.3L317.1,110.1z
		 M314.7,113.7C314.7,113.7,314.7,113.7,314.7,113.7c1.1,0.8,1.9,1.1,2,0.7c0.1-0.4,1.3-0.8,2.6-0.9c0.8,0,1.7-0.2,2.4-0.4l-4.6,6
		c-0.7-0.2-1.6-0.5-2.6-0.8c-0.9-0.3-1.7-0.6-2.4-0.8L314.7,113.7z M311.5,120.3c0.1,0,0.3,0,0.4,0c1.4,0.3,1.4,0.5,0.3,1.1
		c-2.2,1.1-2,2.1,0.4,2.6c0.2,0,0.4,0.1,0.6,0.2l-1,1.4c-0.4-0.1-1-0.4-1.6-0.8C308.7,123.7,309.7,120.4,311.5,120.3z M302.1,132.3
		c1.1-0.4,2.5-1.1,4-1.9c1.3-0.7,2.5-1.3,3.5-1.6l-6.5,8.5c-0.9-0.7-1.7-1.6-2.5-2.5c0,0-0.1-0.1-0.1-0.1L302.1,132.3z M281.6,126.8
		c-0.8,0.5-1.2,1.4-1,1.9c0.3,0.6-0.1,1.6-0.8,2.2c-0.8,0.8-1.4,0.8-1.8,0.1c-0.3-0.6-1.7-1.3-3.1-1.6c-3.4-0.7-3.8-2.7-1.2-6.5
		c1.1-1.6,3-2.8,4.1-2.9c0.1,0,0.1,0,0.2,0c0.4,0,0.6,0.3,0.3,1c-0.7,1.7-0.2,2.7,2.2,3.7C282.6,125.7,282.8,126.1,281.6,126.8z
		 M283.2,178.1c-0.7-1.7-1.1-2.7-0.9-2.8c0.1,0,0.2,0.1,0.5,0.5c0.8,1.2,1.7,3.2,1.9,4.5C284.9,181.5,284.2,180.5,283.2,178.1z"/>
	<path class="st0" d="M161.9,92.8l-4.2,6.3l-0.7-0.6c-4.2-3.7-8.4-6.7-17.2-6.7c-13.5,0-23,9.1-23.1,21.4c0.5,0.7,0.9,1.9,1.5,3.9
		c1.5,5.4,4.1,6.5,10.3,4.6c0.7-0.2,1.3-0.3,1.9-0.3c-2.8-3.8-4.3-7.6-4.3-12.8c0-3.5,1.1-6.7,3.3-9.1c2.2-2.4,5.6-3.8,10.1-3.8
		c4.7,0,8.8,1.4,12.7,5c3.3,3.1,6.4,7.6,10,14.3c0,0,0,0,0,0c0.1,0,0.1,0,0.2,0c0.5,0.2,0.7,0.7,0.5,1.2c0,0,0,0,0,0
		c0.3,0.6,0.7,1.3,1,2l1.6-0.3l-1.7-25.1H161.9z"/>
	<path class="st0" d="M91.4,156.5c0.3-0.3,0.5-0.6,0.8-0.9C91.9,155.9,91.7,156.2,91.4,156.5z"/>
	<path class="st0" d="M140.8,131.9c-2.4-2.2-4.6-4.1-6.4-6c-0.2,0.7-0.5,1.5-1.1,2.3c-1.5,1.9-2.4,3.9-2.1,4.5
		c0.3,0.6,0.1,1.3-0.5,1.4c-0.5,0.1-1.4,1-2.3,2.2c-2.2-2.2-4.3-4.5-6-6.9c3.4,4.7,8.1,8.8,12.6,13.1c11.1,10.5,16.6,16.3,16.5,28.4
		c0,6.6-2.4,12.6-7,17.1c-4.5,4.4-11.1,7.2-19.2,7.2c-10,0-17.4-2.8-22.3-7.5c-4.9-4.7-7.2-11.3-7.2-18.6c0-5.3,1.5-9.8,4-12.9
		c1-1.3,2.2-2.3,3.6-3.1c0,0,0,0,0,0c-1.5-0.4-2.4-1.6-2.7-2.9c1.3-0.5,2.7-0.8,4.2-1.1c-4.4,0.8-8.4,2.6-11.5,5.5
		c0.3-0.3,0.6-0.6,1-0.8c1,0.1,1.2,1.5-0.1,3.6c-0.6,1-0.7,3-0.1,4.3c0.6,1.4,0.4,2.3-0.3,2.1c-1.8-0.4-3.1-3.8-3-6.3
		c0.3-0.3,0.5-0.7,0.8-1c-3.4,3.9-5.4,9.1-5.4,15.3c0,13.6,11.5,27.9,36.7,27.9c27.4,0,40-17.5,40-33.4
		C162.7,151.1,150.7,140.8,140.8,131.9z M94.3,174.5c-0.8-0.2-1.6,0.6-1.9,1.7c-0.3,1.1-0.7,1.5-1,0.8c-0.3-0.6-0.1-1.5,0.4-2
		c0.5-0.5,0.3-1.4-0.4-2.1c-0.8-0.8-0.7-1.2,0.4-1.1c0.2,0,0.3,0,0.5,0c1.2,0.1,2.5,0.9,2.8,1.7C95.4,174.2,95.1,174.7,94.3,174.5z
		 M102.5,190.6c-0.4,2-0.8,2.3-2.1,1.3c-2.4-1.7-2.5-2.3-0.5-3.5c0.7-0.5,1.3-0.7,1.8-0.7C102.6,187.7,102.8,188.6,102.5,190.6z
		 M109.6,197c-0.6,0.9-4.5-0.3-5-1.6c-0.2-0.5,0.1-1,0.7-1.1c0.1,0,0.2,0,0.3,0C107.2,194.2,110.1,196.1,109.6,197z"/>
	<path class="st0" d="M107,148.9c0.7-0.1,1.5-0.1,2.2-0.1C108.5,148.8,107.7,148.8,107,148.9z"/>
	<path class="st0" d="M120.1,123.2c-0.6-0.1-1.2-0.6-1.8-1.1c1,2.6,2.3,5,4,7.3c-0.1-0.3-0.2-0.6-0.4-1c-0.7-1.3-0.7-2.9-0.2-3.5
		C122.4,124.1,121.9,123.6,120.1,123.2z"/>
	<path class="st0" d="M485.8,153.7c0.2,0.2,0.3,0.4,0.4,0.6C486.1,154.2,485.9,154,485.8,153.7z"/>
	<path class="st0" d="M108,151.5C108,151.5,108,151.5,108,151.5c-2.9-1.8-4.8-1.6-3.9,0.5c0.1,0.2,0.1,0.4,0.1,0.6c0,0,0,0,0,0
		C105.4,152,106.7,151.7,108,151.5z"/>
	<path class="st0" d="M106.9,148.9c-0.7,0.1-1.4,0.2-2.1,0.3C105.5,149,106.2,148.9,106.9,148.9z"/>
	<path class="st0" d="M484,151.9c0.4,0.3,0.8,0.7,1.2,1.1C484.8,152.6,484.4,152.2,484,151.9z"/>
	<path class="st0" d="M485.7,153.6c-0.2-0.2-0.3-0.4-0.5-0.6C485.4,153.2,485.5,153.4,485.7,153.6z"/>
	<path class="st0" d="M109.2,148.8c0.6,0,1.1,0,1.7,0.1C110.4,148.8,109.8,148.8,109.2,148.8z"/>
	<path class="st0" d="M452.7,161.8c0.2-0.1,0.4-0.2,0.6-0.2c0.1,0,0.1,0,0.2,0c1.4,0,3.3,1.1,3.2,2.4c0,0.7,1,2.4,2.3,3.7
		c0.8,0.8,1.2,1.7,1.3,2.6c0-0.4,0-0.8,0-1.2c0-5.3,1.5-9.8,4-12.9c2.5-3.1,6.1-4.9,10.2-4.9c2.6,0,4,0.1,6.5,0.9l0.6,0.2v0.6v1
		l-0.7,0.1c-4.5,0.6-5.9,3.5-6,6.1c0,3.2,2.9,5.8,6,5.8c3.4,0,6.7-2.9,6.7-6.7c0-1.9-0.5-3.5-1.4-5c-0.1,0-0.2-0.1-0.3-0.1
		c-1.1-0.8-1.6-1.4-2-2.4c-2.4-1.9-5.9-3-10-3.1C464.4,148.8,456.4,153.7,452.7,161.8z"/>
	<path class="st0" d="M111.5,151.4c-0.1,0-0.3,0-0.4,0C111.2,151.4,111.3,151.4,111.5,151.4z"/>
	<path class="st0" d="M116.2,166.1c3.4,0,6.7-2.9,6.7-6.7c0-4.4-2.6-7.7-6.8-9.4c-0.2,0.8-0.5,1.5-0.8,2c0,0,0,0,0,0
		c0.4,0.1,0.7,0.2,1.1,0.3l0.6,0.2v0.6v1l-0.7,0.1c-4.5,0.6-6,3.5-6,6.1C110.2,163.5,113,166.1,116.2,166.1z"/>
	<path class="st0" d="M380.4,185l-6.7,0.7c0.4,0.4,0.7,0.9,0.9,1.4c0.5,1.1,1.5,1.8,2.3,1.6c1-0.2,1,0.1,0.1,1
		c-0.2,0.2-0.3,0.3-0.5,0.4h-4.5c-0.3-0.8,0-1.5,0.7-1.7c0.7-0.2,0.7-1.1-0.2-2.1c-0.2-0.2-0.3-0.4-0.4-0.5l-20.9,2.1l7.4-34.9
		c-0.2-0.1-0.4-0.3-0.6-0.4c-3.8-2.8-4.3-3.3-2.8-3.6c0.2,0,0.3,0,0.5,0c1,0,2.3,0.5,3.6,1.2l8.9-41.7l12.6-2.6l0.5-2.3h-35.9
		l-0.6,2.4l11.2,2.6l-16.3,76.8l-8.9,1.9l1.3-0.3c0.4,0.7,0.5,1.3,0.1,1.3c-0.4,0.1-1.1-0.3-2-0.9l-2.8,0.6l-0.5,2.3h65l0,0h-0.2
		c-1.4-0.2-2.2-0.9-1-1.1c0.4-0.1,1.1-0.3,1.7-0.6l8.3-27.1l-1.5-0.3L380.4,185z M376.4,106c0.3-1.2,0.7-1.8,1.2-1.8
		c0.6-0.1,1.1,0.6,1.4,2l-2.7,0.6C376.3,106.5,376.4,106.3,376.4,106z M357.1,190.2c0.4-0.2,1-0.3,1.9-0.6c0.8-0.2,1.5-0.3,2-0.3
		c1,0,1.6,0.2,2.1,0.9H357.1z"/>
	<path class="st0" d="M110.7,151.4c-0.3,0-0.5,0-0.8,0c-0.4,0-0.8,0-1.2,0.1c0.4,0,0.8-0.1,1.2-0.1
		C110.2,151.4,110.4,151.4,110.7,151.4z"/>
	<path class="st0" d="M111.8,151.4c0.1,0,0.2,0,0.3,0C112.1,151.4,111.9,151.4,111.8,151.4z"/>
	<path class="st0" d="M462.2,192.9c-0.3-0.2-0.6-0.4-0.9-0.6C461.6,192.4,461.9,192.7,462.2,192.9z"/>
	<path class="st0" d="M450.7,171.2c0-0.4,0-0.9,0.1-1.3C450.8,170.4,450.7,170.8,450.7,171.2z"/>
	<path class="st0" d="M450.9,168.7c0-0.4,0.1-0.8,0.2-1.2C451,167.9,451,168.3,450.9,168.7z"/>
	<path class="st0" d="M459.9,191.1c-0.3-0.3-0.6-0.5-0.9-0.8C459.3,190.5,459.6,190.8,459.9,191.1z"/>
	<path class="st0" d="M450.8,170c0-0.4,0.1-0.8,0.1-1.2C450.9,169.1,450.8,169.5,450.8,170z"/>
	<path class="st0" d="M457.8,189.2c-0.3-0.3-0.6-0.6-0.9-1C457.2,188.5,457.5,188.8,457.8,189.2z"/>
	<path class="st0" d="M457.9,189.2c0.3,0.3,0.6,0.6,0.9,0.9C458.5,189.8,458.2,189.5,457.9,189.2z"/>
	<path class="st0" d="M456.9,188.1c-0.3-0.3-0.6-0.7-0.8-1C456.4,187.5,456.6,187.8,456.9,188.1z"/>
	<path class="st0" d="M451.6,165.1c0.1-0.4,0.2-0.7,0.3-1.1C451.8,164.4,451.7,164.7,451.6,165.1z"/>
	<path class="st0" d="M451.9,164c0.1-0.4,0.2-0.7,0.4-1.1C452.2,163.2,452,163.6,451.9,164z"/>
	<path class="st0" d="M451.3,166.3c0.1-0.4,0.2-0.8,0.3-1.1C451.5,165.5,451.4,165.9,451.3,166.3z"/>
	<path class="st0" d="M460.3,105.8l0.5-2.3h-2.5c-1.3,1-2.8,1.8-4.1,2c-0.8,0.1-1.2-0.4-1.3-2h-26.5c-8.8,0-15.5,1.6-19.9,4.6
		c-4.4,3-6.7,7.4-6.7,13.4c0.1,7.7,4.7,10.3,8.7,10.3c3.5,0,6.1-2.8,6.1-6c0-2.9-2.3-5.6-5.3-5.6c-1.5,0-3.3,0.7-5.2,2.5l-0.2,0.2
		h-2.3l0.1-0.9c0.6-8.2,9.5-14.9,25.1-14.9h9l-16.6,78l-0.7,0.2c-0.2,0.1-0.3,0.2-0.5,0.2c-0.1,0-0.3,0-0.4,0l-11,2.2l-0.5,2.3h36.4
		l0.6-2.4l-11.6-2.6l16.3-76.8L460.3,105.8z M419.4,184l0.5-2.2C419.8,182.5,419.7,183.3,419.4,184z M422.1,179.1
		c-0.5-0.4-1-0.7-1.5-0.9l0.4-2c0.9,0.4,1.7,1.1,2.1,2.1C424,180.4,423.9,180.4,422.1,179.1z M424,169.7c-0.6,0.4-1.2,0.6-1.7,0.7
		l1.3-6.1c0.2,0.4,0.4,0.8,0.7,1.4C425.1,167.6,425,169.1,424,169.7z M434.8,116.5c-0.2,0.3-0.6,0.4-1.2,0.4l0.4-2
		C434.8,115.5,435.1,116.1,434.8,116.5z M438.4,110.5c-0.9,1.4-1.5,1.8-3.8,2.5l0.3-1.6c0.9-0.3,1.7-0.6,2.2-1
		c0.9-0.6,1.4-0.8,1.6-0.8C438.9,109.6,438.8,109.9,438.4,110.5z"/>
	<path class="st0" d="M451.1,167.5c0.1-0.4,0.1-0.8,0.2-1.2C451.2,166.7,451.1,167.1,451.1,167.5z"/>
	<path class="st0" d="M452.3,162.9c0.1-0.4,0.3-0.7,0.4-1.1C452.6,162.2,452.5,162.5,452.3,162.9z"/>
	<path class="st0" d="M515.2,141c-0.5-0.5-1-1-1.5-1.5C514.2,140,514.7,140.5,515.2,141z"/>
	<path class="st0" d="M512.1,137.8c0.5,0.5,1,1,1.5,1.5C513.1,138.8,512.6,138.3,512.1,137.8z"/>
	<path class="st0" d="M586.3,103.5c0,0.1-0.1,0.1-0.1,0.2c-0.6,1-2.1,1-5.5,0c-0.2,0-0.3-0.1-0.4-0.1h-34l-7.8,28.7l1.5,0.3
		l18.2-24.7l15.4-2.6l-16.9,80l-13.8,2.6l-0.5,2.3h27.7c0.1-0.5,0.3-1,0.7-1.5c0.6-0.8,1.6-1.2,2.5-1.2c0.9,0,1.8,0.4,2.1,1.2
		c0.2,0.4,0.1,0.9-0.1,1.4h5.8l0.5-2.4l-12.8-2.6l16.9-79.9l13.7,2.8l9.5,24.4l1.3-0.3l2.1-28.7H586.3z M542.2,120.2
		c-0.2,0.2-0.4,0.5-0.5,0.7l1.5-5.5C543.7,116.7,543.5,118.5,542.2,120.2z"/>
	<path class="st0" d="M497,140.1c-0.8-0.7-1.5-1.5-2.3-2.2C495.5,138.6,496.2,139.3,497,140.1z"/>
	<path class="st0" d="M461,192c-0.3-0.2-0.6-0.5-0.9-0.7C460.4,191.5,460.7,191.7,461,192z"/>
	<path class="st0" d="M518.3,144.4c-1-1.1-2-2.2-3-3.3C516.4,142.1,517.4,143.2,518.3,144.4z"/>
	<path class="st0" d="M526.6,92.8l-4.2,6.3l-0.7-0.6c-4.2-3.7-8.4-6.7-17.2-6.7c-13.6,0-23.1,9.1-23.1,21.5
		c0,10.6,6.1,17.7,13.2,24.5c-0.6-1.5-0.3-1.4,2.3-0.4c1.8,0.7,3.2,0.8,3.3,0.1c0.2-0.6-0.6-1.3-1.8-1.6c-1.7-0.4-1.5-0.9,0.6-2.8
		l2.8-2.4l2.9,3.2c1.6,1.7,2.7,3.4,2.5,3.8c-0.2,0.3-1.1-0.2-2.1-1.3c-2-2.2-4.2-2.1-3.3,0.1c0.4,0.8,0,1.9-0.8,2.4
		c-0.8,0.5-1,1.4-0.3,2.1c0.7,0.7,0.2,1.3-0.8,1.9c1.1,1,2.1,2,3.1,3c0,0,0,0,0,0c0.4,0.1,0.6,0.3,0.7,0.7c0,0,0,0,0,0
		c2.7,2.7,5,5.1,6.8,7.5c0,0,0,0,0,0c0.6-1.5,2-2.3,3.1-2.2c1.2,0.1,2.1,0.9,1.8,2.6c-0.7,3.8-0.3,5.1,1.2,3.8
		c0.7-0.6,1.1-0.1,1.2,1.6c0.3,4.2-0.9,4.8-3.3,1.5c0,0,0,0,0-0.1c0,0,0,0,0,0c1,2.9,1.6,6,1.6,9.8c0,6.6-2.4,12.6-7,17.1
		c-4.5,4.4-11.1,7.2-19.2,7.2c-10,0-17.4-2.8-22.3-7.5c-4.4-4.2-6.7-10-7.2-16.4c-0.1,1.4-0.9,2.5-2.3,2.8c-1.9,0.4-5.6-1.2-7.5-2.9
		c0,0.2,0,0.4,0,0.6c0,5.3,1.8,10.7,5.4,15.3c0.9,0.3,2,0.6,3,0.7c4.3,0.8,6.9,4.6,5.7,6.7c5.7,3.2,13.2,5.2,22.6,5.2
		c13.5,0,23.4-4.3,30-10.5c-1.4-0.1-3.5-1-3.9-1.9c-0.2-0.5,0.1-1,0.7-1.1c0.1,0,0.2,0,0.3,0c1.3,0,3.3,1.1,3.9,2
		c6.1-6.3,9-14.3,9-22c0-8.7-3.9-15.8-9.1-21.9c-0.2-0.1-0.5-0.3-0.7-0.4c-3.3-2.3-5.6-2.2-4.6,0.1c0.4,0.8,0,1.4-0.8,1.2
		c-3.4-0.8-4-5.9-0.8-7.2c0.2-0.1,0.4-0.1,0.6-0.2c-2.2-2.1-4.4-4-6.5-5.9c-1.3-1.1-2.4-2.2-3.6-3.2c-0.2-0.1-0.5-0.2-0.7-0.3
		c-1.7-0.8-2.6-1.9-2.6-2.9c-5.2-5.3-7.9-9.9-7.9-16.9c0-3.5,1.1-6.7,3.3-9.1c2.2-2.4,5.6-3.8,10.1-3.8c4.7,0,8.8,1.4,12.7,5
		c3.8,3.5,7.4,9.1,11.7,17.5l1.6-0.3l-1.7-25.1H526.6z M529.9,113.8l0.1,1.7c-0.3-0.1-0.6-0.2-1-0.3c-3.3-0.8-7.8-10.2-5-10.8
		c0.1,0,0.2,0,0.3,0c0.1,0,0.2,0,0.2,0c1.1,0,1.7,1.2,2.7,4.7C527.8,111.4,528.7,113,529.9,113.8z"/>
	<path class="st0" d="M463.4,193.7c-0.3-0.2-0.6-0.4-0.8-0.6C462.9,193.3,463.2,193.5,463.4,193.7z"/>
	<path class="st0" d="M464.8,194.5c-0.3-0.2-0.6-0.3-0.9-0.5C464.2,194.2,464.5,194.4,464.8,194.5z"/>
	<path class="st0" d="M517.4,189.3c0.3-0.3,0.7-0.7,1-1C518,188.6,517.7,189,517.4,189.3z"/>
</g>
<g>
	<path class="st0" d="M362.8,233.5l-3.1,0c-0.2,0.4-0.4,0.9-0.6,1.4c-0.2,0.5-0.5,0-0.8-1.3c0-0.1,0-0.1,0-0.2l-4.9,0
		c-0.2-0.5-0.5-1-0.7-1.5c-0.1-0.1-0.2-0.2-0.2-0.3c0-0.1,0-0.1,0-0.1c-1.1-2.2-2.1-4.4-3.2-6.5c0,0,0,0-0.1,0c-2.7,0-4.3-1.6-2.2-2
		c0.5-0.1,0.7-0.6,0.7-1.2c-0.6-1.3-1.2-2.5-1.8-3.8c-0.6,0-2.2-0.5-2.4,0.3l4,15.3l-9.6-0.1c-0.2,0-0.4,0-0.6,0.1
		c-0.8-1.1-1.6-2.3-2.4-3.4c-0.4,0-1.5-0.2-1.6,0.1l2.1,5.5l-2.2,5.5c0.1,0.3,1.2,0.1,1.6,0.1c0.8-1.1,1.6-2.2,2.5-3.4
		c0.2,0.1,0.4,0.1,0.6,0.1l9.6,0.1l-4.1,15c0.2,0.7,1.7,0.3,2.4,0.3c1.1-2.2,2.2-4.5,3.4-6.7c-0.6-0.7-0.5-1.5,0-1.8
		c-0.2-0.6-0.2-1.1-0.1-1.6c0.2-0.6,0.5-0.8,0.8-0.8c0.3,0,0.7,0.3,1.1,0.7c0.7-1.5,1.5-3,2.2-4.4c0,0,0-0.1,0-0.1
		c-0.4-1.4,0.1-2.3,1.8-3c1.6-0.7,1.6-0.7,0.9,0.8c-0.3,0.7-0.7,1.3-1.1,1.8l4.8,0c0-0.5,0.2-0.8,0.6-1.1c1.7-1.1,2.1-1.1,1.3,0
		c-0.2,0.3-0.5,0.7-0.8,1.1l2.1,0c0.6,0,1.2-0.3,1.6-0.7c-0.1-0.5-0.2-0.9-0.2-1c0-0.1,0.3,0,0.5,0.3c0,0,0,0,0,0.1
		c0.2-0.3,0.3-0.7,0.3-1C365.1,234.5,364.1,233.5,362.8,233.5z"/>
	<path class="st0" d="M349.5,244.6c0,0,0.1,0,0.1,0C349.6,244.6,349.5,244.6,349.5,244.6z"/>
</g>
<g>
	<path class="st0" d="M337.1,61.5c0,0-0.1,0-0.1,0C337.1,61.5,337.1,61.5,337.1,61.5z"/>
	<path class="st0" d="M365.1,56.9c-0.1-0.3-1.2-0.2-1.6-0.1c-0.8,1.1-1.7,2.3-2.5,3.4c-0.2-0.1-0.4-0.1-0.6-0.1l-9.6-0.1l4.1-15
		c-0.2-0.7-1.7-0.3-2.4-0.3c-2.5,5.1-5.1,10.2-7.6,15.3l-3.7,0c0,0,0,0,0,0c1.8,1.8,1.8,1.8-0.4,2.8c-2.7,1.2-4.9,0-4.1-1.5
		c-0.1-0.1-0.1-0.1-0.2-0.2c-0.1,0.3-0.3,0.3-0.4,0c-0.1-0.2,0-0.6,0.1-1c0,0,0-0.1,0-0.2c0,0,0,0,0,0l-0.8,0c-1.3,0-2.3,1-2.3,2.3
		c0,1.1,0.8,2.1,1.9,2.3c0.2-0.3,0.4-0.4,0.6-0.1c0,0.1,0.1,0.1,0.1,0.1l0.9,0c0-0.1,0-0.1,0-0.1c0.2-0.4,0.4-0.7,0.6-0.6
		c0.1,0.1,0.2,0.4,0.1,0.7l2.2,0c0-0.1-0.1-0.2-0.1-0.3c-0.7-0.7-0.3-1.1,0.6-0.6c0.7,0.4,1,0.4,1.2,0c0.1-0.3,0.4,0,0.8,0.8
		c0,0,0,0,0,0l2.8,0c0.6,1.2,1.2,2.4,1.7,3.6c0.2,0,0.3,0.1,0.2,0.4c0.9,1.8,1.8,3.7,2.7,5.5c0.2,0,0.4,0.1,0.9,0.2
		c1,0.4,0.9,1.4,0,1.5c0.7,1.5,1.4,2.9,2.1,4.4c0.7,0,2.2,0.5,2.4-0.2l0,0c-0.3,0.3-0.6,0.4-0.9,0.2c-0.6-0.3-0.8-1.4-0.3-2.4
		c0.2-0.5,0.4-0.8,0.4-1.1l-0.1-0.4c-0.2-0.1-0.5-0.2-1.1-0.1c-1.4,0.2-1.5,0.1-0.3-0.6c0.8-0.5,0.8-1.1,0.1-1.3
		c-0.7-0.2-1.5-1.2-1.7-2.2c-0.2-1.3,0.1-1.9,0.7-2c0.2,0,0.5,0.1,0.8,0.2l-1.5-5.7l2,0c0.1,0,0.2,0,0.3,0c1.4,0,2.6-0.5,2.6-1.2
		c0-0.1,0-0.2,0.1-0.2c0.2,0,0.8,0.5,1.5,1.4l3.1,0c0.2,0,0.4,0,0.6-0.1c0.8,1.1,1.6,2.3,2.4,3.4c0.5,0,1.6,0.2,1.7-0.1l-2.1-5.5
		L365.1,56.9z M351,77.1c-0.2-0.5-0.5-0.9-0.7-1.4c0,0,0,0,0,0C351.2,75.7,351.5,76.3,351,77.1z M351,65.3l0.1,0.4
		c0,0-0.1-0.1-0.1-0.1C351,65.5,351,65.4,351,65.3z"/>
	<path class="st0" d="M336.8,61.3C336.9,61.4,336.9,61.4,336.8,61.3C336.9,61.4,336.9,61.4,336.8,61.3z"/>
</g>
<g>
	<path class="st0" d="M165.6,6.7c0.4-0.2,0.9-0.5,1.4-0.8c0.3-0.3,0.6-0.5,0.9-0.6c-0.4-0.5-0.9-1.1-1.5-1.6
		c-0.1-0.1-0.2-0.2-0.3-0.3l-3.9,0c0.6,0.4,1.3,0.9,2.1,1.3C165.9,5.5,166.4,5.9,165.6,6.7z"/>
	<path class="st0" d="M167.8,5.3c0.2,0.3,0.5,0.6,0.6,0.9c0,0,0,0,0,0c-0.6,1.4-1,2.1-1.6,2.3c2,0,4,0,6,0c-0.1-1.6,2.8-3.6,4.4-3.6
		c0.5,0,0.9,0.2,1,0.7c0.2,1-0.5,1.7-2.2,2.3c-0.7,0.2-1.2,0.5-1.5,0.7c3.9,0,7.8,0,11.7,0.1c-0.4-1-0.4-2.3-0.2-5.2l-15.3-0.1
		c-0.1,2.3-0.8,4.4-1.5,4.8c-0.7,0.4-0.9,0.3-0.4-0.3C169.2,7.5,168.8,6.4,167.8,5.3z"/>
	<path class="st0" d="M165.2,7C165.2,7,165.2,7,165.2,7C165.2,7,165.2,7,165.2,7z"/>
	<path class="st0" d="M429.7,4.9c0.4,0.3,0.8,0.7,1.3,1c2.6,2,3.9,3.2,4.4,4.3c4.2,0,8.3,0.1,12.5,0.1c1.2-0.1,2.1-0.7,2.2-1.3
		c0.1-1.6,0.3-2.9,0.7-3.9L429.7,4.9z M441.6,8.2c-0.6,0.8-1.2,1.6-1.2,1.8c0,0.2-0.7,0.3-1.4,0.1c-0.7-0.2-1.2-0.9-1-1.6
		c0.2-0.7,1.3-1.4,2.5-1.5c0.2,0,0.4,0,0.6,0C442.2,7,442.4,7.3,441.6,8.2z"/>
	<path class="st0" d="M164.7,7.3C164.8,7.3,164.8,7.3,164.7,7.3C164.8,7.3,164.8,7.3,164.7,7.3z"/>
	<path class="st0" d="M187.6,8.7c15.9,0.1,31.8,0.2,47.7,0.3c-0.1-0.6-0.3-1.2-0.4-1.9c-0.4-1.7-0.6-2.7-0.6-3.3l0.3,0l2.5,0
		c1.8,0.8,2.3,2,0.8,2.4c-0.6,0.1,0.1,0.7,1.5,1.3c1.1,0.5,2,1,2.6,1.5c37.2,0.2,74.4,0.5,111.6,0.7c0-0.2,0.1-0.3,0.1-0.5
		c0.3-1.4,0.6-1.9,1.4-1.9c0.5,0,1.1,0.2,2,0.6c1.6,0.7,3.3,1.3,3.8,1.4c0.6,0.1,0.9,0.3,0.9,0.5c9.2,0.1,18.3,0.1,27.5,0.2
		c-1.1-0.6-1.1-0.8,0-0.8c0.4,0,1.1,0,1.9,0.1c1.6,0.1,2.7,0.3,3.1,0.7c11.2,0.1,22.3,0.1,33.5,0.2c0,0,0-0.1,0-0.1
		c0.1-0.6-0.6-1.6-1.6-2.1c-1-0.5-1.8-1.5-1.6-2.2c0-0.2,0-0.5,0-0.8l1.3,0l-86.6-0.5c0.2-0.1,0.4-0.2,0.7-0.3
		c1.9-0.7,1.8-1.1-0.6-2.9c-1.3-0.9-2.4-1.3-3.3-1.3c-1.5,0-2.3,1.1-1.4,3c0.3,0.6,0.6,1.1,0.9,1.4L234.6,3.7l-27-0.2l-3.7,0
		c0,0.1,0,0.1-0.1,0.2c-1.3,3-4.7,2.7-5.1-0.2l-11.3-0.1C187.3,5.2,187.3,7.4,187.6,8.7z M367.2,4.6l2.3,0c0.4,0.5,0.8,1.1,1.2,1.7
		c1.5,2.8-0.6,4.5-2.7,2.2C367,7.4,366.8,5.6,367.2,4.6z"/>
	<path class="st0" d="M576.2,9.4c0.2,0.3,1.1,0.1,2.2-0.4c1-0.5,2.1-0.7,2.3-0.2c0.2,0.4,0.9,0.2,1.5-0.4c0.6-0.6,0.6-1.6-0.2-2.3
		c-0.1-0.1-0.2-0.2-0.2-0.2l-4.8,0C576.3,7.1,575.9,8.7,576.2,9.4z"/>
	<path class="st0" d="M643.1,47.4c-3.8-1.2-5.2-2.4-3.5-2.4c0.5,0,1.3,0.1,2.4,0.3L621.2,6.1l-32.5-0.2c-0.1,0-0.1,0.1-0.2,0.1
		c-0.6,0.4-0.8,1.1-0.4,1.5c0.4,0.4-2,2.1-4.6,3.6c-2.8,0-5.7,0-8.5-0.1c0,0,0,0,0,0c0.2-0.4-0.6-0.9-1.8-1c-1.4-0.1-1.7-0.4-1-0.8
		c0.7-0.4,0.8-1.2,0.2-1.8c-0.5-0.6-0.4-1,0.3-1.7l-12-0.1c-0.1,0.4-0.5,0.7-1.1,0.8c-0.9,0.2-2.4,1.6-3.3,3.2
		c-0.3,0.5-0.5,0.9-0.7,1.3c-3,0-6,0-9-0.1c-0.2-0.9,0.5-2.1,2.3-3.1c0.9-0.5,1.8-1.3,1.9-1.8c0-0.1,0.1-0.2,0.2-0.4l-11.3-0.1
		c0,0.1,0,0.1,0,0.2c0.2,0.9-0.2,2.2-0.8,2.8c-0.6,0.6-0.8,1.6-0.5,2.3c-0.9,0-1.9,0-2.8,0c-0.3-1-0.4-2.7,0-4.4
		c0.1-0.3,0.1-0.5,0.2-0.8l-10.2-0.1c1.4,1.3,0.7,1.6-3.1,2.4c-3.6,0.8-5.7-0.9-4.2-2.5l-5.6,0c1.3,3.8,1.3,4-0.2,3.5
		c-0.6-0.2-1.3-1.8-1.7-3.5l-56.4-0.3c-2.3,2.5-2,5.1,0.9,5.1c0.7,0,1.3,0.1,1.7,0.2c7.2,0,14.4,0.1,21.6,0.1
		c-0.5-0.2-0.7-0.7-0.5-1.2c0.3-0.8,1.2-1.2,1.9-0.9c0.8,0.3,1.3,0.9,1.1,1.4c-0.1,0.3-0.6,0.6-1.2,0.8c17.2,0.1,34.5,0.2,51.7,0.3
		c-2.5-1.9-2.4-2.7,0.4-1.3c0.8,0.3,1.6,0.8,2.3,1.3c27.6,0.2,55.3,0.3,82.9,0.5c7.6,14.3,15.1,28.6,22.7,42.9
		c0-0.1-0.1-0.2-0.1-0.2c0.5,0.2,0.7,0.6,0.6,1.2c0.3,0.5,0.6,1.1,0.9,1.6c0.5,0.2,1.1,0.5,1.6,0.9c0.2,0.1,0.4,0.1,0.6,0.2
		c1.4,0.5,3.1,0.7,3.7,0.4c0.2-0.1,0.8-0.1,1.5,0L643.1,47.4z M465,8.6c-1.5-0.3-1.6-1.4-0.1-2.2c0.3-0.2,0.6-0.2,0.9-0.2
		c0.5,0,0.9,0.2,1.1,0.6C467.5,8,466.5,8.9,465,8.6z M601.5,11.3c-0.3-1.4-0.1-2.6,0.3-2.7c0.1,0,0.1,0,0.2,0c0.4,0,0.8,0.3,0.9,0.8
		c0.1,0.4,0.4,1.2,0.7,1.9C602.9,11.3,602.2,11.3,601.5,11.3z M634.4,43.3c-0.3-0.6-0.6-1.2-0.9-1.8c0.5-0.2,1-0.3,1.3-0.3
		c0.3,0,0.5,0.1,0.6,0.3C635.7,41.8,635.2,42.5,634.4,43.3z"/>
	<path class="st0" d="M164.3,7.6c0,0-0.1,0.1-0.1,0.1C164.2,7.7,164.3,7.7,164.3,7.6z"/>
	<path class="st0" d="M164.5,8.4c-0.3-0.1-0.6-0.2-0.9-0.3c0.1,0,0.1-0.1,0.2-0.1c-0.3,0.2-0.6,0.3-0.9,0.5c0.8,0,1.7,0,2.5,0
		C165.1,8.5,164.8,8.4,164.5,8.4z"/>
</g>
<g>
	<path class="st0" d="M189.1,290.1C189.1,290.1,189.1,290.1,189.1,290.1C189.1,290.1,189.1,290.1,189.1,290.1z"/>
	<path class="st0" d="M12.2,178.3c-0.1-0.1-0.3-0.3-0.4-0.5c0,0,0,0,0,0c0,0,0,0,0,0c0.4,0.6,0.7,0.8,1,0.6
		C12.6,178.4,12.4,178.4,12.2,178.3z"/>
	<path class="st0" d="M12,174.5c0.1,0,0.1,0.1,0.2,0.1C12.2,174.6,12.1,174.6,12,174.5z"/>
	<path class="st0" d="M12.8,178.4c0.2-0.1,0.4-0.4,0.7-1C13.2,178,13,178.3,12.8,178.4z"/>
	<path class="st0" d="M8.2,168.6C8.2,168.6,8.2,168.6,8.2,168.6C8.2,168.6,8.2,168.6,8.2,168.6z"/>
	<path class="st0" d="M9.7,169.9c0-0.1-0.1-0.1-0.1-0.2C9.6,169.8,9.7,169.8,9.7,169.9z"/>
	<path class="st0" d="M9.4,169.4C9.4,169.4,9.4,169.3,9.4,169.4C9.4,169.3,9.4,169.4,9.4,169.4z"/>
	<path class="st0" d="M8.5,168.6C8.5,168.6,8.5,168.6,8.5,168.6c0,0-0.1,0-0.1,0C8.4,168.6,8.5,168.6,8.5,168.6L8.5,168.6z"/>
	<path class="st0" d="M132.6,292.6l-4.9,0c0.9-0.8,2.5-1.8,3.9-2.2c1.7-0.6,3.1-1.5,3.2-2.2c0.1-0.3,0.1-0.5,0.2-0.8l-1.7,0
		c0.9,1,0.4,2-1.5,1.6c-1.2-0.2-1.9-0.9-1.9-1.6l-35.9-0.2c-0.2,1.2-1.1,1.5-2,0.2c-0.1-0.1-0.1-0.2-0.1-0.2l-11-0.1
		c-24.6-46.7-49.8-93-73.6-140c4.3-8.3,8.6-16.6,13.1-24.8c-0.1-0.2-0.2-0.4-0.2-0.5c-0.6,0-1.1-0.2-1.2-0.4c-0.3-0.6,0.4-1,2.6-1.2
		c7.8-14.5,15.8-29,23.6-43.5L60.3,49c-0.6-0.4-0.6-1.2,0.3-2.4c0.6-0.8,1.2-1.2,1.7-1.3L82.7,8l75.7,0.5l0.1-0.5
		c0.4-2.9,0.1-3.3-2.1-2.6c-0.4,0.1-0.9,0.2-1.5,0.3c1,0.2,1.2,1.4,0.4,2.8l-7,0c0.6-0.6,0.9-1.1,0.9-1.4c0-0.3,0.1-0.6,0.1-0.7
		c-0.7,0-1.4,0.1-2,0.1c-5.7,0.2-7.1-0.2-11.6-3.3l-3,0c0,0.4-0.1,0.8-0.3,1.3c-0.6,1.7-0.4,2.5,0.9,3.2c0.5,0.3,0.8,0.5,1,0.7
		l-7.2,0c-0.1-0.6-0.2-1.2-0.3-1.7c-0.4-1.4-0.6-2.7-0.6-3.6L104.7,3c0,0,0,0,0,0c-1,1.1-1.7,1.2-2.5,0.5c-0.2-0.2-0.6-0.4-1.1-0.5
		L80,2.8c0.1,0.1,0.3,0.2,0.4,0.3c2,1.3-0.3,2.8-3.8,3.7L54.8,46.8c0.3,0.4,0.7,0.8,1.2,1.5c2.3,3.2,2.3,3.3,1.2,3.3
		c-0.5,0-1.4-1.1-2-2.4c-0.4-0.7-0.6-1.2-0.7-1.6L35.7,81.8c0.9,0.3,0.7,0.7-0.2,1.5c-0.9,0.7-0.8,1.2,0.1,1.8
		c1.5,1.1-0.6,2.4-3.4,3.1L0,147.1l15,28.2c0,0,0,0,0,0l-1.6-3.1c0.6-1.4,0.9-1.1,2,1.5c0.9,1.9,0.8,3.5-0.3,4.1c0,0,0,0,0,0
		c0.2,0.6,0.4,1.3,0.6,2.1c0.7,2.5,1.3,5.2,1.3,6c0,1.3,0.2,1.4,1.4,0.6c0.9-0.6,1.1-1.5,0.8-3.4l27.3,51.4c0,0,0,0,0,0
		c0.8-0.1,4.8,1.3,8.1,2.7c0.9,1.7,1.9,3.5,2.8,5.2c-0.9,0.4-1.9,0.6-2.7,0.3c-1.2-0.5-2.2-1.2-2.1-1.6c0.1-0.5-1.6-1.5-3.7-2.3
		c-0.1,0-0.2-0.1-0.2-0.1l1.1,2.1c0.3-0.2,0.6-0.4,0.8-0.4c0.4,0,0.7,0.8,1.1,2.4c0.4,1.8,1.2,2.9,1.9,2.7c0.6-0.2,1.7,0.4,2.5,1.4
		c1.4,1.9,1.4,1.9-2.1,0.5c-0.3-0.1-0.5-0.2-0.7-0.3l11.6,21.8c0.1-0.1,0.2-0.2,0.3-0.3c1.1-1.2,1.6-1.8,2.1-1.9c0.1,0,0.1,0,0.2,0
		c0.4,0,0.8,0.4,1.6,1.2c2,1.8,0,4.5-2.5,4.2l5.8,10.9c0.6-0.6,1.2-1,1.7-0.9c0.5,0.1,1.7,0.1,2.8,0c0.2,0,0.4,0,0.6,0
		c1.1,0,1.1,0.6,0.3,3c-1.1,3-0.4,4.6,1.1,2.5c0.5-0.7,1.2-0.4,2.4,1.1c1.6,2,1.6,2-0.7,0.9c-1.8-0.9-2.2-0.9-1.8,0.1
		c0.4,0.8,0.2,1-0.5,0.4c-0.4-0.3-1.3-0.4-2.4-0.4l1.5,2.8L132.6,292.6c0.2-0.2,0.5-0.4,0.7-0.4
		C133.1,292.2,132.8,292.4,132.6,292.6z M111.6,6.2c0.1,0,0.2,0,0.3,0c0.8,0,1.6,0.5,1.9,1.3c0.1,0.3,0.2,0.6,0.3,0.8l-1.9,0
		C109.8,6.9,109.7,6.5,111.6,6.2z M49.5,56.4c0.1,0.1,0.3,0.2,0.4,0.3c3.9,2.3,4,2.4,2.9,2.9c-0.4,0.2-1.9-0.5-3.2-1.6
		c-0.3-0.2-0.5-0.4-0.7-0.6L49.5,56.4z M11.5,168.8c0.2,0.2,0.3,0.5,0.4,0.8L11.5,168.8z"/>
	<path class="st0" d="M8.8,168.7C8.8,168.6,8.8,168.6,8.8,168.7C8.8,168.6,8.8,168.6,8.8,168.7z"/>
	<path class="st0" d="M195.5,289.5c-0.1,0-0.3-0.1-0.4-0.1C195.2,289.4,195.4,289.5,195.5,289.5c0.3,0.1,0.5,0.2,0.8,0.2
		C196,289.7,195.8,289.6,195.5,289.5z"/>
	<path class="st0" d="M187.7,290c-0.2-0.8-0.4-1.6-0.4-2.4l-3,0c0.1,0.5-0.1,0.8-0.4,0.8c-0.3,0-0.6-0.4-0.7-0.8l-3.4,0
		c0,0,0.1,0.1,0.1,0.1c0.8,1,0.1,1.4-2.1,0.8c-0.5-0.1-0.6-0.6-0.5-1l-5.1,0c0.1,0,0.2,0.1,0.3,0.1c0.8,0.3,2,0.7,2.5,0.8
		c0.9,0.2,0.8,0.4-0.1,0.9c-0.1,0.1-0.2,0.1-0.3,0.2c0,0,0,0,0,0c1.1,0.5,2,1,2.3,1.4c0.5,0.8,0.5,1.2,0,1c-0.5-0.2-2.5-0.8-4.4-1.4
		c-1.9-0.6-3.3-1.2-3.9-1.6c-0.7,0.5-1.2,1-1.5,1.5c-0.6,1-1.1,1.4-1.3,0.9c-0.2-0.4,0.3-1.5,1.3-2.3c0.8-0.8,1.3-1.1,1-1.4l3.5,0
		c0,0,0,0.1,0,0.1c-0.3,0.2-0.7,0.3-1,0.4c-0.2,0.1-0.4,0.1-0.6,0.2c0.5,0.1,1,0.2,1.7,0.3c0.3,0.1,0.5,0.1,0.8,0.2
		c-0.6-0.7-0.9-1.1-0.9-1.2l-5.3,0c0,0.1-0.1,0.2-0.1,0.2c-0.3,0.3-0.6,0.6-0.8,0.6c-0.2,0-0.4-0.3-0.4-0.6c0-0.1,0-0.2,0.1-0.2
		l-29.7-0.1l1,0c0.2,0.4,0.3,0.9,0.3,1.6c0.2,2.1,0.6,2.9,1.5,2.9c0.4,0,0.5,0.3,0.4,0.7l-4.5,0l0,0c0-0.2-0.4-0.4-0.9-0.4l0,0
		c0.6,0,1,0.2,0.9,0.4l0,0l10.3,0.1c0,0,0-0.1,0-0.1c0-0.5,0.6-0.9,1.3-0.9c0.9,0,1.1,0.6,0.7,1l2.5,0c0.3-0.5,0.7-0.9,1.1-1
		c1.1-0.4,1.7-0.3,2.6,0.7c0.1,0.1,0.2,0.2,0.3,0.3l12.1,0.1c0,0,0-0.1,0-0.1c0.2-1.2,1.1-1.3,6-1c0.5,0,0.3,0.5-0.4,1.1l8.3,0
		c-0.2-0.3-0.5-0.5-0.9-0.5c-0.5,0-0.1-0.3,0.8-0.7c1-0.3,1.8-0.8,1.8-1c0-0.5,4.3-0.2,5.5,0.4c0.4,0.2,0.9-0.1,1.1-0.6
		C187.5,290.3,187.6,290.2,187.7,290C187.7,290,187.7,290,187.7,290z M144.6,289.9c-1.1-0.2-2-0.8-1.9-1.3c0.1-0.3,0.7-0.5,1.4-0.5
		c0.3,0,0.5,0,0.8,0.1c1.1,0.2,2,0.8,1.9,1.3C146.8,289.9,145.8,290.1,144.6,289.9z M156.2,290.9c-0.2,0.7-0.7,1.3-1.3,1.9l-1.7,0
		c-0.1-0.1-0.2-0.2-0.3-0.3c-0.1-0.1-0.2-0.2-0.3-0.3c0.4-0.5,1-1,1.7-1.4c1-0.6,1.6-1,1.9-1.1c0.1,0,0.1,0,0.1,0
		C156.5,289.6,156.4,290.1,156.2,290.9z M161,288c-0.2,0-0.4-0.2-0.5-0.5l1.9,0C161.8,287.9,161.3,288.1,161,288z"/>
	<path class="st0" d="M189.3,290c0,0,0.1,0,0.1,0C189.4,290,189.4,290,189.3,290z"/>
	<path class="st0" d="M189.1,290.1C189.1,290.1,189.2,290.1,189.1,290.1C189.2,290.1,189.1,290.1,189.1,290.1z"/>
	<path class="st0" d="M195.5,291.7c-0.2-0.1-0.5-0.2-0.8-0.3C195,291.5,195.2,291.6,195.5,291.7z"/>
	<path class="st0" d="M173.6,289.7c-0.1-0.1-0.2-0.1-0.3-0.2C173.4,289.6,173.5,289.6,173.6,289.7z"/>
	<path class="st0" d="M173.1,289.3c-0.2-0.2-0.3-0.3-0.4-0.4C172.8,289,172.9,289.2,173.1,289.3z"/>
	<path class="st0" d="M173.9,289.8C173.9,289.8,173.9,289.8,173.9,289.8C173.9,289.8,173.9,289.8,173.9,289.8z"/>
	<path class="st0" d="M174.4,289.8C174.4,289.8,174.3,289.8,174.4,289.8C174.3,289.8,174.4,289.8,174.4,289.8z"/>
	<path class="st0" d="M8.6,168.6C8.6,168.6,8.6,168.6,8.6,168.6C8.6,168.6,8.6,168.6,8.6,168.6z"/>
	<path class="st0" d="M10.9,176.6c0-0.8-0.7-1.7-1.5-1.9c-0.9-0.2-1.6-0.7-1.7-1.1c-0.1-0.4-0.3-1.8-0.6-3.1
		c-0.2-0.9,0.1-1.6,0.6-2.1c-0.4-0.2-0.9-0.5-1.4-0.8c-1-0.7-1.5-0.8-1.2-0.3c0.3,0.5,0.1,1.2-0.4,1.6c-0.6,0.4-1,0.1-1.1-0.6
		c-0.1-1-0.2-0.9-0.4,0.2c-0.5,2.1,4.1,8,6.3,8.2c0.5,0,1.1,0.2,1.6,0.5C11,177,10.9,176.8,10.9,176.6z"/>
	<path class="st0" d="M228.1,289.2c0.3,0.2,0.7,0.4,1.2,0.5c-0.3-0.3-0.5-0.7-0.7-1.1c-0.1-0.3-0.2-0.5-0.3-0.7c0,0,0.1,0,0.1-0.1h0
		C227.6,288.4,227.5,288.7,228.1,289.2z"/>
	<path class="st0" d="M9.2,169.1C9.2,169.1,9.2,169.1,9.2,169.1C9.2,169.1,9.2,169.1,9.2,169.1z"/>
	<path class="st0" d="M14.6,176.5C14.6,176.5,14.6,176.5,14.6,176.5C14.6,176.5,14.6,176.5,14.6,176.5z"/>
	<path class="st0" d="M524.8,293.2c0.1,0,0.1,0,0.2,0c0,0,0,0,0,0c0,0,0,0,0,0C524.9,293.2,524.8,293.2,524.8,293.2z"/>
	<path class="st0" d="M14.3,176C14.3,176,14.3,176,14.3,176C14.3,176,14.3,176,14.3,176z"/>
	<path class="st0" d="M515.5,294.2c-0.1,0-0.2,0-0.3,0C515.3,294.2,515.4,294.2,515.5,294.2z"/>
	<path class="st0" d="M527.8,293.5C527.8,293.5,527.8,293.5,527.8,293.5c0,0.5-0.4,0.6-1.5,0.7c-1.8,0.2-3.3,0.1-4.1-0.2
		c-0.7,0-1.2,0.2-1.5,0.6c0,0-0.1,0.1-0.1,0.1c0.2,0.1,0.4,0.2,0.5,0.3l8.7,0.1c0-0.4-0.2-0.9-0.6-1.4c0,0-0.1-0.1-0.1-0.1
		c0,0,0,0,0,0C528.7,293.6,528.3,293.5,527.8,293.5z M529.2,295l-3.6,0c0.5-0.6,1.5-0.9,2.9-0.3C528.8,294.8,529,294.9,529.2,295z"
		/>
	<path class="st0" d="M526.5,293.4C526.5,293.4,526.5,293.4,526.5,293.4C526.5,293.4,526.5,293.4,526.5,293.4z"/>
	<path class="st0" d="M153.1,6.1c0.2-0.1,0.4-0.2,0.6-0.2c-1.1,0.1-2.4,0.3-3.7,0.4c0.1,0,0.2,0.1,0.3,0.2
		C150.8,6.8,152.1,6.7,153.1,6.1z"/>
	<path class="st0" d="M10.5,171.2c-0.1-0.3-0.3-0.6-0.5-0.8C10.2,170.7,10.3,171,10.5,171.2z"/>
	<path class="st0" d="M10.7,171.6c0-0.1-0.1-0.2-0.1-0.3C10.6,171.4,10.6,171.5,10.7,171.6z"/>
	<path class="st0" d="M9.9,170.2c0-0.1-0.1-0.1-0.1-0.2C9.9,170.1,9.9,170.2,9.9,170.2z"/>
	<path class="st0" d="M12.8,174.6c-0.1,0-0.3,0-0.4,0C12.5,174.6,12.6,174.7,12.8,174.6c0.5-0.1,1,0,1.5,0.2
		C13.8,174.7,13.3,174.6,12.8,174.6z"/>
	<path class="st0" d="M9,168.8C9,168.8,9,168.8,9,168.8C9,168.8,9,168.8,9,168.8z"/>
	<path class="st0" d="M14,176.2C14.1,176.2,14.1,176.2,14,176.2C14.1,176.2,14.1,176.2,14,176.2z"/>
	<path class="st0" d="M11.5,177.5C11.5,177.5,11.5,177.5,11.5,177.5C11.5,177.5,11.5,177.5,11.5,177.5z"/>
	<path class="st0" d="M14.2,176C14.2,176,14.2,176,14.2,176C14.2,176,14.2,176,14.2,176z"/>
	<path class="st0" d="M13.9,176.5C13.9,176.5,13.9,176.5,13.9,176.5C13.9,176.5,13.9,176.5,13.9,176.5z"/>
	<path class="st0" d="M11.5,173.9c-0.1-0.5-0.4-1.4-0.8-2.3c0.1,0.2,0.2,0.4,0.3,0.7c-0.2,0.1-0.5,0.2-0.9,0.1
		c-2.2-0.2-1.8,1.4,0.5,2c0.3,0.1,0.7,0,1.1-0.2c0.1,0.1,0.1,0.1,0.2,0.2C11.7,174.3,11.5,174.2,11.5,173.9z"/>
	<path class="st0" d="M514.7,289.9c0.4-0.1,0.8-0.1,1.2-0.3C515.5,289.8,515.1,289.9,514.7,289.9z"/>
	<path class="st0" d="M503.9,294.9c0.5-0.1,1.1-0.2,1.6-0.3c0.3,0,0.6,0,0.9,0.1c0.4,0.1,0.6,0.1,0.8,0.2l7.2,0l-4.8,0
		c0.1-1.6,0.3-1.9,1.6-3.5c0,0,0,0,0-0.1c0.1,0.1,0.1,0.3,0.2,0.5c-0.2-0.8-0.9-1.6-1.8-1.8c-1-0.3-0.3-0.3,1.7,0
		c1.1,0.2,2.1,0.2,3.1,0c-0.9,0.1-1.9,0.1-2.8,0c-0.2-0.2-0.6-0.4-1.2-0.6c-1.3-0.3-1.9,0.2-1.6,1.2c0.3,0.9-0.1,1.5-0.9,1.3
		c-0.7-0.2-1.5-1.1-1.8-2.1c-0.1-0.2-0.1-0.5-0.2-0.7l10.6,0l-13.2-0.1c-0.6,0.6-1.1,1.4-1.4,2.2c-1,2.4-5.6,4.6-5.6,2.6
		c0-0.5,0.8-1.8,1.7-2.9c0.8-0.9,1-1.5,0.8-1.9l-270.4-1.3l1.4,0c0.1,0.1,0.1,0.1,0.2,0.2c0.5,0.7,0.8,1.4,0.8,1.8
		c-0.3,0-0.5,0-0.8-0.1c1.2,0.2,2.6,0,3-0.5c0.6-0.7,2-0.8,2-0.1c0,0.8-4,1.8-6,1.4c-1.1-0.2-2.4-0.1-3.1,0.3
		c-0.7,0.4-1.2,0.5-1.2,0.1c0-0.3,0.7-0.8,1.6-1c1.6-0.4,1.6-0.4-0.4-2c-0.1-0.1-0.3-0.2-0.4-0.3l-2.6,0c0.2,0.3,0,0.3-0.9,0l-3.6,0
		c-1.3,1-4.2,1.2-3.7,0.1c0,0,0.1-0.1,0.1-0.1l-24.5-0.1l2.5,0c0.3,0.4,0.3,0.9,0.3,1.3c0.5,0.1,1.1,0.2,1.7,0.3
		c0.9-0.9,1.6-0.7,1.9,0.6c0,0,0,0,0,0c1.5,0.6,2,1.1,2,1.9c0,1.1-0.2,1.2-1.1,0.7c-0.2-0.1-0.7-0.4-1.4-0.6
		c0.2,0.1,0.5,0.2,0.7,0.3c0,0.3,0,0.5,0,0.7l3.9,0c0.5-1,1.6-2.1,2.1-2c1.3,0.3,1.5,1.6,0.2,1.5c-0.4,0-0.7,0.2-0.9,0.5l3.5,0
		l27,0.2l0.1,0c0.4-0.6,0.9-1,1.4-1c0.6-0.1,1.3,0.3,1.8,1.1l46.6,0.3c-1.1,0.4-1.5,0.8-0.9,0.8c0.6,0,1.1,0.5,1.1,1.2
		c0,0.7-0.4,0.9-1.1,0.6c-0.9-0.4-0.9-0.3-0.1,0.5c1.5,1.6,8.9,1,10.3-0.8c0.6-0.8,1.6-1.4,2.2-1.4c0.9,0,1.2-0.2,1-0.9l6.6,0
		c1,0.4,1.7,0.7,2,1c1,0.7,1.2,0.5,1.3-0.9c0,0,0,0,0-0.1l201.1,1.2L503.9,294.9z M241.5,291.4c-3.2-0.6-3.7-0.9-2.3-1.3
		c0.3-0.1,0.6-0.1,1-0.1c1,0,2.1,0.3,3.2,0.9C245.3,292,245.1,292.1,241.5,291.4z M257.4,289c-0.6,0.2-1.7-0.3-2.5-1l2.9,0
		C258.5,288.6,258.3,288.8,257.4,289z M273.1,291.7c-0.7,1.2-1.5,1.8-1.9,1.3c-0.4-0.4,0-1.6,0.8-2.5c0.7-0.8,1.3-1.3,1.6-1.3
		C274.2,289.1,274.1,290,273.1,291.7z M372.2,294.1c0-0.9-0.2-1.9-0.4-3c-0.2-1-0.3-1.8-0.3-2.6l2,0c0.2,0.7,0.7,1.3,1.3,1.4
		c0.8,0.2,1.9,1.8,2.5,3.6c0.1,0.2,0.1,0.4,0.2,0.6L372.2,294.1z M385.9,289.2c-0.5-0.1-0.9-0.3-1.4-0.6l4.4,0
		C388.1,289.3,387.2,289.4,385.9,289.2z M408.6,290.9c-1.2-0.7-3.6-1.3-5.3-1.2c-1.7,0.1-2.3-0.1-1.2-0.4c0.6-0.2,1-0.4,1.4-0.6
		l5.1,0c0.4,0.2,0.8,0.7,1.1,1.4C410.7,292,410.6,292.1,408.6,290.9z M423.8,292.2c-1.2,0.3-2.6-1.4-2.9-3.4l5.1,0
		C426.6,290.5,425.8,291.8,423.8,292.2z M429.6,294.4c0.1-0.3,0.4-0.7,0.9-1c0.2-0.2,0.5-0.3,0.8-0.4c-0.2-0.2-0.4-0.3-0.6-0.5
		c-2.8-2.1-3-3.4-1-3.3c0.5,0,1.1,0.1,1.8,0.2c2,0.4,3.4,1.6,4,3.2c0.1,0.2,0.1,0.4,0.2,0.6c0.5,0.3,0.9,0.8,0.8,1.3L429.6,294.4z
		 M442.6,294.5c-0.1-1.3,0.3-2.1,1.1-2.2c0.6,0,1.3,0.5,2.1,1.7c0.1,0.2,0.2,0.4,0.3,0.6L442.6,294.5z M490.9,294.6
		c-0.6-0.1-0.6-1.6,0.1-3.2c0.6-1.4,1-2,1.3-2c0.3,0,0.5,0.3,0.8,1C494.2,292.4,492.8,294.9,490.9,294.6z"/>
	<path class="st0" d="M189.3,290c0,0-0.1,0-0.1,0C189.2,290,189.3,290,189.3,290z"/>
	<path class="st0" d="M229.3,289.7c0.2,0.1,0.5,0.1,0.8,0.1C229.8,289.8,229.5,289.8,229.3,289.7z"/>
	<path class="st0" d="M196.3,292c-0.2-0.1-0.5-0.2-0.7-0.3C195.9,291.8,196.1,291.9,196.3,292z"/>
	<path class="st0" d="M188.8,292.6c0.1,0,0.2-0.1,0.2-0.1c-0.3,0.1-0.6,0.2-0.9,0.4l0.9,0C188.9,292.8,188.8,292.7,188.8,292.6z"/>
	<path class="st0" d="M190.7,288.9C190.7,288.9,190.7,288.9,190.7,288.9C190.7,288.9,190.7,288.9,190.7,288.9z"/>
	<path class="st0" d="M189.2,289.2C189.2,289.2,189.2,289.2,189.2,289.2C189.2,289.2,189.2,289.2,189.2,289.2z"/>
	<path class="st0" d="M511.6,291.9c0,0.2,0.1,0.3,0.1,0.5C511.6,292.2,511.6,292,511.6,291.9z"/>
	<path class="st0" d="M626.5,278.1c-0.7-0.2-1.4-0.4-2.1-0.7c0,0,0,0,0,0c-0.2,0.4-0.2,0.8-0.2,1.2c0.2,0.9-0.2,2.2-0.8,2.8
		c-0.6,0.6-0.8,1.6-0.5,2.3c0.9,1.7-0.8,2.3-2.3,0.8c-0.4-0.4-0.6-1.2-0.7-2.2c1-1.9,2-3.7,3.1-5.6c0,0,0,0,0,0
		c-2.4,4.3-4.7,8.7-7.1,13l-2.1,0c-0.5,0.2-1,0.5-1.7,0.7c-2.6,0.9-4.6,2.4-4.6,3.4c0,1.9-0.2,1.9-5.3,1.1c-4-0.6-6.6-2.2-3.6-2.2
		c1.5,0,2.2-0.9,2.2-3.1c0,0,0,0,0-0.1l-22-0.1c0.2,0.2,0.3,0.6,0.2,1c-0.1,0.8-0.3,2.4-0.5,3.6c-0.1,0.5,0,0.9,0.1,1.2l-3.3,0
		c0.2-0.1,0.5-0.2,0.8-0.2c1.1-0.1,1.2-0.4,0.3-1.5c0,0,0-0.1-0.1-0.1c0,0,0,0,0,0c-0.4,0.1-1,0.1-2,0.1c-2.7,0-3.4,0.4-2.9,1.7
		l15.2,0.1l-0.2-0.1l3.4-0.3c0.8-0.1,1.4-0.1,1.8-0.1c0.9,0,1.3,0.1,1.3,0.6l26.5,0.2l6.9-12.7c-0.4-0.8,0.1-2,1.1-2.7
		c0.4-0.3,0.6-0.5,0.8-0.7c0.1-0.1,0.1-0.2,0.2-0.3C628.5,278.7,627.9,278.5,626.5,278.1z"/>
	<path class="st0" d="M192.4,288.9C192.4,288.9,192.4,288.9,192.4,288.9C192.4,288.9,192.4,288.9,192.4,288.9z"/>
	<path class="st0" d="M623.6,277.1C623.6,277.1,623.6,277.1,623.6,277.1C623.6,277.1,623.6,277.1,623.6,277.1z"/>
	<path class="st0" d="M531.1,293.4C531.1,293.4,531,293.4,531.1,293.4C531,293.4,531.1,293.4,531.1,293.4z"/>
	<path class="st0" d="M576.5,293.4C576.5,293.4,576.5,293.4,576.5,293.4C576.5,293.4,576.5,293.4,576.5,293.4z"/>
	<path class="st0" d="M530.5,293.5c-0.1,0-0.1,0-0.2,0C530.4,293.5,530.5,293.5,530.5,293.5z"/>
	<path class="st0" d="M575.6,292.7c0.1,0,0.1,0.1,0.2,0.1c-0.6-1.3-0.3-2.7,0.7-3.3l-6,0c0,0.4-0.3,1.1-0.9,2
		c-1,1.4-1.4,1.5-2.1,0.4c-0.6-0.9-0.3-1.7,0.9-2.3c0,0,0,0,0.1,0l-12.9-0.1c-0.1,0.3-0.4,0.8-0.9,1.1c-0.9,0.8-1.6,2-1.4,2.7
		c0.2,0.9-0.6,1.1-3.1,0.4l-3.4-0.9l2.5-0.7c1.4-0.4,3.1-1.5,3.8-2.3c0.1-0.1,0.2-0.3,0.3-0.4l-5.4,0c-1,0.7-1.9,1.2-2.2,1.2
		c-0.3,0-0.1-0.5,0.3-1.2l-6.7,0c-0.1,0.4-0.6,0.9-1.6,1.4c-2.2,1.2-3.3,0.7-2.9-1.3c0,0,0-0.1,0-0.1l2.4,0l-2.6,0
		c-0.7,2.3-1.5,3.5-3.1,4c0,0,0,0,0,0c0.5,0.5,0.9,1.1,1.1,1.8l-1.2,0l5.3,0l22,0.1c0.4-0.4,1-0.8,1.8-0.8c0.5,0,1.1,0.3,1.7,0.8
		l7.3,0C569.8,293,572.9,291.6,575.6,292.7z M542.9,295.1c0.2-0.8,1-1.2,2-1.2c0.8,0,1.8,0.3,2.9,0.8c0.3,0.2,0.5,0.3,0.7,0.4
		L542.9,295.1z"/>
	<path class="st0" d="M529.9,293.5c-0.1,0-0.3,0-0.4,0C529.6,293.6,529.8,293.6,529.9,293.5z"/>
	<path class="st0" d="M194.6,291.4c-0.3-0.1-0.6-0.2-0.9-0.3C194,291.2,194.3,291.3,194.6,291.4z"/>
	<path class="st0" d="M189.9,290.1c-0.1,0-0.2,0-0.2,0C189.8,290.1,189.9,290.1,189.9,290.1z"/>
	<path class="st0" d="M189.7,290.1c-0.1,0-0.1,0-0.2,0C189.5,290,189.6,290.1,189.7,290.1z"/>
	<path class="st0" d="M190,290.1c0.1,0,0.2,0,0.3,0.1C190.2,290.2,190.1,290.2,190,290.1z"/>
	<path class="st0" d="M190.7,290.3c-0.1,0-0.2-0.1-0.3-0.1C190.4,290.2,190.6,290.3,190.7,290.3z"/>
	<path class="st0" d="M192.7,290.8c-0.1,0-0.2-0.1-0.3-0.1c-0.1,0.4-0.2,0.9-0.1,1.2c0.1,0.6,0.8,0.2,1.4-0.9
		C193.3,291,193,290.9,192.7,290.8z"/>
	<path class="st0" d="M191.7,290.6c-0.1,0-0.3-0.1-0.4-0.1C191.4,290.5,191.5,290.5,191.7,290.6z"/>
	<path class="st0" d="M191.1,290.4c-0.1,0-0.2-0.1-0.4-0.1C190.9,290.3,191,290.4,191.1,290.4z"/>
	<path class="st0" d="M191.8,290.6c0.2,0,0.3,0.1,0.5,0.1C192.2,290.7,192,290.6,191.8,290.6z"/>
	<path class="st0" d="M190.2,292.1c0,0.3-0.3,0.4-0.9,0.4c0,0,0,0,0,0c0,0,0,0,0,0C189.9,292.5,190.2,292.4,190.2,292.1z"/>
	<path class="st0" d="M189.1,290.3C189.1,290.3,189.1,290.3,189.1,290.3C189.1,290.3,189.1,290.3,189.1,290.3z"/>
	<path class="st0" d="M189.1,290.2C189.1,290.2,189.1,290.2,189.1,290.2C189.1,290.2,189.1,290.2,189.1,290.2z"/>
</g>
<g>
	<path class="st0" d="M144.9,3.2l-1.9,0c0.3,0.3,0.6,0.4,1,0.4C144.3,3.6,144.7,3.4,144.9,3.2z"/>
	<path class="st0" d="M121.1,6.3c1.3,0,3.6-0.6,5.2-1.4c1.9-0.9,2.2-1.3,1.4-1.3c-0.8,0-2.6,0.4-5.1,1.3
		C120.4,5.7,119.8,6.2,121.1,6.3z"/>
	<path class="st0" d="M420.8,23.2C420.8,23.2,420.8,23.2,420.8,23.2C420.8,23.2,420.8,23.2,420.8,23.2z"/>
	<path class="st0" d="M420.4,22.8C420.4,22.8,420.4,22.8,420.4,22.8C420.4,22.8,420.4,22.8,420.4,22.8z"/>
	<path class="st0" d="M420,22.4C420,22.4,420,22.4,420,22.4C420,22.4,420,22.4,420,22.4z"/>
	<path class="st0" d="M423.1,24.7c-0.6-0.4-1.2-0.8-1.7-1.2c0,0,0,0,0,0c-3.7,1.5-6.2,2.1-6,1.3c0.3-1.2,2.3-2.4,4.3-2.9
		c-0.1-0.2-0.3-0.3-0.3-0.5l-11.4-0.1c-0.4,0.2-0.8,0.3-1.3,0.2c-0.1,0-0.2-0.1-0.3-0.2l-54.8-0.3c0,1.2-1.1,1.2-3.1,0l-107-0.7
		l-1.2,0c0.1,0.4-0.1,0.4-0.6,0l-12.4-0.1c0.3-0.5-0.3-1-1.9-2.1c-1.3-0.9-2.5-1.3-3.4-1.2c-1.5,0-2.2,1.1-1.3,3
		c0,0.1,0.1,0.2,0.2,0.3l-4.8,0L94.9,19.6l-16.3,28l0,0.1l-1.4,2.4c1.5,0.1,5-0.8,4.8-1.4c-0.1-0.2,0.2-0.5,0.7-0.9
		c-0.2-1.2,0.9-1.7,2.2-1.1c0.2-0.1,0.4-0.2,0.7-0.2l13-22.4c109,0.7,218,1.3,327.1,2C424.9,25.8,424.1,25.4,423.1,24.7z
		 M127.5,19.8l2.4,0C129.8,20.7,128.7,20.8,127.5,19.8z M148.8,21c-0.2,1.8-1.9,3.3-3.5,3.5c-0.3,0-0.6,0-0.9,0
		c-0.3-0.1-0.6-0.2-0.8-0.3c-0.6-0.5-0.9-1.7-0.6-2.6c0.5-1.4,0.2-1.6-1.5-1.3c-1.5,0.3-2.5,0.1-3.2-0.4l8.1,0c0,0.3,0.3,0.3,0.9,0
		l1.3,0C148.9,20.2,148.9,20.6,148.8,21z M168.6,24.1c-0.1,0.2-0.2,0.4-0.3,0.5c-2.3,0-4.6,0-6.9,0c-0.5-0.4-0.9-0.9-1.2-1.4
		l-1.8-2.8l3.1,0.9c1.7,0.5,4.4,0.8,5.8,0.7l2.7-0.2L168.6,24.1z M169.1,21.4c-0.4-0.1-0.8-0.7-0.8-1.4l4.7,0
		C171.2,20.9,169.7,21.5,169.1,21.4z M176.1,24.7c-0.6,0-1.1,0-1.7,0c0.3-0.3,0.4-0.6,0.5-0.8c0.2-1.3,1.8-2.2,2.3-1.4
		C177.4,22.9,176.9,23.8,176.1,24.7z M194.5,21.7c-0.7,0.1-1.3-0.4-1.7-1.5l2.3,0C195.5,21,195.3,21.5,194.5,21.7z M250.3,25.2
		c-0.3-0.8-0.4-1.9-0.1-2.9c0.1-0.4,0.3-0.7,0.5-0.7c0.4,0,1,0.5,2,1.8c0.5,0.6,1.1,1.2,1.7,1.9C253.1,25.2,251.7,25.2,250.3,25.2z"
		/>
	<polygon class="st0" points="240.2,20.5 239.6,20.5 239.6,20.5 240.2,20.5 	"/>
	<polygon class="st0" points="351.5,21.2 348.5,21.1 348.5,21.1 351.5,21.2 	"/>
	<polygon class="st0" points="407.9,21.5 406.3,21.5 406.3,21.5 407.9,21.5 	"/>
	<path class="st0" d="M420.9,23.2c0.2,0.1,0.3,0.3,0.5,0.4C421.2,23.4,421,23.3,420.9,23.2z"/>
	<path class="st0" d="M420,22.4c-0.1-0.1-0.2-0.2-0.3-0.4c0,0,0,0,0,0C419.7,22.1,419.8,22.3,420,22.4z"/>
	<path class="st0" d="M420.4,22.8c0.1,0.1,0.3,0.3,0.5,0.4C420.7,23,420.5,22.9,420.4,22.8z"/>
	<path class="st0" d="M420,22.4c0.1,0.1,0.3,0.2,0.4,0.4C420.2,22.6,420.1,22.5,420,22.4z"/>
</g>
<g>
	<path class="st0" d="M512.9,26.8c7.6,0,15.2,0.1,22.7,0.2c0.1-0.6,0.4-1.2,0.8-1.7c0.8-1,2.8-2.2,4.4-2.7c0.2-0.1,0.3-0.1,0.4-0.2
		l-14.1-0.1l-5,0c-0.4,0.6-1.1,1-1.8,1c-0.9,0-1.5-0.3-1.4-0.7c0-0.1,0.2-0.2,0.3-0.4L467,21.9c-0.6,0.5-1.9,0.8-3,0.6
		c-0.3,0-0.6-0.1-0.8-0.2c0.2,0.1,0.5,0.2,0.8,0.2c0.1,0,0.3,0,0.4,0c0.6,0.5,0.3,0.7-0.8,1c-2.6,0.6-5.3,0-5.1-1.1
		c0-0.2,0.1-0.4,0.3-0.6l-10.7-0.1c0.4,0.9,0.5,2,0.3,3.1c-0.1,0.3-0.2,0.6-0.4,0.8c-0.1,0.2-0.2,0.3-0.4,0.5
		c-0.2,0.1-0.3,0.2-0.4,0.3c-1.4,0-2.8,0-4.3,0c-2.3-1.6-2.4-4-0.9-4.7l-5.7,0c0,0,0,0,0,0l0.2,0c0,0-0.1,0-0.1,0.1
		c0,0-0.1,0.1-0.1,0.1c0.8,0.3,1.3,0.8,1,1.2c-0.3,0.4-1.1,0.4-1.9,0.1c0.1,0,0.1,0,0.2,0c0.1,0,0.2-0.1,0.3-0.2
		c-0.1,0.1-0.2,0.1-0.3,0.2c-0.1,0-0.2,0-0.3,0v0c0,0,0,0,0,0c0,0-0.1,0-0.1,0c-0.2-0.1-0.3-0.1-0.5-0.2c-0.6-0.3-1-0.5-1.2-0.7
		c-0.3,0-0.7,0-1-0.1c-1.8-0.2-4.2,0.1-5.3,0.7c-1.7,1-1.9,1-1.8-0.4c0-0.4,0.1-0.7,0.1-0.9l9.8,0.1c0,0,0,0,0,0l-13.7-0.1
		c0.1,0.1,0.3,0.2,0.4,0.3c0,0,0,0,0,0c1.4,0.3,1.8,0.5,1.2,0.9c0.1,0.1,0.3,0.2,0.5,0.4c1.5,1.1,3.6,2.3,5.4,3.2
		c26.8,0.2,53.6,0.3,80.4,0.5c-0.8-0.4-1.5-0.8-1.9-1.2c-0.4-0.5-0.6-1.2-0.5-1.6C507.4,23.2,511.4,25.3,512.9,26.8z"/>
	<path class="st0" d="M435.2,21.8C435.2,21.8,435.2,21.8,435.2,21.8C435.2,21.8,435.2,21.8,435.2,21.8
		C435.2,21.8,435.2,21.8,435.2,21.8C435.2,21.8,435.2,21.8,435.2,21.8z"/>
	<path class="st0" d="M435,22.3C435,22.3,435,22.3,435,22.3C435,22.3,435,22.3,435,22.3z"/>
	<path class="st0" d="M444.2,21.9c0.4,0.2,0.9,0.4,1.2,0.6c0-0.2,0-0.5-0.1-0.8l-1.6,0C443.9,21.8,444.1,21.8,444.2,21.9z"/>
	<path class="st0" d="M435,22.7C435,22.7,435,22.7,435,22.7C435,22.7,435,22.7,435,22.7z"/>
	<path class="st0" d="M436.3,22.2c0,0.3-0.2,0.6-0.4,0.8C436.1,22.8,436.2,22.6,436.3,22.2z"/>
	<path class="st0" d="M463.2,22.2C463.2,22.2,463.1,22.2,463.2,22.2C463.1,22.2,463.2,22.2,463.2,22.2z"/>
	<path class="st0" d="M607.2,37.1C607.2,37.1,607.2,37.2,607.2,37.1C607.2,37.2,607.2,37.1,607.2,37.1z"/>
	<path class="st0" d="M610.4,37.4c-0.6,0.5-1.6,0.6-2.4,0.3C608.8,38,609.8,37.9,610.4,37.4c0.3-0.3,0.7-0.4,1.1-0.4
		C611.1,37,610.8,37.2,610.4,37.4z"/>
	<path class="st0" d="M613.1,37.6c0.1,0,0.2,0.1,0.2,0.1v0C613.3,37.7,613.2,37.6,613.1,37.6z"/>
	<path class="st0" d="M606,35.5c0.5-0.5,1.2-0.7,2.2-0.8c0.2,0,0.3,0,0.5,0c0.6,0,1.4,0.1,2.2,0.2c0.4,0.1,0.7,0.2,1.1,0.3
		l-7.1-12.6L549,22.4c-0.1,0.3-0.3,0.6-0.6,0.8c-0.6,0.3-1,0-1.3-0.8l-0.8,0c0.2,1.2,0.6,1.7,1.4,1.7c0.8,0,0.5,1-0.8,2.8
		c-0.1,0.1-0.1,0.2-0.2,0.2c0.9,0,1.7,0,2.6,0c-0.9-0.5-1.2-0.9-0.8-1.1c0.6-0.3,2.5,0,4.2,0.7c0.4,0.2,0.7,0.3,1,0.4l46.2,0.3
		c-1.1-0.9-2.2-2.7-2.9-4.7l4.6,0c-0.2,0.4-0.3,1-0.2,1.4c0.1,0.6,0.8,0.2,1.4-0.9c0.1-0.2,0.2-0.4,0.3-0.5l1.6,0l1.4,2.5
		c-0.1,2.4-0.4,2.4-1.8,1.5c-1-0.7-1.6-0.5-2.1,0.6c-0.2,0.3-0.4,0.5-0.6,0.6c1.7,3.1,3.4,6.1,5.1,9.2l0,0
		C606.6,36.5,606.3,36,606,35.5z M565.4,23c-0.7,2.2-4.3,4.3-4.4,2.6c-0.1-0.6,1-1.9,2.5-2.8c0.2-0.1,0.4-0.2,0.6-0.4l1.6,0
		C565.5,22.6,565.5,22.8,565.4,23z M576.5,22.6c-0.6,1-1.1,1.4-1.3,0.9c-0.1-0.2,0-0.6,0.2-1L576.5,22.6
		C576.6,22.6,576.5,22.6,576.5,22.6z M607.1,26.7l2.4,4.2c-1.3,0.2-2.2-0.2-2.4-1.1c-0.1-0.7-0.1-1.3,0.2-1.6
		C607,27.5,607,27,607.1,26.7z"/>
</g>
<g>
	<path class="st0" d="M610.6,41.2c0.4,0,0.8,0,1.3,0.1C611.5,41.2,611,41.2,610.6,41.2z"/>
	<path class="st0" d="M609.7,41.2c-0.2,0-0.3,0-0.5,0c0,0,0,0,0,0C609.4,41.3,609.6,41.3,609.7,41.2z"/>
	<path class="st0" d="M616.3,46.4C616.4,46.4,616.4,46.4,616.3,46.4C616.4,46.4,616.4,46.4,616.3,46.4z"/>
	<path class="st0" d="M616.7,46.1C616.7,46.1,616.8,46.1,616.7,46.1C616.8,46.1,616.7,46.1,616.7,46.1z"/>
	<path class="st0" d="M616,46.8c-0.2,0-0.4,0-0.7-0.1c-1.1-0.2-2-0.8-1.9-1.3c0.1-0.3,0.5-0.5,1.1-0.5c0.4,0,0.8,0,1.2,0.1
		c0.9,0.2,1.6,0.6,1.8,0.9l0,0c0.3,0.1,0.5,0.2,0.9,0.6l-2.5-4.5c-1.1-0.3-2.6-0.6-3.9-0.8c0,0.2,0,0.4,0,0.6c0,2.1-0.2,2.5-1.1,2
		c-0.4-0.7-0.7-1.3-1.1-2c0.4,0.8,0.9,1.6,1.3,2.4c0.4,0.4,0.6,0.8,0.6,1.1c0.4,0.7,0.8,1.3,1.1,2C613.9,47.9,615.2,47.6,616,46.8
		C615.9,46.8,615.9,46.8,616,46.8C616,46.8,616,46.8,616,46.8z M612.9,47.5c-0.2-0.8-0.2-1.2-0.1-1.3c0.1-0.1,0.4,0.5,0.9,1.5
		C613.4,47.6,613.1,47.6,612.9,47.5z"/>
</g>
<g>
	<path class="st0" d="M616.9,53c0.4,0,0.9,0.2,1.3,0.5c0.2,0.2,0.5,0.3,0.8,0.5c-0.3-0.2-0.5-0.4-0.8-0.5
		C617.9,53.3,617.4,53.1,616.9,53C616.9,53,616.9,53,616.9,53C616.9,53,616.9,53,616.9,53z"/>
	<path class="st0" d="M622.7,54.4c0,0.1,0.1,0.3,0.1,0.4c0,0,0.1,0,0.1,0l1.6,2.9c0,0.7,0,1.5,0.1,2c0.2,1.4-1.7-1.7-2.3-3.6
		c0,0,0,0,0,0c-0.3,0-0.8-0.2-1.3-0.6c-0.5-0.3-1.2-0.8-1.9-1.3c-0.2,1.1-1.7,1-2.4-0.6c-0.1-0.2-0.1-0.3-0.1-0.4c0,0,0,0,0,0
		c-0.2,0-0.4,0.1-0.5,0.2c1,1.7,1.9,3.4,2.9,5.2c0-0.1-0.1-0.2-0.1-0.3c0.7,0.3,1.2,0.6,1.5,1c0.3,0.4,0.4,0.8,0.5,1.2
		c0.2,0.1,0.4,0.2,0.6,0.3c2.4,1.2,4.6,1.8,5.4,1.4c0.1,0,0.1,0,0.2-0.1L622.7,54.4z"/>
</g>
<g>
	<path class="st0" d="M69.3,73.3C69.3,73.3,69.3,73.3,69.3,73.3C69.3,73.3,69.3,73.3,69.3,73.3z"/>
	<path class="st0" d="M68.7,73.5C68.7,73.4,68.7,73.4,68.7,73.5C68.7,73.4,68.7,73.4,68.7,73.5z"/>
	<path class="st0" d="M68.7,72.3c-0.2,0-0.4-0.1-0.6-0.1C68.3,72.2,68.5,72.2,68.7,72.3z"/>
	<path class="st0" d="M69.8,73.1C69.8,73.1,69.9,73.1,69.8,73.1C69.9,73.1,69.8,73.1,69.8,73.1z"/>
	<path class="st0" d="M69.3,72.4c-0.2,0-0.4-0.1-0.5-0.1C68.9,72.3,69.1,72.4,69.3,72.4z"/>
	<path class="st0" d="M70.5,72.6C70.5,72.6,70.5,72.5,70.5,72.6c-0.1,0-0.2,0-0.2,0C70.3,72.5,70.4,72.5,70.5,72.6
		C70.5,72.5,70.5,72.6,70.5,72.6z"/>
	<path class="st0" d="M46.5,103.1c0.3-0.1,0.6-0.2,0.9-0.3c1.4-0.4,2.3-0.6,2.9-0.7c0.9-0.1,0.9,0.4,0.5,1.6c-0.3,1-0.2,1.5,0.7,1.8
		c-0.1,0.1-0.2,0.3-0.2,0.4c4.1-7,8.1-14,12.2-21l3.8-6.5c0.2-0.6,0.5-1.1,0.9-1.6l0.1-0.1l2.3-3.9c0,0,0,0,0,0L68.5,76
		c-0.1-0.1-0.2-0.2-0.2-0.3c-0.2-0.3-0.3-1.2-0.2-2.1c0,0,0,0,0,0c-0.6,0.1-1.3,0.3-1.8,0.3c-0.7,0-1-0.4-0.6-1.1
		c0.3-0.6,1.3-0.9,2.1-0.7c0.1,0,0.2,0.1,0.3,0.1c0-1.1-0.4-1.4-1.4-1.4c-1.1,0-0.5-0.6,1.7-1.7c1.1-0.6,2-0.9,2.4-0.9
		c0.2,0,0.3,0.1,0.1,0.3c-0.4,0.6-0.5,2.1-0.3,3.4c0,0.2,0,0.3,0.1,0.5l2.5-4.3c-0.1-0.7-0.6-1.4-1.3-1.6c-0.7-0.2-0.2-0.2,1.1,0
		c0.3,0.1,0.7,0.1,1,0.1l8-13.8c-0.1-0.1-0.2-0.3-0.4-0.6c-0.4-0.7-1.1-1-1.7-0.9c-0.6,0.1-1.2,0.5-1.2,1.3c0,0.5-0.5,0.7-1.2,0.4
		c-0.1,0-0.2-0.1-0.3-0.1c-0.2,0.1-0.4,0.2-0.5,0.2c-0.2,0-0.4-0.3-0.4-0.6c-0.2-0.1-0.3-0.1-0.5-0.2l-1,1.7
		c0.2,0.1,0.4,0.3,0.4,0.5c0,0.4-0.5,0.8-1,0.8c0,0-0.1,0-0.1,0l-5.6,9.7c0.1,0.1,0,0.1-0.1,0.2c0,0,0,0,0,0l-8.1,14
		c0.6,0,1.2,0.1,1.6,0.2c1.3,0.4,0.7,0.6-2.1,0.6L46.5,103.1z M53,100.3c-0.8,0.4-1.6,0.4-1.8,0c-0.7-1.3-0.5-3.7,0.3-4.1
		c0.1,0,0.1-0.1,0.2-0.1c0.5,0,1.2,0.6,1.6,1.5C54,98.9,53.9,99.9,53,100.3z M57,95.9c0-0.2-0.1-0.4-0.1-0.6c-0.2-2.3,0.9-5,1.8-5
		c0.2,0,0.4,0.2,0.6,0.7c0.1,0.2,0.1,0.4,0.2,0.6C58.7,93,57.9,94.4,57,95.9z"/>
	<path class="st0" d="M174,275.4c0,0.1-0.1,0.2-0.1,0.3C173.9,275.6,174,275.5,174,275.4c0-0.2,0.1-0.4,0.2-0.6
		C174.1,275,174,275.2,174,275.4z"/>
	<path class="st0" d="M186.1,274.1c-0.3-0.9-0.3-1.7,0-2.5l-1.9,0c0,0-0.1,0-0.1,0.1c-0.4,0.2-0.7,0.1-0.8-0.1l-0.2,0
		c0.4,0.3,0.7,0.6,0.7,0.9c0,0.8,0,0.8-1.3-0.6c-0.1-0.1-0.2-0.2-0.3-0.3l-0.2,0c0.2,0.2,0,0.6-0.7,1c-0.5,0.3-1.4,0.9-2,1.3
		c-0.6,0.4-0.8,1.1-0.4,1.5c0.1,0.1,0,0.4-0.4,0.7l-3,0c0,0,0,0,0,0l7.5,0c0.2-0.3,1.2-0.4,2.1-0.2
		C186.8,276.3,186.8,276.2,186.1,274.1z"/>
	<path class="st0" d="M175.6,275.4c0-0.6-0.1-1.1-0.4-1.3C175.5,274.4,175.7,274.9,175.6,275.4z"/>
	<path class="st0" d="M38.7,171.8c0.9,0,1.7-0.1,2.4-0.3c-4.5-8.1-8.9-16.2-13.3-24.3c6.4-11.7,13-23.3,19.7-34.9
		c-0.1,0.2-0.2,0.4-0.3,0.6c-0.6,0.3-1.3,0.5-1.9,0.6c-0.9,0.2-1.3-0.5-1.4-2.6c-0.1-2.8,1.3-4.4,3.2-3.5c0.5,0.3,1.4,0.2,2-0.1
		c0.6-0.3,0-0.8-1.2-1.1c-1.2-0.3-2-0.7-2.5-1.1l-24.4,42.1l14.5,25.6C36,172.3,37.1,171.9,38.7,171.8z"/>
	<path class="st0" d="M69.9,72.5c-0.1,0-0.3,0-0.4-0.1C69.6,72.4,69.8,72.5,69.9,72.5z"/>
	<path class="st0" d="M173.7,276.1l-0.7,0c0.5-0.6,0.4-1.5-0.3-2.2c-1.5-1.5-1.2-1.7,4.1-2.4l-7.2,0c-0.1,0.2-0.4,0.5-0.7,0.7
		c-0.8,0.4-1.8,2.5-2,4l-3.3,0c0-0.2-0.1-0.5-0.3-0.7c-0.8-0.9-0.2-1.5,2.6-3c0.6-0.3,1.2-0.6,1.8-0.9l-7,0c0,0.2,0,0.4,0.1,0.6
		c0.2,0.3,0.2,0.8,0,1.1c-0.3,0.4-0.6,0.2-0.9-0.5c-0.5-1.1-2.2-0.8-2.2,0.3c0,0.4-0.4,0.5-0.9,0.3c0,0-0.2-0.1-0.2-0.1
		c-0.2,0.1-0.3,0.2-0.4,0.2c-0.2,0-0.3-0.2-0.4-0.5c-0.6-0.2-1.2-0.4-1.9-0.7c-0.7-0.2-1.2-0.5-1.5-0.9l-6.2,0l5.7,0
		c-0.4,0.6-0.6,1.2-0.4,1.5c0.4,0.7,0,1.3-1,1.4c-0.6,0.1-1.4,0.7-2.1,1.6l-8.9-0.1c0.1-0.1,0.2-0.1,0.3-0.2
		c0.9-0.5,1.8-1.3,1.9-1.8c0.1-0.4,1.1-1.5,2.5-2.5l-3,0c0.5,0.8,0.3,0.9-0.2,0.9c-0.2,0-0.6-0.4-1-0.9l-1.5,0c0,0.5-0.1,1-0.3,1.4
		c-0.3,0.4-1-0.1-1.5-1.1c-0.1-0.1-0.1-0.2-0.1-0.3l-4.9,0c-0.8,0.6-1.2,1.6-1.1,2.4c0.1,0.7,0,1.6-0.4,2.2l-3.9,0
		c0-0.5,0.1-1,0.2-1.6c0.2-0.9,0.3-1.9,0.3-3l-29.8-0.1c-16.7-29.8-33.7-59.5-50.3-89.3c-2.5-0.7-5.4-2.4-6-3.9
		c-0.6-1.3-1.9-2.4-3.1-2.5c-0.4,0-0.7-0.1-1-0.2l11.3,20.1c0.7,0.2,1.4,0.4,2.1,0.5c5.6,1,8.3,7,3.7,7.9c-0.3,0.1-0.7,0.1-1,0.1
		l10.5,18.6c1-1,3-2.1,4.7-2.7c0.7,1.2,1.3,2.3,2,3.5c-0.6,0.4-1.4,0.8-2.3,1c-1.3,0.3-2.3,0.6-3,0.7l13.3,23.6
		c0.6-1,1.1-1.5,1.7-1.6c0.7-0.1,1.5,0.6,2.5,2.1c1.2,1.6,1.1,2.2-0.1,1.8c-0.9-0.3-2.3-0.6-3.2-0.6l14.3,25.4l75.1,0.5
		c0,0,0,0,0-0.1c0.3-0.2,0.7-0.2,1.2,0.1L173.7,276.1c0-0.1,0.1-0.2,0.1-0.3C173.8,275.9,173.8,276,173.7,276.1z"/>
</g>
<g>
	<path class="st0" d="M627.2,68.2c0,0,0-0.1,0-0.1C627.2,68.2,627.2,68.2,627.2,68.2z"/>
	<path class="st0" d="M627.1,68.1c0-0.1-0.1-0.1-0.2-0.2C627,67.9,627.1,68,627.1,68.1z"/>
	<path class="st0" d="M604.3,271.5C604.3,271.4,604.3,271.4,604.3,271.5C604.3,271.4,604.3,271.4,604.3,271.5z"/>
	<path class="st0" d="M604.7,270.6c0,0.2-0.1,0.3-0.2,0.5c0.1,0,0.2,0,0.3-0.1c0.1,0,0.2,0,0.3,0c0.8,0,1.6,0.5,1.9,1.3
		c0,0,0,0,0,0.1l1-1.7c0,0,0,0-0.1,0C605.7,269.4,605,269.3,604.7,270.6z"/>
	<path class="st0" d="M617.4,252c-0.1-1.2,0.8-2.2,1.5-2.2c0.3,0,0.7,0.1,0.9,0.5l1.7-3c-1-2.7-0.6-5.4,1.1-5.8c0.1,0,0.3,0,0.4,0
		c0.5,0,1,0.3,1.5,0.8l2.4-4.1c-0.2-0.1-0.4-0.3-0.5-0.5c-0.2-0.3,0.4-0.7,1.3-1l35.3-60.8c-0.4-0.4-0.7-1.2-0.8-2.4
		c-0.1-2.1-0.4-2.4-1.4-1.7c-1.3,1-1.9,0.3-0.8-1c0.3-0.3,1-0.6,1.6-0.6c0.2,0,0.5,0,0.7,0c1,0.2,1.8,1.5,2.2,2.9l12.7-21.9
		l-21-37.2c-1-0.3-1.6-0.8-1.5-1.1c0.1-0.3,0.3-0.5,0.6-0.6l-5.7-10c-0.1,0-0.3,0-0.5,0c-2-0.2-2.6-0.9-2.4-2.7
		c0.1-0.7,0.3-1.1,0.6-1.4l-6.2-11c-0.4,0.5-1,0.8-1.8,0.6c-0.5-0.1-1.2-0.7-1.4-1.3c-0.5-1.1,0.6-2,1.7-1.9c0,0,0,0,0.1,0l1.1,2
		l-12.5-22.2c-0.1,0.1-0.1,0.2-0.2,0.2c-1.7,1.4-2.1,2.3-1.4,3.1c0.8,0.1,1.6,0.5,1.7,1.4c0.3,1.4,0.1,1.5-0.9,0.7
		c-0.6-0.5-1.1-0.8-1.5-0.8c0,0,0,0,0,0c-0.3,0.1-0.7,0.1-1.2,0.2c0,0,0,0,0,0c0.2,0,0.5,0,0.7-0.1c-0.2,0.1-0.3,0.4-0.3,0.7
		c15.3,27.2,30.5,54.3,45.8,81.5c-0.2,0.4-0.5,0.8-0.7,1.2c0.1,1.3-0.4,1.9-1.1,1.9c-3.6,6.1-7.1,12.3-10.7,18.4
		c0,0.3-0.1,0.7-0.1,1.1c-0.6,4.3-1.5,5.9-2.2,3.7c0-0.1-0.1-0.3-0.2-0.5c-18.3,31.5-36.7,63.1-55,94.6l0,0c0.2-0.4,0.5-0.8,0.7-1.2
		c0.1,0,0.1,0,0.2,0.1c0.7,0.8,0.5,1.5-0.1,1.7c0,0,0,0,0,0c0.6,0.5,1.3,1,2.1,1.8c0.6,0.5,1,0.9,1.4,1.3l1-1.8
		c-0.3-0.1-0.5-0.3-0.9-0.5c-0.9-0.5-1.5-0.9-1.7-1.2c-0.5,0.1-0.9-0.4-0.9-1.3c0-0.6,0.9-1.6,2-2.3c1.1-0.6,3-0.5,4.7-0.2l9.1-15.7
		C617.9,252.7,617.4,252.5,617.4,252z M631.4,70.6c0-0.3,0-0.6-0.1-0.9l3.8,6.8C632.2,76.2,631.7,75,631.4,70.6z M670.8,149.1
		c-0.2,0.2-0.4,0.5-0.5,0.9c-3-5.4-6-10.7-9-16.1c0.2-0.1,0.5-0.2,0.7-0.2c1,0,2.1,1,2.5,3.1c0.2,1,0.8,2.1,1.2,2.3
		c0.5,0.2,1.5,2.2,2.2,4.4c0.8,2.2,1.9,4.2,2.6,4.4C671.5,148.2,671.5,148.4,670.8,149.1z M665,162.2c0.5-1.1,1.4-2,2-2.1
		c0.1,0,0.1,0,0.2,0c0.3,0,0.2,0.5-0.3,1.1c-0.8,0.9-0.8,2.1-0.1,4c1,2.6,0.9,2.7-0.7,1.3C663.9,164.8,663.8,164.6,665,162.2z
		 M627.2,229c2.5,0.2,3.8,2.2,1.7,2.6c-1,0.2-2.2-0.3-2.6-1.2C625.9,229.6,626.3,228.9,627.2,229z M616.6,246.1
		c-0.2-0.9,0.5-2.1,1.9-2.9c0.8-0.5,1.3-0.7,1.4-0.7c0.1,0,0.1,0.1-0.1,0.3c-0.5,0.6-0.7,1.5-0.4,2.1c0.3,0.6-0.1,1.4-0.9,1.9
		C617.6,247.2,616.8,247,616.6,246.1z"/>
	<path class="st0" d="M626.8,68.6c-0.1,0-0.1,0-0.2,0.1C626.7,68.7,626.8,68.7,626.8,68.6z"/>
	<path class="st0" d="M626.5,68.8c-0.1,0-0.2,0-0.3,0.1C626.3,68.8,626.4,68.8,626.5,68.8z"/>
	<path class="st0" d="M627.1,68.4c0,0,0-0.1,0.1-0.1C627.2,68.3,627.2,68.4,627.1,68.4z"/>
	<path class="st0" d="M627.1,68.5c0,0-0.1,0.1-0.2,0.1C627,68.6,627.1,68.5,627.1,68.5z"/>
</g>
<path class="st0" d="M657.3,81.3l0.8-3.6l2.4,3.5c0.5,0.7,1.2,1.6,1.9,2.4L653,65.9c-0.8-0.1-1.6-0.1-2.5-0.1c-0.3,0-0.7,0.1-1,0.1
	c-1.4,0.1-2.4,0.3-2.9,0.5c0.2,0.3,0.3,0.6,0.5,0.9c0.4,0.2,0.9,0.3,1.6,0.5c0.6,0.1,0.2,0.7-0.7,1.3c4.1,7.7,8.2,15.4,12.2,23.1
	c1.9,0.2,1.6-0.3-0.9-3.5C657.5,86.2,656.8,83.6,657.3,81.3z M655,70.3c-1-1.2-1.3-1.9-1.1-2.5l1.7,3.1
	C655.4,70.7,655.2,70.5,655,70.3z"/>
<g>
	<path class="st0" d="M44.5,73.8c-0.6,0-0.8,0.3-0.5,0.7c0.4,0.4,0.9,0.7,1.1,0.7c0.2,0,0.5-0.3,0.5-0.7
		C45.6,74.1,45.1,73.8,44.5,73.8z"/>
	<path class="st0" d="M63.5,76c-0.9,0-1.6,0.5-1.6,1.1c0,0.6,0.6,1.1,1.2,0.9C65,77.6,65.3,76.1,63.5,76z"/>
	<path class="st0" d="M39.5,78.1c-0.9,0-2.1,1.7-2.2,2.9c0,0.4,0.7,0.7,1.5,0.7c1,0,1.5-0.7,1.5-1.8C40.5,78.9,40,78.1,39.5,78.1z"
		/>
	<path class="st0" d="M668.3,94.8l-2.8-5.4l-0.5,0.1c-2.9,0.3-3.4,0.7-2.3,2.1C663.6,92.9,666.1,94.2,668.3,94.8z"/>
	<path class="st0" d="M645.9,227.1c0.1,0.1,0.2,0.1,0.3,0.2c0,0,0,0,0,0c0,0,0,0,0,0c-1-0.7-1.5-0.8-1.2-0.3c0,0,0,0.1,0.1,0.2
		c0.2-0.1,0.4-0.1,0.6-0.1C645.7,227.1,645.8,227.1,645.9,227.1z"/>
	<path class="st0" d="M671.9,191c0.1-0.1,0.1-0.1,0.2-0.1c0.7-0.1,1.9,1.2,3,2.7l23.1-42.3l-16.2-30.5c-0.7-0.5-1.1-1.1-1.1-2
		l-2.6-4.9c0,0.2,0,0.5-0.1,0.7c-0.3,1.3-1,2-2,1.8c-0.9-0.2-1.5-0.7-1.4-1.1c0.3-1.3,1.7-2.9,2.6-3l-8.5-16c-2-0.4-4.1-1-5.5-1.7
		c-0.8-0.4-1.7-0.8-2.7-1c3.9,7.4,7.8,14.8,11.7,22.2c0.8,0.5,1,0.8,0.6,1.2c1.7,3.2,3.4,6.4,5.1,9.6c2.9,0.2,4.7,0.9,2.8,1.3
		c-0.5,0.1-0.8,1.1-0.6,2.2c0.1,0.4,0.1,0.7,0.1,1.1c3.6,6.8,7.1,13.5,10.7,20.3c-14.1,25.8-28.2,51.6-42.4,77.5
		c-0.3-0.4-0.6-0.7-0.7-0.6c-0.1,0.1-0.4,0-0.8-0.1c0,0,0,0,0,0c0.1,0.1,0.1,0.3,0.1,0.4c0.1,0.8-0.5,0.9-1.8,0.5
		c-0.5-0.2-0.9-0.4-1.2-0.6c0,0,0,0,0,0c0,0-0.1,0.1-0.1,0.1c-0.6,0.4-1,0.2-1.1-0.6c-0.1-1-0.2-0.9-0.5,0.2c-0.3,1.3,1.3,4.1,3.1,6
		c-6.8,12.5-13.7,25.1-20.6,37.6c0.2,0.2,0.5,0.4,0.8,0.6c0.4,0.2,0.7,0.4,0.9,0.6c-0.1,0-0.2,0-0.3,0c-0.7-0.2-1.3-0.3-1.9-0.3
		c0,0,0,0,0,0c0.6,0,1.3,0.1,1.9,0.3c0.2,0,0.3,0,0.5,0c1.5,0,3.2-0.3,3.6-0.8c0.2-0.1,0.7-0.3,1.3-0.5l18.9-34.7
		c0.1,0.1,0.2,0.2,0.3,0.4c0.7,1.1,1.1,0.9,1.9-1c0.6-1.4,0.7-1.3,1.9,3c0.7,2.5,1.3,5.2,1.3,6.1c0,1.2,0.2,1.4,1.4,0.6
		c1.1-0.7,1.2-1.8,0.4-4.9c-1-4.1-3.5-7.1-5.8-7l20.4-37.4C672.1,194.8,671.1,191.7,671.9,191z M679.6,173.1
		c1.9,1.1,1.8,1.4,0.8,3.6c-0.9,2-2.7,3.1-4.4,2.9C677.2,177.5,678.4,175.3,679.6,173.1z M674.6,182.3c0.1,0.2,0.2,0.3,0.4,0.5
		c2.5,3.2,2.5,3.3,1,3.7c-0.9,0.2-2-0.3-3-1.2C673.5,184.3,674,183.3,674.6,182.3z M636.8,258.4c-0.8,0.6-1.6,0.7-1.8,0.3
		c-0.5-0.9,1-4.6,2.2-5.2c0.1,0,0.2-0.1,0.3-0.1C638.5,253.3,638.2,257.3,636.8,258.4z"/>
	<path class="st0" d="M647,227.8C647,227.8,647,227.8,647,227.8C647,227.8,647,227.8,647,227.8z"/>
	<polygon class="st0" points="673.4,196.9 673.4,196.9 675.1,193.6 675.1,193.6 	"/>
	<path class="st0" d="M678.4,126.5c0.8,1.5,1.6,3,2.4,4.6c0,0,0,0,0,0C680,129.6,679.2,128,678.4,126.5
		C678.4,126.5,678.4,126.5,678.4,126.5z"/>
	<path class="st0" d="M672.7,115.8c0.2,0.4,0.4,0.8,0.6,1.2c0,0,0,0,0,0C673.1,116.5,672.9,116.2,672.7,115.8
		C672.7,115.8,672.7,115.8,672.7,115.8z"/>
	<polygon class="st0" points="682.1,120.8 681,118.8 681,118.8 682.1,120.8 	"/>
	<polygon class="st0" points="678.4,113.9 677.6,112.3 677.6,112.3 678.4,113.9 	"/>
	<path class="st0" d="M646.2,227.3c0.3,0.2,0.5,0.3,0.8,0.5C646.7,227.6,646.5,227.5,646.2,227.3z"/>
	<path class="st0" d="M647,227.8c0.2,0.1,0.5,0.2,0.7,0.3C647.4,228,647.2,227.9,647,227.8z"/>
	<path class="st0" d="M645.1,227.1C645.1,227.1,645.1,227.1,645.1,227.1c0.2,0.5,0.1,1-0.3,1.3C645.1,228.1,645.2,227.6,645.1,227.1
		z"/>
	<path class="st0" d="M625.6,271.8c-0.2,0.3-0.4,0.7-0.5,1c0,0,0,0,0,0C625.3,272.5,625.5,272.2,625.6,271.8
		C625.6,271.8,625.6,271.8,625.6,271.8z"/>
</g>
<g>
	<path class="st0" d="M221.8,275.8c0-0.1,0-0.2,0.1-0.2C221.8,275.7,221.8,275.7,221.8,275.8z"/>
	<path class="st0" d="M222.6,275.1c-0.2,0.1-0.3,0.1-0.4,0.2C222.3,275.2,222.4,275.1,222.6,275.1z"/>
	<path class="st0" d="M221.9,275.5c0.1-0.1,0.1-0.1,0.2-0.2C222,275.4,222,275.4,221.9,275.5z"/>
	<path class="st0" d="M238.3,276.5c0.2-1.3,0.2-1.9-0.2-1.5c-0.6,0.7-1.5-0.6-2.3-3.2l1.6,0c-0.2,0.3-0.4,0.6-0.4,1
		c0-0.3,0.1-0.7,0.4-1l-14-0.1c0.4,0.3,1,0.4,1.7,0.4c2.6,0,1.8,2.1-0.9,2.5c-0.6,0.1-1.1,0.2-1.5,0.4c0.2-0.1,0.3-0.1,0.5-0.2
		c-0.1,0.2-0.2,0.4-0.4,0.7c-0.2,0.3-0.6,0.5-1,0.5c0,0,0-0.1,0-0.2c0,0.3-0.3,0.5-0.7,0.5l10,0.1c-0.4-0.4-0.6-0.8-0.6-1
		c0-0.4,0.3-0.3,0.7,0.2c0.5,0.6,1.4,0.9,2.9,0.7c1.5-0.2,2-0.2,1.5,0.2L238.3,276.5z"/>
	<path class="st0" d="M571.2,277.6c0.1,0,0.1,0,0.2,0C571.3,277.6,571.3,277.6,571.2,277.6c-0.2,0-0.4,0-0.6,0
		C570.8,277.6,571,277.6,571.2,277.6z"/>
	<path class="st0" d="M572.2,277.6c0.4,0,0.7,0.1,1.1,0.2c-0.2,0.3-0.5,0.6-0.8,0.8l-3.1,0c0.1-0.3,0.4-0.6,0.7-0.9c0,0,0,0,0,0
		c-1.1,0-1.5-0.2-1.1-0.6c0.4-0.4,1.7-0.6,3.2-0.5c0,0,0,0,0,0c0.3-0.1,0.5-0.1,0.8-0.1c0.3,0,0.5,0.1,0.6,0.2c0,0,0,0,0,0
		c-0.2,0-0.3-0.1-0.5-0.1c0,0,0,0,0,0c0,0,0,0,0,0c3.2,0.5,3.2,0.4,1.9-3c0-0.1,0-0.1,0-0.2l-328.9-1.5c-0.1,0.6-0.3,1.1-0.9,1.5
		c-1.8,1.3,0,1.4,2.8,0.2c2.7-1.2,2.8-1.2,2.8-0.1c0,0.6-1,1.6-2.3,2.3c-2,1.1-2.4,1.1-3.3,0.3c-0.6-0.5-1.6-0.7-2.4-0.6
		c-0.8,0.1-1.5-0.1-1.5-0.5c0-0.3-0.3-0.7-0.8-1.1l-0.9,0.8l2.5,2l67.4,0.4c-0.1-0.7-0.1-1.4,0.2-1.9c0.2-0.4,0.7-0.9,1-0.9
		c0.5-0.1,0.7,1.4,0.6,2.8l31.8,0.2c-0.7-0.1-1.7-0.5-3.1-1.1c-2.1-0.9-3.8-2.5-4.5-3.8l12.3,0.1c0,0.7-0.4,1.5-1,2.3
		c-1.2,1.5-1.8,2.3-2.7,2.5l65.6,0.4c-0.5-0.9-1.5-1.6-2.4-1.7c-1.1-0.1-1-0.4,0.2-0.7c1-0.2,1.7-1.3,1.8-2.5l2.8,0
		c2.1,2.2,2.2,3.4,0.2,3.2c-2.1-0.2-2.2,0.7-0.4,1.7l21.7,0.1c1.3-0.7,1.9-0.7,2.9,0L479,278c0.8-2.1,2.5-4.2,3.7-4
		c0.2,0,0.5,0.1,1,0.1c1.2-0.4,2.1-0.6,2.8-0.6c0.1,0,0.2,0,0.3,0c0.9,0,1,0.5,0.2,1.4c0,0,0,0,0,0c-0.1,0.5-0.3,1.1-0.6,2
		c-0.1,0.4-0.2,0.8-0.3,1.1l14.5,0.1c0,0,0.1,0,0.1,0c0,0,0,0,0,0c0-0.4,0.3-0.8,0.6-1.2c0.5-0.4,0.8-0.6,1-0.6
		c0.3,0,0.5,0.4,0.6,1.2c0.1,0.2,0.1,0.4,0.1,0.6l-2.1,0c0,0-0.1,0-0.1,0c0,0,0.1,0,0.1,0l24.7,0.2l17.1,0.1
		c-0.2-0.2-0.6-0.3-0.9-0.4c-1-0.2-1.4-0.8-0.7-1.2c0.6-0.4,2-0.2,3,0.4c3.3,2,7,1.3,7.6-1.4c0.3-1.4,1.2-2.5,2-2.3
		c1.6,0.3,1.5,3.5,0.3,5l5.1,0c0-0.1,0-0.1,0-0.2c0-0.6,0.7-0.7,1.5-0.4c0.5,0.2,0.9,0.4,1.1,0.6l14.4,0.1
		C574.9,278,573.5,277.7,572.2,277.6z M396,273.2c-1.6,0.1-3.5-0.2-5.2-0.7l9.1,0C399.6,272.8,398.4,273,396,273.2z M440.3,272.8
		l7.4,0C445.2,275.2,442.1,274.7,440.3,272.8z M451.4,277.8c0.1-0.7,0.5-1.3,1-1.3c0.1,0,0.2,0,0.3,0c0.4,0.1,0.9,0.6,1.5,1.3
		L451.4,277.8z M474,273.1c-0.5,0-1.1-0.1-1.6-0.2l3,0C475.3,273,474.8,273.1,474,273.1z M509.1,278.2c-0.1-1.5-1.9-4-3.5-5.1l4.9,0
		c-0.4,1.1,0.9,2.5,4.1,5.1L509.1,278.2z M539.7,277.2c-0.4,0.4-0.8,0.8-1.1,1.2l-3.6,0c0.6-2,1.7-3.1,3.2-3.1c0.1,0,0.3,0,0.5,0
		C540.9,275.6,541.1,275.9,539.7,277.2z M545.5,273.3l4.7,0C550.6,275.1,548.8,275.2,545.5,273.3z M558.9,276.7
		c-2.1-0.9-2.2-1.1-0.4-3.2c0.1-0.1,0.1-0.1,0.2-0.2l4.2,0C564.1,275.3,561.5,277.8,558.9,276.7z"/>
	<path class="st0" d="M238.5,273.1C238.5,273.1,238.5,273.2,238.5,273.1C238.5,273.2,238.5,273.1,238.5,273.1z"/>
	<path class="st0" d="M240.2,273.4c0.2,0.1,0.3,0.2,0.5,0.4C240.5,273.6,240.4,273.5,240.2,273.4c-0.9-0.5-1.2-0.6-1.7-0.3
		C239,272.7,239.3,272.8,240.2,273.4z"/>
</g>
<g>
	<path class="st0" d="M221.1,276.4c-0.1,0-0.3,0-0.5-0.1c-0.2-0.1-0.6,0-1.1,0.1L221.1,276.4z"/>
	<path class="st0" d="M584.2,273.5l0.7,0.7l-4.2,0.3c-3.3,0.2-4,0.6-3.5,1.8c0.3,0.8,1.5,1.7,2.9,2.4l2.9,0c0.7-0.4,1.7-0.7,2.7-0.8
		c2.1-0.1,2.2-0.1,0.6,0.4c-0.4,0.1-0.9,0.3-1.3,0.4l18.3,0.1l0.5-0.9c-0.6-0.2-1.2-0.3-1.8-0.4c-1-0.3-2,0-2.4,0.6
		c-0.2,0.4-2.2,0.1-4.5-0.6c-0.2,0.1-0.4,0.2-0.5,0.2c-0.2,0-0.4-0.2-0.5-0.5c-3.7-1.1-7.9-2.7-9.1-3.7L584.2,273.5z"/>
	<path class="st0" d="M512.4,273.4c1.3,0,2.4,0.4,2.4,0.9c0,0.5-0.7,0.9-1.5,0.9c-0.8,0-1.8-0.4-2.4-0.9
		C510.5,273.7,511.1,273.3,512.4,273.4"/>
	<path class="st0" d="M205.5,271.6c0.3,0.3,0.4,0.7-0.1,0.9c-0.6,0.5-1.4,0.4-2.4-0.3c-1.2-0.8-1.5-0.7-1.7,0c-0.2,1.1-0.9,1.1-1,0
		c0-0.2,0.1-0.5,0.3-0.7l-7.4,0c0.1,0.2,0.5,0.5,1.1,0.8c0.7,0.3,1.2,0.8,1,1c-0.2,0.3,0.1,0.5,0.8,0.6c0.7,0.1,1.3-0.3,1.6-0.9
		c0.5-1.3,0.7-1.3,3.3,1.3c0.8,0.8,1.3,1.5,1.5,1.9l8.8,0c-0.3-0.2-0.6-0.4-0.7-0.5c-0.4-0.5-0.1-1.1,0.6-1.5
		c-0.4-0.2-0.6-0.4-0.1-0.6c0.4-0.1,1-0.1,1.7,0.1c0.1,0,0.2,0,0.3,0c0.8,0,1.6-0.2,1.9-0.5c0.2-0.3,1.8-0.7,3.5-0.9
		c1.3-0.1,2.5-0.4,3.1-0.7L205.5,271.6z"/>
</g>
<path class="st0" d="M194.4,272.4c0.7,0.3,1.2,0.8,1,1c-0.2,0.3,0.1,0.5,0.8,0.6c0.7,0.1,1.3-0.3,1.6-0.9c0.5-1.3,0.7-1.3,3.3,1.3
	c0.8,0.8,1.3,1.5,1.5,1.9l8.8,0c-0.3-0.2-0.6-0.4-0.7-0.5c-0.4-0.5-0.1-1.1,0.6-1.5c-0.4-0.2-0.6-0.4-0.1-0.6c0.4-0.1,1-0.1,1.7,0.1
	c0.1,0,0.2,0,0.3,0c0.8,0,1.6-0.2,1.9-0.5c0.2-0.3,1.8-0.7,3.5-0.9c1.3-0.1,2.5-0.4,3.1-0.7l-16.2-0.1c0.3,0.3,0.4,0.7-0.1,0.9
	c-0.6,0.5-1.4,0.4-2.4-0.3c-1.2-0.8-1.5-0.7-1.7,0c-0.2,1.1-0.9,1.1-1,0c0-0.2,0.1-0.5,0.3-0.7l-7.4,0
	C193.4,271.8,193.8,272.1,194.4,272.4z"/>
<g>
	<path class="st0" d="M189.1,271.6c0.3,0.6,0.6,1.2,1,1.6l1,1.3l-2.1,0.2c-1.7,0.1-2.1,0.3-1.8,1.1c0.1,0.1,0.2,0.3,0.3,0.5l8.4,0.1
		c-2.1-0.7-4.6-1.9-4.8-2.4c-0.1-0.2,0.3-0.7,0.8-1c0.5-0.3,0.5-0.7,0.1-0.9c-0.3-0.1-0.4-0.3-0.4-0.4L189.1,271.6z"/>
	<path class="st0" d="M531.4,273.7c2.2,0.1,3.2,0.4,2.7,0.9c-0.4,0.4-2.3,0.8-4.2,0.7c-2.2-0.1-3.2-0.4-2.7-0.9
		C527.6,274,529.5,273.7,531.4,273.7"/>
	<path class="st0" d="M204.4,274.3c0.2,0,0.6,0,1,0.2c0.8,0.3,1.2,0.8,1,1.1c-0.2,0.3-0.8,0.3-1.4,0.1c-0.5-0.2-1-0.7-1-1.1
		C204.1,274.4,204.2,274.3,204.4,274.3"/>
	<path class="st0" d="M153.8,274c0.7,0,1.2,0.3,1.2,0.6c0,0.3-0.3,0.6-0.8,0.5c-0.4,0-1-0.2-1.2-0.6
		C152.8,274.3,153.1,274,153.8,274"/>
	<path class="st0" d="M162.8,274.3c0.2,0,0.5,0,0.7,0c1.1,0,1.6,0.2,1.4,0.6c-0.2,0.3-1.2,0.4-2.2,0.4c-1.2,0-1.6-0.2-1.4-0.6
		C161.5,274.5,162.1,274.3,162.8,274.3"/>
	<path class="st0" d="M605.9,289.6c-0.8,0.5-1.3,1.2-1.3,1.6c0,0.5,1,0.4,2.3-0.2c0.7-0.4,1.4-0.9,1.8-1.3L605.9,289.6z"/>
	<path class="st0" d="M158.6,287.7c1,0,1.1,0.1,0.4,0.7c-1.4,1-1.2,1.6,0.7,1.6c0.9,0,1.4,0.3,1.1,0.6c-0.5,0.6-1,0.7-2.5,0.2
		C156.7,290.3,157,287.7,158.6,287.7"/>
	<path class="st0" d="M562.8,290.7c0.3,0,0.6,0.7,0.6,1.4c0,0.8-0.7,1.4-1.5,1.4c-0.8,0-1.1-0.7-0.6-1.4
		C561.8,291.3,562.5,290.7,562.8,290.7"/>
	<path class="st0" d="M105.4,288c0.4,0,0.8,0.3,0.8,0.6c0,0.3-0.4,0.6-0.8,0.6c-0.4,0-0.8-0.2-0.8-0.6
		C104.6,288.3,105,288,105.4,288"/>
	<path class="st0" d="M110.9,288c0.4,0,0.8,0.4,0.8,0.9c0,0.5-0.4,0.9-0.8,0.9c-0.4,0-0.8-0.4-0.8-0.9
		C110.1,288.4,110.4,288,110.9,288"/>
	<path class="st0" d="M120.7,288.1c0.3,0,0.4,0.3,0.3,0.6c-0.2,0.4-0.8,0.9-1.4,1c-0.6,0.1-0.9-0.1-0.7-0.5c0.2-0.4,0.8-0.9,1.4-1
		C120.4,288.1,120.6,288.1,120.7,288.1"/>
	<path class="st0" d="M148.7,288.4c0.2,0,0.3,0,0.5,0.1c0.6,0.2,1.6,0.3,2.1,0.4c1.1,0-1.8,1-3.2,1.1c-0.6,0-0.8-0.4-0.5-0.9
		C147.7,288.7,148.2,288.5,148.7,288.4"/>
	<path class="st0" d="M167.9,289c0.2,0,0.3,0,0.5,0c0.6,0.2,0.2,0.4-0.8,0.6c-1.3,0.2-1.6,0.2-1-0.3
		C166.9,289.1,167.4,289,167.9,289"/>
	<path class="st0" d="M101.9,289.3c0.2,0,0.5,0.3,0.7,0.6c0.5,1,0.1,1.2-0.7,0.3c-0.3-0.3-0.4-0.7-0.2-0.9
		C101.7,289.3,101.8,289.3,101.9,289.3"/>
	<path class="st0" d="M131.3,289.9c0.5,0,0.8,0.3,0.8,0.6c0,0.3-0.2,0.5-0.4,0.6c-0.2,0-0.5-0.2-0.8-0.6
		C130.7,290.1,130.8,289.9,131.3,289.9"/>
	<path class="st0" d="M112.5,290.3c0.4,0,0.8,0.2,0.8,0.6c0,0.3-0.4,0.6-0.8,0.6c-0.4,0-0.8-0.3-0.8-0.6
		C111.7,290.6,112,290.3,112.5,290.3"/>
	<path class="st0" d="M182,292.5c-0.1,0-0.4,0.2-0.7,0.4l1.1,0C182.4,292.7,182.2,292.5,182,292.5"/>
</g>
</svg>
